<?xml version="1.0" encoding="utf-8"?>
<!DOCTYPE svg PUBLIC "-//W3C//DTD SVG 1.1//EN" "http://www.w3.org/Graphics/SVG/1.1/DTD/svg11.dtd">
<svg version="1.1" xmlns="http://www.w3.org/2000/svg" width="640" height="300">
<g>
	<path fill="#D8D5E2" d="M0,270c0,16.57,13.43,30,30,30h580c16.57,0,30-13.43,30-30V30c0-16.57-13.43-30-30-30H30
		C13.43,0,0,13.43,0,30V270z"/>
</g>
<g>
	<path fill="#1D1D1B" d="M137.12,279.65l-1.34,1.62c-0.46-0.43-0.91-0.59-1.44-0.59c-1.6,0-1.98,1.95-1.98,3.31
		c0,1.11,0.5,1.42,1.23,1.42c0.56,0,0.99-0.21,1.6-0.58l1.01,1.79c-0.85,0.62-1.81,0.99-2.99,0.99c-2.4,0-3.76-1.46-3.76-3.71
		c0-2.21,1.34-5.39,4.88-5.39C135.46,278.51,136.42,278.91,137.12,279.65z"/>
	<path fill="#1D1D1B" d="M139.76,284.26c0.06,0.99,0.64,1.31,1.39,1.31c0.72,0,1.34-0.26,2.15-0.78l0.99,1.66
		c-0.94,0.67-2.11,1.17-3.51,1.17c-2.61,0-3.83-1.47-3.83-3.63c0-2.32,1.26-5.47,4.95-5.47c2.15,0,3.3,1.04,3.3,2.38
		C145.2,283.28,142.34,284.02,139.76,284.26z M142.39,281.08c0-0.4-0.18-0.72-0.77-0.72c-1.02,0-1.52,1.12-1.74,2.24
		C141.91,282.47,142.39,281.57,142.39,281.08z"/>
	<path fill="#1D1D1B" d="M153.99,281.11l-0.86,6.23h-2.8l0.78-5.54c0.11-0.77-0.08-0.96-0.38-0.96c-0.51,0-1.06,0.74-1.63,1.94
		l-0.64,4.56h-2.8l1.18-8.53h2.43l-0.02,1.46c0.69-1.06,1.76-1.75,2.88-1.75C153.47,278.51,154.21,279.47,153.99,281.11z"/>
	<path fill="#1D1D1B" d="M159.71,285.12l0.72,1.86c-0.74,0.43-1.71,0.64-2.46,0.64c-1.98,0-2.77-1.15-2.48-3.28l0.51-3.58h-1.09
		l0.26-1.95h1.22l0.53-1.86l2.45-0.29l-0.3,2.14h1.9l-0.54,1.95h-1.62l-0.5,3.58c-0.13,0.82,0.08,1.04,0.51,1.04
		C159.11,285.38,159.39,285.3,159.71,285.12z"/>
	<path fill="#1D1D1B" d="M167.96,278.69l-0.78,2.75c-0.27-0.08-0.48-0.13-0.74-0.13c-1.04,0-1.55,1.01-1.98,2.26l-0.53,3.76h-2.8
		l1.18-8.53h2.43l-0.02,1.55c0.56-1.12,1.52-1.81,2.38-1.81C167.46,278.55,167.7,278.59,167.96,278.69z"/>
	<path fill="#1D1D1B" d="M176.15,279.46l-0.77,5.28c-0.02,0.14-0.03,0.26-0.03,0.37c0,0.37,0.13,0.53,0.42,0.64l-0.8,1.82
		c-0.98-0.06-1.82-0.5-2.11-1.41c-0.58,0.85-1.38,1.46-2.51,1.46c-1.87,0-2.82-1.33-2.82-3.42c0-2.46,1.31-5.68,4.99-5.68
		C173.68,278.51,174.98,278.79,176.15,279.46z M170.4,284.2c0,1.12,0.38,1.38,0.85,1.38c0.5,0,0.98-0.38,1.41-1.07l0.58-3.87
		c-0.29-0.1-0.5-0.13-0.82-0.13C170.91,280.5,170.4,282.61,170.4,284.2z"/>
	<path fill="#1D1D1B" d="M179.82,284.8c-0.06,0.46,0.08,0.58,0.32,0.58c0.11,0,0.24-0.03,0.37-0.06l0.29,1.98
		c-0.46,0.21-1.12,0.32-1.71,0.32c-1.54,0-2.32-0.91-2.08-2.62l1.34-9.56l2.83-0.29L179.82,284.8z"/>
	<path fill="#1D1D1B" d="M184.35,287.33h-2.8l1.18-8.53h2.8L184.35,287.33z M186.16,275.84c-0.11,0.85-0.86,1.5-1.79,1.5
		c-0.96,0-1.54-0.7-1.42-1.62c0.13-0.86,0.86-1.52,1.79-1.52C185.71,274.21,186.27,274.91,186.16,275.84z"/>
	<path fill="#1D1D1B" d="M193.23,280.8l-4.02,4.4h3.49l-0.54,2.13h-6.72l0.26-2l4.05-4.42h-3.09l0.3-2.11h6.53L193.23,280.8z"/>
	<path fill="#1D1D1B" d="M196.48,284.26c0.06,0.99,0.64,1.31,1.39,1.31c0.72,0,1.34-0.26,2.15-0.78l0.99,1.66
		c-0.94,0.67-2.11,1.17-3.51,1.17c-2.61,0-3.83-1.47-3.83-3.63c0-2.32,1.26-5.47,4.95-5.47c2.15,0,3.3,1.04,3.3,2.38
		C201.92,283.28,199.06,284.02,196.48,284.26z M199.1,281.08c0-0.4-0.18-0.72-0.77-0.72c-1.02,0-1.52,1.12-1.74,2.24
		C198.62,282.47,199.1,281.57,199.1,281.08z"/>
	<path fill="#1D1D1B" d="M211.84,275.44l-1.66,11.89h-2.48l0.02-1.15c-0.53,0.75-1.34,1.44-2.51,1.44c-1.82,0-2.67-1.3-2.67-3.44
		c0-2.35,1.09-5.67,4.21-5.67c0.7,0,1.34,0.29,1.78,0.75l0.58-4.11L211.84,275.44z M205.41,284.18c0,1.12,0.35,1.39,0.8,1.39
		c0.61,0,1.17-0.72,1.62-1.46l0.43-3.04c-0.27-0.35-0.54-0.51-0.99-0.51C205.81,280.56,205.41,282.84,205.41,284.18z"/>
	<path fill="#1D1D1B" d="M224.31,279.46l-0.77,5.28c-0.02,0.14-0.03,0.26-0.03,0.37c0,0.37,0.13,0.53,0.42,0.64l-0.8,1.82
		c-0.98-0.06-1.82-0.5-2.11-1.41c-0.58,0.85-1.38,1.46-2.51,1.46c-1.87,0-2.82-1.33-2.82-3.42c0-2.46,1.31-5.68,4.99-5.68
		C221.84,278.51,223.14,278.79,224.31,279.46z M218.56,284.2c0,1.12,0.38,1.38,0.85,1.38c0.5,0,0.98-0.38,1.41-1.07l0.58-3.87
		c-0.29-0.1-0.5-0.13-0.82-0.13C219.07,280.5,218.56,282.61,218.56,284.2z"/>
	<path fill="#1D1D1B" d="M227.98,284.8c-0.06,0.46,0.08,0.58,0.32,0.58c0.11,0,0.24-0.03,0.37-0.06l0.29,1.98
		c-0.46,0.21-1.12,0.32-1.71,0.32c-1.54,0-2.32-0.91-2.08-2.62l1.34-9.56l2.83-0.29L227.98,284.8z"/>
	<path fill="#1D1D1B" d="M238.32,279.46l-1.01,7.09c-0.45,3.07-1.78,4.39-4.67,4.39c-1.06,0-2.32-0.37-3.27-0.98l0.91-1.82
		c0.88,0.48,1.65,0.67,2.34,0.67c0.86,0,1.68-0.26,1.9-1.78l0.13-0.75c-0.54,0.62-1.3,1.06-2.21,1.06c-1.86,0-2.82-1.36-2.82-3.35
		c0-2.3,1.31-5.47,5.06-5.47C235.86,278.51,237.15,278.79,238.32,279.46z M232.51,283.91c0,1.07,0.43,1.33,0.88,1.33
		c0.53,0,1.02-0.42,1.47-1.04l0.54-3.57c-0.29-0.1-0.5-0.13-0.8-0.13C233.02,280.5,232.51,282.56,232.51,283.91z"/>
	<path fill="#1D1D1B" d="M247.54,282.16c-0.02,2.45-1.2,5.46-4.87,5.46c-2.31,0-3.65-1.36-3.65-3.65c0-2.46,1.2-5.46,4.85-5.46
		C246.19,278.51,247.55,279.92,247.54,282.16z M241.89,284.13c0,1.02,0.32,1.42,1.01,1.42c1.52,0,1.76-2.35,1.78-3.55
		c0.02-1.01-0.32-1.42-1.01-1.42C242.14,280.58,241.89,282.93,241.89,284.13z"/>
	<path fill="#1D1D1B" d="M255.09,278.69l-0.78,2.75c-0.27-0.08-0.48-0.13-0.74-0.13c-1.04,0-1.55,1.01-1.98,2.26l-0.53,3.76h-2.8
		l1.18-8.53h2.43l-0.02,1.55c0.56-1.12,1.52-1.81,2.38-1.81C254.59,278.55,254.83,278.59,255.09,278.69z"/>
	<path fill="#1D1D1B" d="M257.55,287.33h-2.8l1.18-8.53h2.8L257.55,287.33z M259.36,275.84c-0.11,0.85-0.86,1.5-1.79,1.5
		c-0.96,0-1.54-0.7-1.42-1.62c0.13-0.86,0.86-1.52,1.79-1.52C258.91,274.21,259.47,274.91,259.36,275.84z"/>
	<path fill="#1D1D1B" d="M264.22,285.12l0.72,1.86c-0.74,0.43-1.71,0.64-2.46,0.64c-1.98,0-2.77-1.15-2.48-3.28l0.51-3.58h-1.09
		l0.26-1.95h1.22l0.53-1.86l2.45-0.29l-0.3,2.14h1.9l-0.54,1.95h-1.62l-0.5,3.58c-0.13,0.82,0.08,1.04,0.51,1.04
		C263.62,285.38,263.9,285.3,264.22,285.12z"/>
	<path fill="#1D1D1B" d="M273.97,281.11l-0.88,6.23h-2.8l0.78-5.54c0.11-0.77-0.08-0.96-0.37-0.96c-0.53,0-1.06,0.74-1.65,1.94
		l-0.64,4.56h-2.8l1.67-11.89l2.83-0.29l-0.7,5.03c0.58-0.99,1.6-1.67,2.69-1.67C273.44,278.51,274.19,279.47,273.97,281.11z"/>
	<path fill="#1D1D1B" d="M287.35,281.09l-0.88,6.24h-2.79l0.78-5.54c0.11-0.78-0.08-0.96-0.35-0.96c-0.48,0-0.96,0.69-1.42,1.81
		l-0.66,4.69h-2.8l0.78-5.54c0.11-0.78-0.1-0.96-0.38-0.96c-0.43,0-0.96,0.72-1.39,1.9l-0.64,4.59h-2.8l1.18-8.53h2.43l-0.02,1.33
		c0.66-1.01,1.6-1.62,2.62-1.62c1.01,0,1.7,0.54,1.87,1.52c0.66-0.93,1.63-1.52,2.58-1.52
		C286.82,278.51,287.57,279.47,287.35,281.09z"/>
	<path fill="#1D1D1B" d="M295.52,279.62l-1.2,1.52c-0.61-0.4-1.34-0.62-1.98-0.62c-0.67,0-0.96,0.22-0.96,0.56
		c0,0.37,0.27,0.48,1.62,0.93c1.39,0.46,2.16,1.25,2.16,2.59c0,1.49-1.02,3.03-3.91,3.03c-1.52,0-2.9-0.59-3.65-1.44l1.38-1.46
		c0.56,0.5,1.31,0.9,2.29,0.9c0.69,0,1.12-0.26,1.12-0.69c0-0.45-0.3-0.59-1.65-1.06c-1.42-0.5-2.14-1.23-2.14-2.53
		c0-1.54,1.33-2.83,3.73-2.83C293.62,278.51,294.74,278.96,295.52,279.62z"/>
	<path fill="#1D1D1B" d="M308.22,282.16c-0.02,2.45-1.2,5.46-4.87,5.46c-2.3,0-3.65-1.36-3.65-3.65c0-2.46,1.2-5.46,4.85-5.46
		C306.88,278.51,308.24,279.92,308.22,282.16z M302.57,284.13c0,1.02,0.32,1.42,1.01,1.42c1.52,0,1.76-2.35,1.78-3.55
		c0.02-1.01-0.32-1.42-1.01-1.42C302.83,280.58,302.57,282.93,302.57,284.13z"/>
	<path fill="#1D1D1B" d="M317.28,281.11l-0.86,6.23h-2.8l0.78-5.54c0.11-0.77-0.08-0.96-0.38-0.96c-0.51,0-1.06,0.74-1.63,1.94
		l-0.64,4.56h-2.8l1.18-8.53h2.43l-0.02,1.46c0.69-1.06,1.76-1.75,2.88-1.75C316.77,278.51,317.5,279.47,317.28,281.11z"/>
	<path fill="#1D1D1B" d="M329.55,279.65l-1.34,1.62c-0.46-0.43-0.91-0.59-1.44-0.59c-1.6,0-1.98,1.95-1.98,3.31
		c0,1.11,0.5,1.42,1.23,1.42c0.56,0,0.99-0.21,1.6-0.58l1.01,1.79c-0.85,0.62-1.81,0.99-2.99,0.99c-2.4,0-3.76-1.46-3.76-3.71
		c0-2.21,1.34-5.39,4.88-5.39C327.89,278.51,328.85,278.91,329.55,279.65z"/>
	<path fill="#1D1D1B" d="M332.19,284.26c0.06,0.99,0.64,1.31,1.39,1.31c0.72,0,1.34-0.26,2.15-0.78l0.99,1.66
		c-0.94,0.67-2.11,1.17-3.51,1.17c-2.61,0-3.83-1.47-3.83-3.63c0-2.32,1.26-5.47,4.95-5.47c2.14,0,3.3,1.04,3.3,2.38
		C337.63,283.28,334.77,284.02,332.19,284.26z M334.81,281.08c0-0.4-0.18-0.72-0.77-0.72c-1.02,0-1.52,1.12-1.74,2.24
		C334.33,282.47,334.81,281.57,334.81,281.08z"/>
	<path fill="#1D1D1B" d="M346.42,281.11l-0.86,6.23h-2.8l0.78-5.54c0.11-0.77-0.08-0.96-0.38-0.96c-0.51,0-1.06,0.74-1.63,1.94
		l-0.64,4.56h-2.8l1.18-8.53h2.43l-0.02,1.46c0.69-1.06,1.76-1.75,2.88-1.75C345.9,278.51,346.64,279.47,346.42,281.11z"/>
	<path fill="#1D1D1B" d="M352.14,285.12l0.72,1.86c-0.74,0.43-1.71,0.64-2.46,0.64c-1.98,0-2.77-1.15-2.48-3.28l0.51-3.58h-1.09
		l0.26-1.95h1.22l0.53-1.86l2.45-0.29l-0.3,2.14h1.9l-0.54,1.95h-1.62l-0.5,3.58c-0.13,0.82,0.08,1.04,0.51,1.04
		C351.53,285.38,351.82,285.3,352.14,285.12z"/>
	<path fill="#1D1D1B" d="M360.38,278.69l-0.78,2.75c-0.27-0.08-0.48-0.13-0.74-0.13c-1.04,0-1.55,1.01-1.98,2.26l-0.53,3.76h-2.8
		l1.18-8.53h2.43l-0.02,1.55c0.56-1.12,1.52-1.81,2.39-1.81C359.89,278.55,360.13,278.59,360.38,278.69z"/>
	<path fill="#1D1D1B" d="M368.58,279.46l-0.77,5.28c-0.02,0.14-0.03,0.26-0.03,0.37c0,0.37,0.13,0.53,0.42,0.64l-0.8,1.82
		c-0.98-0.06-1.83-0.5-2.11-1.41c-0.58,0.85-1.38,1.46-2.51,1.46c-1.87,0-2.82-1.33-2.82-3.42c0-2.46,1.31-5.68,4.99-5.68
		C366.11,278.51,367.41,278.79,368.58,279.46z M362.83,284.2c0,1.12,0.38,1.38,0.85,1.38c0.5,0,0.98-0.38,1.41-1.07l0.58-3.87
		c-0.29-0.1-0.5-0.13-0.82-0.13C363.34,280.5,362.83,282.61,362.83,284.2z"/>
	<path fill="#1D1D1B" d="M372.25,284.8c-0.06,0.46,0.08,0.58,0.32,0.58c0.11,0,0.24-0.03,0.37-0.06l0.29,1.98
		c-0.46,0.21-1.12,0.32-1.71,0.32c-1.54,0-2.32-0.91-2.08-2.62l1.34-9.56l2.83-0.29L372.25,284.8z"/>
	<path fill="#1D1D1B" d="M376.78,287.33h-2.8l1.18-8.53h2.8L376.78,287.33z M378.59,275.84c-0.11,0.85-0.86,1.5-1.79,1.5
		c-0.96,0-1.54-0.7-1.42-1.62c0.13-0.86,0.87-1.52,1.79-1.52C378.14,274.21,378.7,274.91,378.59,275.84z"/>
	<path fill="#1D1D1B" d="M385.66,280.8l-4.02,4.4h3.49l-0.54,2.13h-6.72l0.26-2l4.05-4.42h-3.09l0.3-2.11h6.53L385.66,280.8z"/>
	<path fill="#1D1D1B" d="M388.91,284.26c0.06,0.99,0.64,1.31,1.39,1.31c0.72,0,1.34-0.26,2.15-0.78l0.99,1.66
		c-0.94,0.67-2.11,1.17-3.51,1.17c-2.61,0-3.83-1.47-3.83-3.63c0-2.32,1.26-5.47,4.95-5.47c2.14,0,3.3,1.04,3.3,2.38
		C394.35,283.28,391.49,284.02,388.91,284.26z M391.53,281.08c0-0.4-0.18-0.72-0.77-0.72c-1.02,0-1.52,1.12-1.74,2.24
		C391.05,282.47,391.53,281.57,391.53,281.08z"/>
	<path fill="#1D1D1B" d="M404.27,275.44l-1.67,11.89h-2.48l0.02-1.15c-0.53,0.75-1.34,1.44-2.51,1.44c-1.83,0-2.67-1.3-2.67-3.44
		c0-2.35,1.09-5.67,4.21-5.67c0.7,0,1.34,0.29,1.78,0.75l0.58-4.11L404.27,275.44z M397.84,284.18c0,1.12,0.35,1.39,0.8,1.39
		c0.61,0,1.17-0.72,1.62-1.46l0.43-3.04c-0.27-0.35-0.54-0.51-0.99-0.51C398.24,280.56,397.84,282.84,397.84,284.18z"/>
	<path fill="#1D1D1B" d="M410.85,287.33h-2.8l1.18-8.53h2.8L410.85,287.33z M412.65,275.84c-0.11,0.85-0.86,1.5-1.79,1.5
		c-0.96,0-1.54-0.7-1.42-1.62c0.13-0.86,0.87-1.52,1.79-1.52C412.21,274.21,412.77,274.91,412.65,275.84z"/>
	<path fill="#1D1D1B" d="M420.98,281.11l-0.86,6.23h-2.8l0.78-5.54c0.11-0.77-0.08-0.96-0.38-0.96c-0.51,0-1.06,0.74-1.63,1.94
		l-0.64,4.56h-2.8l1.18-8.53h2.43l-0.02,1.46c0.69-1.06,1.76-1.75,2.88-1.75C420.46,278.51,421.2,279.47,420.98,281.11z"/>
	<path fill="#1D1D1B" d="M426.22,278.34l-0.06,0.46h1.97l-0.58,1.95h-1.66l-0.77,5.51c-0.4,2.9-2.1,3.95-4.21,4.66l-0.69-2.03
		c1.23-0.45,1.89-1.02,2.1-2.5l0.77-5.63h-1.18l0.26-1.95h1.2l0.1-0.64c0.22-1.7,1.49-3.01,3.68-3.01c1.07,0,1.92,0.34,2.48,0.72
		l-0.96,1.68c-0.43-0.26-0.91-0.34-1.26-0.34C426.72,277.22,426.33,277.54,426.22,278.34z"/>
	<path fill="#1D1D1B" d="M434.45,278.69l-0.78,2.75c-0.27-0.08-0.48-0.13-0.74-0.13c-1.04,0-1.55,1.01-1.98,2.26l-0.53,3.76h-2.8
		l1.18-8.53h2.43l-0.02,1.55c0.56-1.12,1.52-1.81,2.39-1.81C433.95,278.55,434.19,278.59,434.45,278.69z"/>
	<path fill="#1D1D1B" d="M442.64,279.46l-0.77,5.28c-0.02,0.14-0.03,0.26-0.03,0.37c0,0.37,0.13,0.53,0.42,0.64l-0.8,1.82
		c-0.98-0.06-1.83-0.5-2.11-1.41c-0.58,0.85-1.38,1.46-2.51,1.46c-1.87,0-2.82-1.33-2.82-3.42c0-2.46,1.31-5.68,4.99-5.68
		C440.17,278.51,441.47,278.79,442.64,279.46z M436.89,284.2c0,1.12,0.38,1.38,0.85,1.38c0.5,0,0.98-0.38,1.41-1.07l0.58-3.87
		c-0.29-0.1-0.5-0.13-0.82-0.13C437.4,280.5,436.89,282.61,436.89,284.2z"/>
	<path fill="#1D1D1B" d="M450.62,279.62l-1.2,1.52c-0.61-0.4-1.34-0.62-1.98-0.62c-0.67,0-0.96,0.22-0.96,0.56
		c0,0.37,0.27,0.48,1.62,0.93c1.39,0.46,2.16,1.25,2.16,2.59c0,1.49-1.02,3.03-3.91,3.03c-1.52,0-2.9-0.59-3.65-1.44l1.38-1.46
		c0.56,0.5,1.31,0.9,2.29,0.9c0.69,0,1.12-0.26,1.12-0.69c0-0.45-0.3-0.59-1.65-1.06c-1.42-0.5-2.14-1.23-2.14-2.53
		c0-1.54,1.33-2.83,3.73-2.83C448.72,278.51,449.84,278.96,450.62,279.62z"/>
	<path fill="#1D1D1B" d="M455.95,285.12l0.72,1.86c-0.74,0.43-1.71,0.64-2.46,0.64c-1.98,0-2.77-1.15-2.48-3.28l0.51-3.58h-1.09
		l0.26-1.95h1.22l0.53-1.86l2.45-0.29l-0.3,2.14h1.9l-0.54,1.95h-1.62l-0.5,3.58c-0.13,0.82,0.08,1.04,0.51,1.04
		C455.34,285.38,455.63,285.3,455.95,285.12z"/>
	<path fill="#1D1D1B" d="M464.19,278.69l-0.78,2.75c-0.27-0.08-0.48-0.13-0.74-0.13c-1.04,0-1.55,1.01-1.98,2.26l-0.53,3.76h-2.8
		l1.18-8.53h2.43l-0.02,1.55c0.56-1.12,1.52-1.81,2.39-1.81C463.69,278.55,463.93,278.59,464.19,278.69z"/>
	<path fill="#1D1D1B" d="M471.15,287.33h-2.43l0.05-1.17c-0.72,0.88-1.6,1.46-2.66,1.46c-1.63,0-2.24-1.07-2.02-2.71l0.86-6.11h2.8
		l-0.77,5.6c-0.11,0.77,0.08,0.96,0.45,0.96c0.46,0,0.94-0.53,1.36-1.2l0.75-5.36h2.79L471.15,287.33z"/>
	<path fill="#1D1D1B" d="M480.72,279.65l-1.34,1.62c-0.46-0.43-0.91-0.59-1.44-0.59c-1.6,0-1.98,1.95-1.98,3.31
		c0,1.11,0.5,1.42,1.23,1.42c0.56,0,0.99-0.21,1.6-0.58l1.01,1.79c-0.85,0.62-1.81,0.99-2.99,0.99c-2.4,0-3.76-1.46-3.76-3.71
		c0-2.21,1.34-5.39,4.88-5.39C479.05,278.51,480.01,278.91,480.72,279.65z"/>
	<path fill="#1D1D1B" d="M485.5,285.12l0.72,1.86c-0.74,0.43-1.71,0.64-2.46,0.64c-1.98,0-2.77-1.15-2.48-3.28l0.51-3.58h-1.09
		l0.26-1.95h1.22l0.53-1.86l2.45-0.29l-0.3,2.14h1.9l-0.54,1.95h-1.62l-0.5,3.58c-0.13,0.82,0.08,1.04,0.51,1.04
		C484.89,285.38,485.18,285.3,485.5,285.12z"/>
	<path fill="#1D1D1B" d="M494.21,287.33h-2.43l0.05-1.17c-0.72,0.88-1.6,1.46-2.66,1.46c-1.63,0-2.24-1.07-2.02-2.71l0.86-6.11h2.8
		l-0.77,5.6c-0.11,0.77,0.08,0.96,0.45,0.96c0.46,0,0.94-0.53,1.36-1.2l0.75-5.36h2.78L494.21,287.33z"/>
	<path fill="#1D1D1B" d="M502.83,278.69l-0.78,2.75c-0.27-0.08-0.48-0.13-0.74-0.13c-1.04,0-1.55,1.01-1.98,2.26l-0.53,3.76h-2.8
		l1.18-8.53h2.43l-0.02,1.55c0.56-1.12,1.52-1.81,2.39-1.81C502.33,278.55,502.57,278.59,502.83,278.69z"/>
	<path fill="#1D1D1B" d="M505.23,284.26c0.06,0.99,0.64,1.31,1.39,1.31c0.72,0,1.34-0.26,2.14-0.78l0.99,1.66
		c-0.94,0.67-2.11,1.17-3.51,1.17c-2.61,0-3.83-1.47-3.83-3.63c0-2.32,1.26-5.47,4.95-5.47c2.14,0,3.3,1.04,3.3,2.38
		C510.67,283.28,507.8,284.02,505.23,284.26z M507.85,281.08c0-0.4-0.18-0.72-0.77-0.72c-1.02,0-1.52,1.12-1.74,2.24
		C507.37,282.47,507.85,281.57,507.85,281.08z"/>
</g>
<g id="incompatible_server_1_">
</g>
<g id="incompatible_server_2_">
</g>
<g id="incompatible_server">
</g>
<g>
	<g>
		<line fill="none" stroke="#8B80A9" stroke-width="1.5" stroke-miterlimit="10" x1="265.33" y1="128" x2="193.06" y2="82.85"/>
		<g>
			<polygon fill="#8B80A9" points="195.96,80.28 188.49,80.02 192,86.62 			"/>
		</g>
	</g>
</g>
<g>
	<g>
		<line fill="none" stroke="#8B80A9" stroke-width="1.5" stroke-miterlimit="10" x1="267" y1="172.33" x2="176.89" y2="213.8"/>
		<g>
			<polygon fill="#8B80A9" points="176.33,209.97 172.01,216.07 179.46,216.76 			"/>
		</g>
	</g>
</g>
<g>
	<g>
		<line fill="none" stroke="#8B80A9" stroke-width="1.5" stroke-miterlimit="10" x1="380.67" y1="172.33" x2="475.35" y2="211.02"/>
		<g>
			<polygon fill="#8B80A9" points="472.93,214.04 480.34,213.03 475.76,207.12 			"/>
		</g>
	</g>
</g>
<g>
	<g>
		<line fill="none" stroke="#8B80A9" stroke-width="1.5" stroke-miterlimit="10" x1="380.67" y1="128" x2="424.54" y2="83.82"/>
		<g>
			<polygon fill="#8B80A9" points="426.41,87.22 428.32,79.99 421.1,81.95 			"/>
		</g>
	</g>
</g>
<g>
	<path fill="#3D2C70" d="M50.83,74.05c0,11.05,8.95,20,20,20h97.67c11.05,0,20-8.95,20-20v-23c0-11.05-8.95-20-20-20H70.83
		c-11.05,0-20,8.95-20,20V74.05z"/>
</g>
<g>
	<path fill="#FFFFFF" d="M87.7,57.47V68.6h-2.1l-0.12-0.93c-0.45,0.66-1.18,1.19-2.26,1.19c-2.03,0-3.03-1.68-3.03-4.26
		c0-2.46,1.25-4.21,3.3-4.21c0.72,0,1.37,0.29,1.85,0.75v-3.92L87.7,57.47z M85.33,66.23v-3.45c-0.36-0.42-0.72-0.67-1.23-0.67
		c-0.85,0-1.46,0.72-1.46,2.5c0,1.98,0.54,2.5,1.32,2.5C84.52,67.12,84.96,66.82,85.33,66.23z"/>
	<path fill="#FFFFFF" d="M96.58,67.27l-0.5,1.54c-0.93-0.08-1.54-0.36-1.92-1.14c-0.57,0.87-1.46,1.19-2.4,1.19
		c-1.59,0-2.6-1.03-2.6-2.49c0-1.74,1.32-2.69,3.74-2.69h0.81v-0.34c0-0.95-0.38-1.23-1.35-1.23c-0.51,0-1.29,0.15-2.08,0.42
		l-0.54-1.56c1-0.38,2.1-0.58,3-0.58c2.31,0,3.3,0.98,3.3,2.82v3.09C96.04,66.91,96.21,67.13,96.58,67.27z M93.72,66.41v-1.42h-0.58
		c-1.08,0-1.6,0.38-1.6,1.17c0,0.63,0.34,1,0.93,1C93,67.16,93.43,66.88,93.72,66.41z"/>
	<path fill="#FFFFFF" d="M103.08,68.23c-0.6,0.42-1.44,0.63-2.16,0.63c-1.75-0.01-2.61-1-2.61-2.88v-3.69h-1.12v-1.65h1.12v-1.72
		l2.37-0.27v1.99h1.83l-0.25,1.65h-1.58v3.66c0,0.76,0.26,1.03,0.75,1.03c0.27,0,0.54-0.07,0.86-0.27L103.08,68.23z"/>
	<path fill="#FFFFFF" d="M110.89,67.27l-0.5,1.54c-0.93-0.08-1.54-0.36-1.92-1.14c-0.57,0.87-1.46,1.19-2.4,1.19
		c-1.59,0-2.6-1.03-2.6-2.49c0-1.74,1.32-2.69,3.74-2.69h0.81v-0.34c0-0.95-0.38-1.23-1.35-1.23c-0.51,0-1.29,0.15-2.08,0.42
		l-0.54-1.56c1-0.38,2.1-0.58,3-0.58c2.31,0,3.3,0.98,3.3,2.82v3.09C110.35,66.91,110.52,67.13,110.89,67.27z M108.03,66.41v-1.42
		h-0.58c-1.08,0-1.6,0.38-1.6,1.17c0,0.63,0.34,1,0.93,1C107.31,67.16,107.74,66.88,108.03,66.41z"/>
	<path fill="#FFFFFF" d="M121.83,61.36l-0.87,1.33c-0.62-0.39-1.28-0.62-1.96-0.62c-0.65,0-0.96,0.24-0.96,0.6
		c0,0.42,0.21,0.6,1.63,1.02c1.58,0.45,2.46,1.11,2.46,2.53c0,1.65-1.56,2.62-3.54,2.62c-1.38,0-2.55-0.48-3.33-1.19l1.16-1.29
		c0.6,0.46,1.33,0.78,2.11,0.78c0.72,0,1.16-0.27,1.16-0.75c0-0.54-0.24-0.71-1.68-1.11c-1.58-0.45-2.35-1.26-2.35-2.49
		c0-1.37,1.24-2.43,3.25-2.43C120.06,60.38,121.09,60.76,121.83,61.36z"/>
	<path fill="#FFFFFF" d="M130.39,65.32h-4.92c0.15,1.42,0.82,1.81,1.8,1.81c0.64,0,1.21-0.23,1.9-0.71l0.98,1.32
		c-0.79,0.63-1.82,1.11-3.11,1.11c-2.65,0-4-1.71-4-4.2c0-2.38,1.31-4.27,3.72-4.27c2.28,0,3.67,1.5,3.67,4.08
		C130.44,64.72,130.42,65.08,130.39,65.32z M128.11,63.79c-0.01-1.08-0.34-1.83-1.29-1.83c-0.79,0-1.25,0.49-1.37,1.93h2.66V63.79z"
		/>
	<path fill="#FFFFFF" d="M137.07,60.52l-0.38,2.29c-0.25-0.06-0.45-0.1-0.72-0.1c-0.98,0-1.4,0.72-1.65,1.92v3.97h-2.37v-7.96h2.07
		l0.2,1.53c0.36-1.1,1.14-1.75,2.05-1.75C136.57,60.41,136.81,60.44,137.07,60.52z"/>
	<path fill="#FFFFFF" d="M142.81,68.6h-2.81l-2.56-7.96h2.58l1.41,6.17l1.47-6.17h2.42L142.81,68.6z"/>
	<path fill="#FFFFFF" d="M153.06,65.32h-4.92c0.15,1.42,0.82,1.81,1.8,1.81c0.64,0,1.21-0.23,1.9-0.71l0.98,1.32
		c-0.79,0.63-1.82,1.11-3.11,1.11c-2.65,0-4-1.71-4-4.2c0-2.38,1.3-4.27,3.72-4.27c2.28,0,3.67,1.5,3.67,4.08
		C153.1,64.72,153.08,65.08,153.06,65.32z M150.78,63.79c-0.01-1.08-0.34-1.83-1.29-1.83c-0.79,0-1.25,0.49-1.37,1.93h2.66V63.79z"
		/>
	<path fill="#FFFFFF" d="M159.73,60.52l-0.38,2.29c-0.25-0.06-0.45-0.1-0.72-0.1c-0.98,0-1.4,0.72-1.65,1.92v3.97h-2.37v-7.96h2.07
		l0.2,1.53c0.36-1.1,1.14-1.75,2.05-1.75C159.24,60.41,159.48,60.44,159.73,60.52z"/>
</g>
<g>
	<path fill="#3D2C70" d="M251.17,162.5c0,11.05,8.95,20,20,20h97.67c11.05,0,20-8.95,20-20v-23c0-11.05-8.95-20-20-20h-97.67
		c-11.05,0-20,8.95-20,20V162.5z"/>
</g>
<g>
	<path fill="#FFFFFF" d="M275.61,145.93v11.13h-2.1l-0.12-0.93c-0.45,0.66-1.18,1.18-2.26,1.18c-2.03,0-3.03-1.68-3.03-4.26
		c0-2.46,1.25-4.21,3.3-4.21c0.72,0,1.37,0.29,1.85,0.75v-3.92L275.61,145.93z M273.24,154.69v-3.45c-0.36-0.42-0.72-0.67-1.23-0.67
		c-0.85,0-1.46,0.72-1.46,2.5c0,1.98,0.54,2.5,1.32,2.5C272.43,155.57,272.86,155.27,273.24,154.69z"/>
	<path fill="#FFFFFF" d="M284.49,155.72l-0.5,1.54c-0.93-0.08-1.54-0.36-1.92-1.14c-0.57,0.87-1.46,1.18-2.4,1.18
		c-1.59,0-2.6-1.03-2.6-2.49c0-1.74,1.32-2.69,3.74-2.69h0.81v-0.34c0-0.95-0.38-1.23-1.35-1.23c-0.51,0-1.29,0.15-2.08,0.42
		l-0.54-1.56c1-0.38,2.1-0.58,3-0.58c2.31,0,3.3,0.98,3.3,2.82v3.09C283.95,155.36,284.11,155.59,284.49,155.72z M281.62,154.87
		v-1.42h-0.58c-1.08,0-1.6,0.38-1.6,1.17c0,0.63,0.34,1,0.93,1C280.9,155.62,281.34,155.33,281.62,154.87z"/>
	<path fill="#FFFFFF" d="M290.98,156.68c-0.6,0.42-1.44,0.63-2.16,0.63c-1.75-0.01-2.61-1-2.61-2.88v-3.69h-1.12v-1.65h1.12v-1.72
		l2.37-0.27v1.99h1.83l-0.25,1.65h-1.58v3.66c0,0.76,0.26,1.03,0.75,1.03c0.27,0,0.54-0.07,0.86-0.27L290.98,156.68z"/>
	<path fill="#FFFFFF" d="M298.8,155.72l-0.5,1.54c-0.93-0.08-1.54-0.36-1.92-1.14c-0.57,0.87-1.46,1.18-2.4,1.18
		c-1.59,0-2.6-1.03-2.6-2.49c0-1.74,1.32-2.69,3.74-2.69h0.81v-0.34c0-0.95-0.38-1.23-1.35-1.23c-0.51,0-1.29,0.15-2.08,0.42
		l-0.54-1.56c1-0.38,2.1-0.58,3-0.58c2.31,0,3.3,0.98,3.3,2.82v3.09C298.26,155.36,298.42,155.59,298.8,155.72z M295.93,154.87
		v-1.42h-0.58c-1.08,0-1.6,0.38-1.6,1.17c0,0.63,0.34,1,0.93,1C295.21,155.62,295.65,155.33,295.93,154.87z"/>
	<path fill="#FFFFFF" d="M311.47,153.05c0,2.46-1.2,4.26-3.17,4.26c-0.78,0-1.44-0.27-1.93-0.84v3.66l-2.37,0.25v-11.29h2.08
		l0.12,0.89c0.66-0.83,1.51-1.14,2.25-1.14C310.56,148.84,311.47,150.47,311.47,153.05z M309.01,153.08c0-1.98-0.48-2.5-1.3-2.5
		c-0.51,0-0.99,0.34-1.33,0.93v3.36c0.33,0.48,0.72,0.71,1.21,0.71C308.47,155.57,309.01,154.87,309.01,153.08z"/>
	<path fill="#FFFFFF" d="M318.22,148.97l-0.38,2.29c-0.25-0.06-0.45-0.11-0.72-0.11c-0.98,0-1.4,0.72-1.65,1.92v3.97h-2.37v-7.96
		h2.07l0.2,1.53c0.36-1.09,1.14-1.75,2.05-1.75C317.73,148.87,317.97,148.9,318.22,148.97z"/>
	<path fill="#FFFFFF" d="M326.47,153.08c0,2.55-1.47,4.23-3.9,4.23c-2.42,0-3.9-1.56-3.9-4.24c0-2.55,1.47-4.23,3.9-4.23
		S326.47,150.4,326.47,153.08z M321.13,153.07c0,1.77,0.48,2.5,1.44,2.5s1.44-0.77,1.44-2.49c0-1.77-0.48-2.5-1.44-2.5
		S321.13,151.34,321.13,153.07z"/>
	<path fill="#FFFFFF" d="M334.21,149.81l-1.02,1.41c-0.51-0.39-0.97-0.57-1.51-0.57c-1.02,0-1.61,0.69-1.61,2.47
		c0,1.77,0.63,2.31,1.58,2.31c0.57,0,0.96-0.18,1.53-0.54l1.03,1.47c-0.73,0.58-1.59,0.94-2.68,0.94c-2.45,0-3.94-1.65-3.94-4.17
		c0-2.53,1.51-4.3,3.9-4.3C332.59,148.84,333.45,149.17,334.21,149.81z"/>
	<path fill="#FFFFFF" d="M342.12,153.77h-4.92c0.15,1.42,0.82,1.81,1.8,1.81c0.64,0,1.21-0.22,1.9-0.71l0.98,1.32
		c-0.79,0.63-1.82,1.11-3.11,1.11c-2.65,0-4-1.71-4-4.2c0-2.38,1.3-4.28,3.72-4.28c2.28,0,3.67,1.5,3.67,4.08
		C342.16,153.17,342.15,153.53,342.12,153.77z M339.84,152.24c-0.01-1.08-0.34-1.83-1.29-1.83c-0.79,0-1.25,0.5-1.37,1.93h2.66
		V152.24z"/>
	<path fill="#FFFFFF" d="M349.41,149.81l-0.87,1.33c-0.62-0.39-1.28-0.62-1.96-0.62c-0.65,0-0.96,0.24-0.96,0.6
		c0,0.42,0.21,0.6,1.63,1.02c1.58,0.45,2.46,1.11,2.46,2.53c0,1.65-1.56,2.62-3.54,2.62c-1.38,0-2.55-0.48-3.33-1.18l1.16-1.29
		c0.6,0.46,1.33,0.78,2.12,0.78c0.72,0,1.15-0.27,1.15-0.75c0-0.54-0.24-0.71-1.68-1.11c-1.58-0.45-2.36-1.26-2.36-2.49
		c0-1.37,1.25-2.43,3.25-2.43C347.64,148.84,348.67,149.21,349.41,149.81z"/>
	<path fill="#FFFFFF" d="M356.8,149.81l-0.87,1.33c-0.62-0.39-1.28-0.62-1.96-0.62c-0.65,0-0.96,0.24-0.96,0.6
		c0,0.42,0.21,0.6,1.63,1.02c1.58,0.45,2.46,1.11,2.46,2.53c0,1.65-1.56,2.62-3.54,2.62c-1.38,0-2.55-0.48-3.33-1.18l1.16-1.29
		c0.6,0.46,1.33,0.78,2.12,0.78c0.72,0,1.15-0.27,1.15-0.75c0-0.54-0.24-0.71-1.68-1.11c-1.58-0.45-2.36-1.26-2.36-2.49
		c0-1.37,1.25-2.43,3.25-2.43C355.03,148.84,356.07,149.21,356.8,149.81z"/>
	<path fill="#FFFFFF" d="M365.82,153.08c0,2.55-1.47,4.23-3.9,4.23c-2.42,0-3.9-1.56-3.9-4.24c0-2.55,1.47-4.23,3.9-4.23
		S365.82,150.4,365.82,153.08z M360.48,153.07c0,1.77,0.48,2.5,1.44,2.5s1.44-0.77,1.44-2.49c0-1.77-0.48-2.5-1.44-2.5
		S360.48,151.34,360.48,153.07z"/>
	<path fill="#FFFFFF" d="M372.49,148.97l-0.38,2.29c-0.25-0.06-0.45-0.11-0.72-0.11c-0.98,0-1.4,0.72-1.65,1.92v3.97h-2.37v-7.96
		h2.07l0.2,1.53c0.36-1.09,1.14-1.75,2.05-1.75C372,148.87,372.24,148.9,372.49,148.97z"/>
</g>
<g>
	<path fill="#3D2C70" d="M480.33,224.55c0,11.05,8.95,20,20,20H598c11.05,0,20-8.95,20-20v-23c0-11.05-8.95-20-20-20h-97.67
		c-11.05,0-20,8.95-20,20V224.55z"/>
</g>
<g>
	<path fill="#FFFFFF" d="M517.2,207.98v11.13h-2.1l-0.12-0.93c-0.45,0.66-1.18,1.19-2.26,1.19c-2.03,0-3.03-1.68-3.03-4.26
		c0-2.46,1.25-4.21,3.3-4.21c0.72,0,1.37,0.29,1.85,0.75v-3.92L517.2,207.98z M514.83,216.74v-3.45c-0.36-0.42-0.72-0.67-1.23-0.67
		c-0.85,0-1.46,0.72-1.46,2.5c0,1.98,0.54,2.5,1.32,2.5C514.02,217.62,514.46,217.32,514.83,216.74z"/>
	<path fill="#FFFFFF" d="M526.08,217.77l-0.5,1.54c-0.93-0.08-1.54-0.36-1.92-1.14c-0.57,0.87-1.46,1.19-2.4,1.19
		c-1.59,0-2.6-1.04-2.6-2.49c0-1.74,1.32-2.68,3.74-2.68h0.81v-0.34c0-0.95-0.38-1.23-1.35-1.23c-0.51,0-1.29,0.15-2.08,0.42
		l-0.54-1.56c1-0.38,2.1-0.58,3-0.58c2.31,0,3.3,0.97,3.3,2.82v3.09C525.54,217.41,525.71,217.64,526.08,217.77z M523.22,216.92
		v-1.42h-0.58c-1.08,0-1.6,0.38-1.6,1.17c0,0.63,0.34,1,0.93,1C522.5,217.67,522.93,217.38,523.22,216.92z"/>
	<path fill="#FFFFFF" d="M532.58,218.73c-0.6,0.42-1.44,0.63-2.16,0.63c-1.75-0.01-2.61-1-2.61-2.88v-3.69h-1.12v-1.65h1.12v-1.72
		l2.37-0.27v2h1.83l-0.25,1.65h-1.58v3.66c0,0.76,0.26,1.04,0.75,1.04c0.27,0,0.54-0.08,0.86-0.27L532.58,218.73z"/>
	<path fill="#FFFFFF" d="M540.39,217.77l-0.5,1.54c-0.93-0.08-1.54-0.36-1.92-1.14c-0.57,0.87-1.46,1.19-2.4,1.19
		c-1.59,0-2.6-1.04-2.6-2.49c0-1.74,1.32-2.68,3.74-2.68h0.81v-0.34c0-0.95-0.38-1.23-1.35-1.23c-0.51,0-1.29,0.15-2.08,0.42
		l-0.54-1.56c1-0.38,2.1-0.58,3-0.58c2.31,0,3.3,0.97,3.3,2.82v3.09C539.85,217.41,540.02,217.64,540.39,217.77z M537.53,216.92
		v-1.42h-0.58c-1.08,0-1.6,0.38-1.6,1.17c0,0.63,0.34,1,0.93,1C536.81,217.67,537.24,217.38,537.53,216.92z"/>
	<path fill="#FFFFFF" d="M551.33,211.86l-0.87,1.33c-0.62-0.39-1.28-0.62-1.96-0.62c-0.65,0-0.96,0.24-0.96,0.6
		c0,0.42,0.21,0.6,1.63,1.02c1.58,0.45,2.46,1.11,2.46,2.54c0,1.65-1.56,2.62-3.54,2.62c-1.38,0-2.55-0.48-3.33-1.19l1.16-1.29
		c0.6,0.46,1.33,0.78,2.11,0.78c0.72,0,1.16-0.27,1.16-0.75c0-0.54-0.24-0.71-1.68-1.11c-1.58-0.45-2.35-1.26-2.35-2.49
		c0-1.37,1.24-2.43,3.25-2.43C549.56,210.89,550.59,211.26,551.33,211.86z"/>
	<path fill="#FFFFFF" d="M559.89,215.82h-4.92c0.15,1.42,0.82,1.82,1.8,1.82c0.64,0,1.21-0.23,1.9-0.71l0.98,1.32
		c-0.79,0.63-1.82,1.11-3.11,1.11c-2.65,0-4-1.71-4-4.2c0-2.38,1.3-4.27,3.72-4.27c2.28,0,3.67,1.5,3.67,4.08
		C559.94,215.22,559.92,215.58,559.89,215.82z M557.61,214.29c-0.01-1.08-0.34-1.83-1.29-1.83c-0.79,0-1.25,0.49-1.37,1.93h2.66
		V214.29z"/>
	<path fill="#FFFFFF" d="M566.57,211.02l-0.38,2.29c-0.25-0.06-0.45-0.1-0.72-0.1c-0.98,0-1.4,0.72-1.65,1.92v3.97h-2.37v-7.96h2.07
		l0.2,1.53c0.36-1.1,1.14-1.75,2.05-1.75C566.07,210.92,566.31,210.95,566.57,211.02z"/>
	<path fill="#FFFFFF" d="M572.31,219.11h-2.81l-2.56-7.96h2.58l1.41,6.17l1.47-6.17h2.42L572.31,219.11z"/>
	<path fill="#FFFFFF" d="M582.56,215.82h-4.92c0.15,1.42,0.82,1.82,1.8,1.82c0.64,0,1.21-0.23,1.9-0.71l0.98,1.32
		c-0.79,0.63-1.82,1.11-3.11,1.11c-2.65,0-4-1.71-4-4.2c0-2.38,1.31-4.27,3.72-4.27c2.28,0,3.67,1.5,3.67,4.08
		C582.6,215.22,582.59,215.58,582.56,215.82z M580.28,214.29c-0.01-1.08-0.34-1.83-1.29-1.83c-0.79,0-1.25,0.49-1.37,1.93h2.66
		V214.29z"/>
	<path fill="#FFFFFF" d="M589.23,211.02l-0.38,2.29c-0.25-0.06-0.45-0.1-0.72-0.1c-0.98,0-1.4,0.72-1.65,1.92v3.97h-2.37v-7.96h2.07
		l0.2,1.53c0.36-1.1,1.14-1.75,2.05-1.75C588.74,210.92,588.98,210.95,589.23,211.02z"/>
</g>
<g>
	<path fill="#3D2C70" d="M428.33,74.05c0,11.05,8.95,20,20,20H546c11.05,0,20-8.95,20-20v-23c0-11.05-8.95-20-20-20h-97.67
		c-11.05,0-20,8.95-20,20V74.05z"/>
</g>
<g>
	<path fill="#FFFFFF" d="M465.2,57.47V68.6h-2.1l-0.12-0.93c-0.45,0.66-1.18,1.19-2.26,1.19c-2.03,0-3.03-1.68-3.03-4.26
		c0-2.46,1.25-4.21,3.3-4.21c0.72,0,1.37,0.29,1.85,0.75v-3.92L465.2,57.47z M462.83,66.23v-3.45c-0.36-0.42-0.72-0.67-1.23-0.67
		c-0.85,0-1.46,0.72-1.46,2.5c0,1.98,0.54,2.5,1.32,2.5C462.02,67.12,462.46,66.82,462.83,66.23z"/>
	<path fill="#FFFFFF" d="M474.08,67.27l-0.5,1.54c-0.93-0.08-1.54-0.36-1.92-1.14c-0.57,0.87-1.46,1.19-2.4,1.19
		c-1.59,0-2.6-1.03-2.6-2.49c0-1.74,1.32-2.69,3.74-2.69h0.81v-0.34c0-0.95-0.38-1.23-1.35-1.23c-0.51,0-1.29,0.15-2.08,0.42
		l-0.54-1.56c1-0.38,2.1-0.58,3-0.58c2.31,0,3.3,0.98,3.3,2.82v3.09C473.54,66.91,473.71,67.13,474.08,67.27z M471.22,66.41v-1.42
		h-0.58c-1.08,0-1.6,0.38-1.6,1.17c0,0.63,0.34,1,0.93,1C470.5,67.16,470.93,66.88,471.22,66.41z"/>
	<path fill="#FFFFFF" d="M480.58,68.23c-0.6,0.42-1.44,0.63-2.16,0.63c-1.75-0.01-2.61-1-2.61-2.88v-3.69h-1.12v-1.65h1.12v-1.72
		l2.37-0.27v1.99h1.83l-0.25,1.65h-1.58v3.66c0,0.76,0.26,1.03,0.75,1.03c0.27,0,0.54-0.07,0.86-0.27L480.58,68.23z"/>
	<path fill="#FFFFFF" d="M488.39,67.27l-0.5,1.54c-0.93-0.08-1.54-0.36-1.92-1.14c-0.57,0.87-1.46,1.19-2.4,1.19
		c-1.59,0-2.6-1.03-2.6-2.49c0-1.74,1.32-2.69,3.74-2.69h0.81v-0.34c0-0.95-0.38-1.23-1.35-1.23c-0.51,0-1.29,0.15-2.08,0.42
		l-0.54-1.56c1-0.38,2.1-0.58,3-0.58c2.31,0,3.3,0.98,3.3,2.82v3.09C487.85,66.91,488.02,67.13,488.39,67.27z M485.53,66.41v-1.42
		h-0.58c-1.08,0-1.6,0.38-1.6,1.17c0,0.63,0.34,1,0.93,1C484.81,67.16,485.24,66.88,485.53,66.41z"/>
	<path fill="#FFFFFF" d="M499.33,61.36l-0.87,1.33c-0.62-0.39-1.28-0.62-1.96-0.62c-0.65,0-0.96,0.24-0.96,0.6
		c0,0.42,0.21,0.6,1.63,1.02c1.58,0.45,2.46,1.11,2.46,2.53c0,1.65-1.56,2.62-3.54,2.62c-1.38,0-2.55-0.48-3.33-1.19l1.16-1.29
		c0.6,0.46,1.33,0.78,2.11,0.78c0.72,0,1.16-0.27,1.16-0.75c0-0.54-0.24-0.71-1.68-1.11c-1.58-0.45-2.35-1.26-2.35-2.49
		c0-1.37,1.24-2.43,3.25-2.43C497.56,60.38,498.59,60.76,499.33,61.36z"/>
	<path fill="#FFFFFF" d="M507.89,65.32h-4.92c0.15,1.42,0.82,1.81,1.8,1.81c0.64,0,1.21-0.23,1.9-0.71l0.98,1.32
		c-0.79,0.63-1.82,1.11-3.11,1.11c-2.65,0-4-1.71-4-4.2c0-2.38,1.31-4.27,3.72-4.27c2.28,0,3.67,1.5,3.67,4.08
		C507.94,64.72,507.92,65.08,507.89,65.32z M505.61,63.79c-0.01-1.08-0.34-1.83-1.29-1.83c-0.79,0-1.25,0.49-1.37,1.93h2.66V63.79z"
		/>
	<path fill="#FFFFFF" d="M514.57,60.52l-0.38,2.29c-0.25-0.06-0.45-0.1-0.72-0.1c-0.98,0-1.4,0.72-1.65,1.92v3.97h-2.37v-7.96h2.07
		l0.2,1.53c0.36-1.1,1.14-1.75,2.05-1.75C514.07,60.41,514.31,60.44,514.57,60.52z"/>
	<path fill="#FFFFFF" d="M520.31,68.6h-2.81l-2.56-7.96h2.58l1.41,6.17l1.47-6.17h2.42L520.31,68.6z"/>
	<path fill="#FFFFFF" d="M530.56,65.32h-4.92c0.15,1.42,0.82,1.81,1.8,1.81c0.64,0,1.21-0.23,1.9-0.71l0.98,1.32
		c-0.79,0.63-1.82,1.11-3.11,1.11c-2.65,0-4-1.71-4-4.2c0-2.38,1.3-4.27,3.72-4.27c2.28,0,3.67,1.5,3.67,4.08
		C530.6,64.72,530.59,65.08,530.56,65.32z M528.28,63.79c-0.01-1.08-0.34-1.83-1.29-1.83c-0.79,0-1.25,0.49-1.37,1.93h2.66V63.79z"
		/>
	<path fill="#FFFFFF" d="M537.23,60.52l-0.38,2.29c-0.25-0.06-0.45-0.1-0.72-0.1c-0.98,0-1.4,0.72-1.65,1.92v3.97h-2.37v-7.96h2.07
		l0.2,1.53c0.36-1.1,1.14-1.75,2.05-1.75C536.74,60.41,536.98,60.44,537.23,60.52z"/>
</g>
<g>
	<path fill="#3D2C70" d="M34.33,227.55c0,11.05,8.95,20,20,20H152c11.05,0,20-8.95,20-20v-23c0-11.05-8.95-20-20-20H54.33
		c-11.05,0-20,8.95-20,20V227.55z"/>
</g>
<g>
	<path fill="#FFFFFF" d="M71.2,210.98v11.13h-2.1l-0.12-0.93c-0.45,0.66-1.18,1.19-2.26,1.19c-2.03,0-3.03-1.68-3.03-4.26
		c0-2.46,1.25-4.21,3.3-4.21c0.72,0,1.37,0.29,1.85,0.75v-3.92L71.2,210.98z M68.83,219.74v-3.45c-0.36-0.42-0.72-0.67-1.23-0.67
		c-0.85,0-1.46,0.72-1.46,2.5c0,1.98,0.54,2.5,1.32,2.5C68.02,220.62,68.46,220.32,68.83,219.74z"/>
	<path fill="#FFFFFF" d="M80.08,220.77l-0.5,1.54c-0.93-0.08-1.54-0.36-1.92-1.14c-0.57,0.87-1.46,1.19-2.4,1.19
		c-1.59,0-2.6-1.04-2.6-2.49c0-1.74,1.32-2.68,3.74-2.68h0.81v-0.34c0-0.95-0.38-1.23-1.35-1.23c-0.51,0-1.29,0.15-2.08,0.42
		l-0.54-1.56c1-0.38,2.1-0.58,3-0.58c2.31,0,3.3,0.97,3.3,2.82v3.09C79.54,220.41,79.71,220.64,80.08,220.77z M77.22,219.92v-1.42
		h-0.58c-1.08,0-1.6,0.38-1.6,1.17c0,0.63,0.34,1,0.93,1C76.5,220.67,76.93,220.38,77.22,219.92z"/>
	<path fill="#FFFFFF" d="M86.58,221.73c-0.6,0.42-1.44,0.63-2.16,0.63c-1.75-0.01-2.61-1-2.61-2.88v-3.69h-1.12v-1.65h1.12v-1.72
		l2.37-0.27v2h1.83l-0.25,1.65h-1.58v3.66c0,0.76,0.26,1.04,0.75,1.04c0.27,0,0.54-0.08,0.86-0.27L86.58,221.73z"/>
	<path fill="#FFFFFF" d="M94.39,220.77l-0.5,1.54c-0.93-0.08-1.54-0.36-1.92-1.14c-0.57,0.87-1.46,1.19-2.4,1.19
		c-1.59,0-2.6-1.04-2.6-2.49c0-1.74,1.32-2.68,3.74-2.68h0.81v-0.34c0-0.95-0.38-1.23-1.35-1.23c-0.51,0-1.29,0.15-2.08,0.42
		l-0.54-1.56c1-0.38,2.1-0.58,3-0.58c2.31,0,3.3,0.97,3.3,2.82v3.09C93.85,220.41,94.02,220.64,94.39,220.77z M91.53,219.92v-1.42
		h-0.58c-1.08,0-1.6,0.38-1.6,1.17c0,0.63,0.34,1,0.93,1C90.81,220.67,91.24,220.38,91.53,219.92z"/>
	<path fill="#FFFFFF" d="M105.33,214.86l-0.87,1.33c-0.62-0.39-1.28-0.62-1.96-0.62c-0.65,0-0.96,0.24-0.96,0.6
		c0,0.42,0.21,0.6,1.63,1.02c1.58,0.45,2.46,1.11,2.46,2.54c0,1.65-1.56,2.62-3.54,2.62c-1.38,0-2.55-0.48-3.33-1.19l1.16-1.29
		c0.6,0.46,1.33,0.78,2.11,0.78c0.72,0,1.16-0.27,1.16-0.75c0-0.54-0.24-0.71-1.68-1.11c-1.58-0.45-2.35-1.26-2.35-2.49
		c0-1.37,1.24-2.43,3.25-2.43C103.56,213.89,104.59,214.26,105.33,214.86z"/>
	<path fill="#FFFFFF" d="M113.89,218.82h-4.92c0.15,1.42,0.82,1.82,1.8,1.82c0.64,0,1.21-0.23,1.9-0.71l0.98,1.32
		c-0.79,0.63-1.82,1.11-3.11,1.11c-2.65,0-4-1.71-4-4.2c0-2.38,1.3-4.27,3.72-4.27c2.28,0,3.67,1.5,3.67,4.08
		C113.94,218.22,113.92,218.58,113.89,218.82z M111.61,217.29c-0.01-1.08-0.34-1.83-1.29-1.83c-0.79,0-1.25,0.49-1.37,1.93h2.66
		V217.29z"/>
	<path fill="#FFFFFF" d="M120.57,214.02l-0.38,2.29c-0.25-0.06-0.45-0.1-0.72-0.1c-0.98,0-1.4,0.72-1.65,1.92v3.97h-2.37v-7.96h2.07
		l0.2,1.53c0.36-1.1,1.14-1.75,2.05-1.75C120.07,213.92,120.31,213.95,120.57,214.02z"/>
	<path fill="#FFFFFF" d="M126.31,222.11h-2.81l-2.56-7.96h2.58l1.41,6.17l1.47-6.17h2.42L126.31,222.11z"/>
	<path fill="#FFFFFF" d="M136.56,218.82h-4.92c0.15,1.42,0.82,1.82,1.8,1.82c0.64,0,1.21-0.23,1.9-0.71l0.98,1.32
		c-0.79,0.63-1.82,1.11-3.11,1.11c-2.65,0-4-1.71-4-4.2c0-2.38,1.31-4.27,3.72-4.27c2.28,0,3.67,1.5,3.67,4.08
		C136.6,218.22,136.59,218.58,136.56,218.82z M134.28,217.29c-0.01-1.08-0.34-1.83-1.29-1.83c-0.79,0-1.25,0.49-1.37,1.93h2.66
		V217.29z"/>
	<path fill="#FFFFFF" d="M143.23,214.02l-0.38,2.29c-0.25-0.06-0.45-0.1-0.72-0.1c-0.98,0-1.4,0.72-1.65,1.92v3.97h-2.37v-7.96h2.07
		l0.2,1.53c0.36-1.1,1.14-1.75,2.05-1.75C142.74,213.92,142.98,213.95,143.23,214.02z"/>
</g>
<g>
	<path fill="#8B80A9" d="M267.01,197.35l-0.81,5.7h-1.89l0.76-5.38c0.12-0.95-0.17-1.2-0.62-1.2c-0.81,0-1.54,0.92-2.13,2.04
		l-0.63,4.54h-1.89l1.56-11.1l1.91-0.2l-0.67,4.75c0.62-0.96,1.51-1.62,2.56-1.62C266.5,194.89,267.22,195.83,267.01,197.35z"/>
	<path fill="#8B80A9" d="M269.94,203.05h-1.89l1.11-7.93h1.89L269.94,203.05z M271.69,192.33c-0.09,0.63-0.61,1.09-1.3,1.09
		c-0.72,0-1.16-0.54-1.06-1.21c0.09-0.65,0.61-1.11,1.3-1.11C271.36,191.1,271.78,191.64,271.69,192.33z"/>
	<path fill="#8B80A9" d="M279.34,195.66l-1.04,6.97c-0.39,2.7-1.71,3.72-3.93,3.72c-0.96,0-2.05-0.33-2.87-0.83l0.66-1.33
		c0.63,0.36,1.41,0.63,2.16,0.63c0.94,0,1.88-0.28,2.11-2.01l0.12-0.87c-0.55,0.65-1.3,1.11-2.14,1.11c-1.7,0-2.59-1.21-2.59-3.03
		c0-2.28,1.2-5.13,4.45-5.13C277.29,194.89,278.28,195.1,279.34,195.66z M273.81,200c0,1.18,0.48,1.6,1.12,1.6
		c0.72,0,1.3-0.55,1.83-1.27l0.6-3.81c-0.38-0.15-0.66-0.21-1.09-0.21C274.48,196.3,273.81,198.34,273.81,200z"/>
	<path fill="#8B80A9" d="M287.34,197.35l-0.81,5.7h-1.89l0.76-5.38c0.12-0.95-0.17-1.2-0.62-1.2c-0.81,0-1.54,0.92-2.13,2.04
		l-0.63,4.54h-1.89l1.56-11.1l1.91-0.2l-0.67,4.75c0.62-0.96,1.51-1.62,2.56-1.62C286.83,194.89,287.55,195.83,287.34,197.35z"/>
	<path fill="#8B80A9" d="M298.3,195.84l-0.96,1.14c-0.46-0.42-0.9-0.57-1.46-0.57c-1.8,0-2.28,2.14-2.28,3.63
		c0,1.23,0.54,1.68,1.41,1.68c0.62,0,1.08-0.21,1.7-0.58l0.72,1.28c-0.79,0.55-1.65,0.87-2.62,0.87c-2.02,0-3.19-1.27-3.19-3.34
		s1.17-5.04,4.26-5.04C296.82,194.89,297.64,195.19,298.3,195.84z"/>
	<path fill="#8B80A9" d="M305.64,198.22c0,2.07-1.04,5.05-4.27,5.05c-2.06,0-3.2-1.27-3.2-3.34c0-2.1,1.05-5.04,4.27-5.04
		C304.5,194.89,305.64,196.18,305.64,198.22z M300.12,200.08c0,1.2,0.46,1.74,1.35,1.74c1.79,0,2.21-2.4,2.21-3.75
		c0.01-1.2-0.45-1.72-1.33-1.72C300.55,196.35,300.12,198.73,300.12,200.08z"/>
	<path fill="#8B80A9" d="M313.62,197.38l-0.79,5.67h-1.89l0.76-5.38c0.13-0.95-0.18-1.2-0.64-1.2c-0.78,0-1.5,0.92-2.1,2.04
		l-0.63,4.54h-1.89l1.11-7.93h1.63l-0.08,1.47c0.71-1.02,1.62-1.7,2.73-1.7C313.12,194.89,313.84,195.83,313.62,197.38z"/>
	<path fill="#8B80A9" d="M321.33,195.84l-0.96,1.14c-0.46-0.42-0.9-0.57-1.46-0.57c-1.8,0-2.28,2.14-2.28,3.63
		c0,1.23,0.54,1.68,1.41,1.68c0.62,0,1.08-0.21,1.7-0.58l0.72,1.28c-0.79,0.55-1.65,0.87-2.62,0.87c-2.02,0-3.19-1.27-3.19-3.34
		s1.17-5.04,4.26-5.04C319.84,194.89,320.67,195.19,321.33,195.84z"/>
	<path fill="#8B80A9" d="M323.13,200.13c0.03,1.25,0.66,1.67,1.53,1.67c0.72,0,1.35-0.23,2.07-0.74l0.73,1.2
		c-0.87,0.62-1.86,1.02-3.02,1.02c-2.16,0-3.27-1.29-3.27-3.3c0-2.16,1.12-5.08,4.32-5.08c1.81,0,2.74,0.98,2.74,2.1
		C328.24,199.23,325.74,199.88,323.13,200.13z M326.29,197.08c0-0.36-0.2-0.83-0.93-0.83c-1.35,0-1.95,1.33-2.16,2.62
		C325.33,198.67,326.29,198.07,326.29,197.08z"/>
	<path fill="#8B80A9" d="M335.94,197.38l-0.79,5.67h-1.89l0.76-5.38c0.13-0.95-0.18-1.2-0.64-1.2c-0.78,0-1.5,0.92-2.1,2.04
		l-0.63,4.54h-1.89l1.11-7.93h1.63l-0.07,1.47c0.71-1.02,1.62-1.7,2.73-1.7C335.44,194.89,336.16,195.83,335.94,197.38z"/>
	<path fill="#8B80A9" d="M339.34,200.67c-0.12,0.78,0.07,1.05,0.62,1.05c0.31,0,0.63-0.09,1-0.3l0.54,1.29
		c-0.63,0.39-1.35,0.57-2.01,0.57c-1.57-0.01-2.28-0.94-2.04-2.62l0.59-4.15h-1.23l0.2-1.38h1.3l0.49-1.8l1.59-0.18l-0.29,1.98h1.83
		l-0.39,1.38h-1.62L339.34,200.67z"/>
	<path fill="#8B80A9" d="M347.86,195.03l-0.55,1.85c-0.24-0.06-0.41-0.09-0.66-0.09c-1.01,0-1.61,0.94-2.1,2.35l-0.56,3.92h-1.89
		l1.11-7.93h1.63l-0.06,1.54c0.57-1.16,1.43-1.75,2.28-1.75C347.37,194.91,347.61,194.96,347.86,195.03z"/>
	<path fill="#8B80A9" d="M354.82,195.66l-0.79,5.32c-0.02,0.14-0.03,0.24-0.03,0.33c0,0.41,0.17,0.56,0.45,0.67l-0.54,1.26
		c-0.84-0.09-1.46-0.46-1.63-1.32c-0.58,0.79-1.37,1.35-2.35,1.35c-1.7,0-2.57-1.23-2.57-3.1c0-2.24,1.17-5.28,4.41-5.28
		C352.77,194.89,353.76,195.1,354.82,195.66z M349.33,200.17c0,1.2,0.44,1.65,1.12,1.65s1.23-0.51,1.77-1.26l0.6-4.05
		c-0.38-0.15-0.64-0.21-1.09-0.21C349.98,196.3,349.33,198.52,349.33,200.17z"/>
	<path fill="#8B80A9" d="M357.94,200.67c-0.12,0.78,0.07,1.05,0.62,1.05c0.31,0,0.63-0.09,1-0.3l0.54,1.29
		c-0.63,0.39-1.35,0.57-2.01,0.57c-1.57-0.01-2.28-0.94-2.04-2.62l0.59-4.15h-1.23l0.2-1.38h1.3l0.49-1.8l1.59-0.18l-0.29,1.98h1.83
		l-0.39,1.38h-1.62L357.94,200.67z"/>
	<path fill="#8B80A9" d="M362.59,203.05h-1.89l1.11-7.93h1.89L362.59,203.05z M364.35,192.33c-0.09,0.63-0.62,1.09-1.3,1.09
		c-0.72,0-1.16-0.54-1.06-1.21c0.09-0.65,0.61-1.11,1.3-1.11C364.02,191.1,364.44,191.64,364.35,192.33z"/>
	<path fill="#8B80A9" d="M371.97,198.22c0,2.07-1.04,5.05-4.27,5.05c-2.06,0-3.2-1.27-3.2-3.34c0-2.1,1.05-5.04,4.27-5.04
		C370.83,194.89,371.97,196.18,371.97,198.22z M366.45,200.08c0,1.2,0.46,1.74,1.35,1.74c1.79,0,2.21-2.4,2.21-3.75
		c0.02-1.2-0.45-1.72-1.33-1.72C366.88,196.35,366.45,198.73,366.45,200.08z"/>
	<path fill="#8B80A9" d="M379.95,197.38l-0.79,5.67h-1.89l0.77-5.38c0.13-0.95-0.18-1.2-0.64-1.2c-0.78,0-1.5,0.92-2.1,2.04
		l-0.63,4.54h-1.89l1.11-7.93h1.63l-0.08,1.47c0.71-1.02,1.62-1.7,2.73-1.7C379.45,194.89,380.17,195.83,379.95,197.38z"/>
	<path fill="#8B80A9" d="M251.05,216.22c0,2.07-1.04,5.05-4.27,5.05c-2.06,0-3.2-1.27-3.2-3.34c0-2.1,1.05-5.04,4.27-5.04
		C249.91,212.89,251.05,214.18,251.05,216.22z M245.53,218.08c0,1.2,0.46,1.74,1.35,1.74c1.79,0,2.21-2.4,2.21-3.75
		c0.01-1.2-0.45-1.73-1.33-1.73C245.96,214.35,245.53,216.73,245.53,218.08z"/>
	<path fill="#8B80A9" d="M255.17,212.33l-0.12,0.79h1.88l-0.39,1.38h-1.68l-0.83,5.88c-0.34,2.43-1.51,3.22-3.36,3.94l-0.51-1.41
		c1.12-0.45,1.75-0.92,1.98-2.49l0.83-5.92h-1.28l0.2-1.38h1.28l0.13-0.92c0.2-1.44,1.23-2.47,3-2.47c0.87,0,1.5,0.25,2.05,0.61
		l-0.67,1.2c-0.45-0.29-0.9-0.36-1.25-0.36C255.65,211.19,255.28,211.56,255.17,212.33z"/>
	<path fill="#8B80A9" d="M266.48,213.84l-0.96,1.14c-0.46-0.42-0.9-0.57-1.46-0.57c-1.8,0-2.28,2.14-2.28,3.63
		c0,1.23,0.54,1.68,1.41,1.68c0.62,0,1.08-0.21,1.7-0.58l0.72,1.28c-0.79,0.55-1.65,0.87-2.62,0.87c-2.02,0-3.19-1.27-3.19-3.34
		c0-2.07,1.17-5.04,4.26-5.04C265,212.89,265.82,213.2,266.48,213.84z"/>
	<path fill="#8B80A9" d="M273.82,216.22c0,2.07-1.04,5.05-4.27,5.05c-2.06,0-3.2-1.27-3.2-3.34c0-2.1,1.05-5.04,4.27-5.04
		C272.68,212.89,273.82,214.18,273.82,216.22z M268.3,218.08c0,1.2,0.46,1.74,1.35,1.74c1.79,0,2.21-2.4,2.21-3.75
		c0.01-1.2-0.45-1.73-1.33-1.73C268.73,214.35,268.3,216.73,268.3,218.08z"/>
	<path fill="#8B80A9" d="M285.8,215.34l-0.81,5.71h-1.89l0.77-5.38c0.13-0.99-0.2-1.2-0.63-1.2c-0.66,0-1.31,0.88-1.85,1.98
		l-0.66,4.6h-1.89l0.77-5.38c0.13-0.99-0.2-1.2-0.63-1.2c-0.66,0-1.31,0.92-1.85,2.03l-0.63,4.56h-1.89l1.11-7.93h1.63l-0.08,1.39
		c0.67-0.99,1.51-1.62,2.54-1.62c0.88,0,1.59,0.54,1.74,1.55c0.68-0.98,1.56-1.55,2.5-1.55
		C285.29,212.89,286.01,213.83,285.8,215.34z"/>
	<path fill="#8B80A9" d="M294.38,216c0,2.26-1.08,5.28-4.21,5.28c-0.62,0-1.06-0.1-1.47-0.24l-0.45,3.09l-1.89,0.22l1.58-11.23h1.65
		l-0.01,0.93c0.83-0.88,1.62-1.16,2.38-1.16C293.51,212.89,294.38,214.02,294.38,216z M289.51,215.35l-0.58,4.28
		c0.39,0.13,0.71,0.21,1.19,0.21c1.69,0,2.32-2.25,2.32-3.87c0-1.25-0.49-1.63-1.17-1.63C290.57,214.33,290.02,214.77,289.51,215.35
		z"/>
	<path fill="#8B80A9" d="M301.48,221.05h-1.63l0.07-1.3c-0.7,0.93-1.51,1.53-2.56,1.53c-1.46,0-2.1-0.96-1.89-2.5l0.79-5.65h1.89
		l-0.75,5.43c-0.13,0.93,0.11,1.21,0.65,1.21c0.76,0,1.41-0.76,1.93-1.56l0.72-5.08h1.89L301.48,221.05z"/>
	<path fill="#8B80A9" d="M305.75,218.67c-0.12,0.78,0.08,1.05,0.62,1.05c0.31,0,0.63-0.09,1-0.3l0.54,1.29
		c-0.63,0.39-1.35,0.57-2.01,0.57c-1.57-0.01-2.28-0.94-2.04-2.62l0.58-4.15h-1.23l0.2-1.38h1.3l0.5-1.8l1.59-0.18l-0.29,1.98h1.83
		l-0.39,1.38h-1.62L305.75,218.67z"/>
	<path fill="#8B80A9" d="M315.8,213.66l-0.79,5.32c-0.01,0.14-0.03,0.24-0.03,0.33c0,0.41,0.17,0.56,0.45,0.67l-0.54,1.26
		c-0.84-0.09-1.46-0.46-1.63-1.32c-0.58,0.79-1.37,1.35-2.35,1.35c-1.7,0-2.57-1.23-2.57-3.1c0-2.24,1.17-5.28,4.41-5.28
		C313.75,212.89,314.74,213.11,315.8,213.66z M310.31,218.17c0,1.2,0.43,1.65,1.12,1.65c0.69,0,1.23-0.51,1.77-1.26l0.6-4.05
		c-0.38-0.15-0.64-0.21-1.09-0.21C310.96,214.3,310.31,216.52,310.31,218.17z"/>
	<path fill="#8B80A9" d="M318.92,218.67c-0.12,0.78,0.08,1.05,0.62,1.05c0.31,0,0.63-0.09,1-0.3l0.54,1.29
		c-0.63,0.39-1.35,0.57-2.01,0.57c-1.57-0.01-2.28-0.94-2.04-2.62l0.58-4.15h-1.23l0.2-1.38h1.3l0.5-1.8l1.59-0.18l-0.29,1.98h1.83
		l-0.39,1.38h-1.62L318.92,218.67z"/>
	<path fill="#8B80A9" d="M323.57,221.05h-1.89l1.11-7.93h1.89L323.57,221.05z M325.32,210.33c-0.09,0.63-0.61,1.09-1.3,1.09
		c-0.72,0-1.15-0.54-1.06-1.21c0.09-0.64,0.62-1.11,1.3-1.11C324.99,209.1,325.41,209.64,325.32,210.33z"/>
	<path fill="#8B80A9" d="M332.95,216.22c0,2.07-1.04,5.05-4.28,5.05c-2.05,0-3.2-1.27-3.2-3.34c0-2.1,1.05-5.04,4.28-5.04
		C331.8,212.89,332.95,214.18,332.95,216.22z M327.43,218.08c0,1.2,0.46,1.74,1.35,1.74c1.79,0,2.21-2.4,2.21-3.75
		c0.01-1.2-0.45-1.73-1.34-1.73C327.86,214.35,327.43,216.73,327.43,218.08z"/>
	<path fill="#8B80A9" d="M340.92,215.38l-0.79,5.67h-1.89l0.76-5.38c0.13-0.95-0.18-1.2-0.64-1.2c-0.78,0-1.5,0.92-2.1,2.04
		l-0.63,4.54h-1.89l1.11-7.93h1.63l-0.07,1.47c0.71-1.02,1.62-1.7,2.73-1.7C340.43,212.89,341.15,213.83,340.92,215.38z"/>
	<path fill="#8B80A9" d="M349.4,213.66l-0.79,5.32c-0.02,0.14-0.03,0.24-0.03,0.33c0,0.41,0.17,0.56,0.45,0.67l-0.54,1.26
		c-0.84-0.09-1.46-0.46-1.63-1.32c-0.58,0.79-1.37,1.35-2.35,1.35c-1.7,0-2.57-1.23-2.57-3.1c0-2.24,1.17-5.28,4.41-5.28
		C347.35,212.89,348.34,213.11,349.4,213.66z M343.91,218.17c0,1.2,0.44,1.65,1.12,1.65s1.23-0.51,1.77-1.26l0.6-4.05
		c-0.38-0.15-0.64-0.21-1.09-0.21C344.55,214.3,343.91,216.52,343.91,218.17z"/>
	<path fill="#8B80A9" d="M352.22,219.17c-0.04,0.42,0.06,0.57,0.34,0.57c0.13,0,0.3-0.04,0.45-0.1l0.28,1.37
		c-0.42,0.19-0.88,0.28-1.32,0.28c-1.2,0-1.83-0.73-1.63-2.17l1.29-9.16l1.92-0.21L352.22,219.17z"/>
	<path fill="#8B80A9" d="M364.91,216c0,2.26-1.08,5.28-4.21,5.28c-0.62,0-1.06-0.1-1.47-0.24l-0.45,3.09l-1.89,0.22l1.58-11.23h1.65
		l-0.01,0.93c0.82-0.88,1.62-1.16,2.38-1.16C364.04,212.89,364.91,214.02,364.91,216z M360.04,215.35l-0.59,4.28
		c0.39,0.13,0.71,0.21,1.19,0.21c1.7,0,2.32-2.25,2.32-3.87c0-1.25-0.49-1.63-1.17-1.63C361.1,214.33,360.54,214.77,360.04,215.35z"
		/>
	<path fill="#8B80A9" d="M373.22,216.22c0,2.07-1.04,5.05-4.27,5.05c-2.06,0-3.2-1.27-3.2-3.34c0-2.1,1.05-5.04,4.27-5.04
		C372.08,212.89,373.22,214.18,373.22,216.22z M367.7,218.08c0,1.2,0.46,1.74,1.35,1.74c1.79,0,2.21-2.4,2.21-3.75
		c0.02-1.2-0.45-1.73-1.33-1.73C368.13,214.35,367.7,216.73,367.7,218.08z"/>
	<path fill="#8B80A9" d="M381.75,221.05h-2.35l-0.32-6.22l-2.08,6.22h-2.34l-0.63-7.93h1.89l0.18,6.52l2.27-6.52h1.95l0.33,6.52
		l2.08-6.52h1.82L381.75,221.05z"/>
	<path fill="#8B80A9" d="M386.16,218.13c0.03,1.25,0.66,1.67,1.53,1.67c0.72,0,1.35-0.23,2.07-0.74l0.73,1.2
		c-0.87,0.62-1.86,1.02-3.02,1.02c-2.16,0-3.27-1.29-3.27-3.3c0-2.16,1.12-5.08,4.32-5.08c1.81,0,2.74,0.98,2.74,2.1
		C391.28,217.23,388.78,217.88,386.16,218.13z M389.33,215.08c0-0.36-0.2-0.83-0.93-0.83c-1.35,0-1.95,1.33-2.16,2.62
		C388.37,216.67,389.33,216.08,389.33,215.08z"/>
	<path fill="#8B80A9" d="M397.55,213.03l-0.55,1.84c-0.24-0.06-0.4-0.09-0.66-0.09c-1,0-1.61,0.94-2.1,2.35l-0.55,3.92h-1.89
		l1.11-7.93h1.63l-0.06,1.54c0.57-1.16,1.42-1.75,2.28-1.75C397.05,212.91,397.29,212.96,397.55,213.03z"/>
</g>
</svg>
