<?xml version="1.0" encoding="utf-8"?>
<!DOCTYPE svg PUBLIC "-//W3C//DTD SVG 1.1//EN" "http://www.w3.org/Graphics/SVG/1.1/DTD/svg11.dtd">
<svg version="1.1" xmlns="http://www.w3.org/2000/svg" width="640" height="300">
<line fill="none" stroke="#3D2C70" stroke-width="2" stroke-miterlimit="10" x1="192.33" y1="133.33" x2="467" y2="133.33"/>
<g>
	<g>
		<line fill="none" stroke="#8B80A9" stroke-width="1.5" stroke-miterlimit="10" x1="145.06" y1="236.58" x2="64.52" y2="191.99"/>
		<g>
			<polygon fill="#8B80A9" points="145.91,232.8 149.76,239.21 142.29,239.34 			"/>
		</g>
		<g>
			<polygon fill="#8B80A9" points="67.28,189.27 59.8,189.4 63.66,195.81 			"/>
		</g>
	</g>
</g>
<g>
	<g>
		<line fill="none" stroke="#8B80A9" stroke-width="1.5" stroke-miterlimit="10" x1="110.71" y1="91.64" x2="56.28" y2="133.61"/>
		<g>
			<polygon fill="#8B80A9" points="107.57,89.36 114.98,88.37 112.14,95.29 			"/>
		</g>
		<g>
			<polygon fill="#8B80A9" points="54.88,130 52.03,136.91 59.44,135.92 			"/>
		</g>
	</g>
</g>
<g>
	<g>
		<line fill="none" stroke="#8B80A9" stroke-width="1.5" stroke-miterlimit="10" x1="290.21" y1="58.29" x2="276.68" y2="110.79"/>
		<g>
			<polygon fill="#8B80A9" points="286.33,58.42 291.57,53.08 293.57,60.28 			"/>
		</g>
		<g>
			<polygon fill="#8B80A9" points="273.35,108.8 275.35,116 280.59,110.67 			"/>
		</g>
	</g>
</g>
<g>
	<g>
		<line fill="none" stroke="#8B80A9" stroke-width="1.5" stroke-miterlimit="10" x1="475.32" y1="52.72" x2="413.06" y2="112.28"/>
		<g>
			<polygon fill="#8B80A9" points="471.96,50.79 479.22,49.01 477.13,56.19 			"/>
		</g>
		<g>
			<polygon fill="#8B80A9" points="411.28,108.84 409.18,116.01 416.45,114.24 			"/>
		</g>
	</g>
</g>
<g>
	<g>
		<line fill="none" stroke="#8B80A9" stroke-width="1.5" stroke-miterlimit="10" x1="552.16" y1="124.67" x2="472.38" y2="127.12"/>
		<g>
			<polygon fill="#8B80A9" points="550.96,120.98 557.54,124.52 551.19,128.46 			"/>
		</g>
		<g>
			<polygon fill="#8B80A9" points="473.36,123.37 467,127.3 473.59,130.84 			"/>
		</g>
	</g>
</g>
<g>
	<g>
		<line fill="none" stroke="#8B80A9" stroke-width="1.5" stroke-miterlimit="10" x1="486.04" y1="200.93" x2="459.07" y2="156.27"/>
		<g>
			<polygon fill="#8B80A9" points="488.66,198.07 488.81,205.55 482.26,201.94 			"/>
		</g>
		<g>
			<polygon fill="#8B80A9" points="462.82,155.29 456.27,151.68 456.41,159.16 			"/>
		</g>
	</g>
</g>
<g>
	<g>
		<line fill="none" stroke="#8B80A9" stroke-width="1.5" stroke-miterlimit="10" x1="187.12" y1="134.68" x2="88.81" y2="160.03"/>
		<g>
			<polygon fill="#8B80A9" points="185.13,131.35 192.34,133.35 187,138.59 			"/>
		</g>
		<g>
			<polygon fill="#8B80A9" points="88.94,156.16 83.61,161.4 90.81,163.4 			"/>
		</g>
	</g>
</g>
<g>
	<g>
		<line fill="none" stroke="#8B80A9" stroke-width="1.5" stroke-miterlimit="10" x1="205.19" y1="155.73" x2="188.76" y2="201.58"/>
		<g>
			<polygon fill="#8B80A9" points="201.32,155.51 207.02,150.67 208.36,158.03 			"/>
		</g>
		<g>
			<polygon fill="#8B80A9" points="185.63,199.29 186.97,206.65 192.67,201.82 			"/>
		</g>
	</g>
</g>
<g>
	<g>
		<line fill="none" stroke="#8B80A9" stroke-width="1.5" stroke-miterlimit="10" x1="265.7" y1="30.63" x2="189.4" y2="57.88"/>
		<g>
			<polygon fill="#8B80A9" points="263.42,27.49 270.78,28.84 265.94,34.54 			"/>
		</g>
		<g>
			<polygon fill="#8B80A9" points="189.18,54.01 184.34,59.71 191.7,61.05 			"/>
		</g>
	</g>
</g>
<g>
	<g>
		<line fill="none" stroke="#8B80A9" stroke-width="1.5" stroke-miterlimit="10" x1="473.85" y1="36.98" x2="357.59" y2="26.8"/>
		<g>
			<polygon fill="#8B80A9" points="473.08,33.18 479.21,37.47 472.43,40.63 			"/>
		</g>
		<g>
			<polygon fill="#8B80A9" points="359,23.19 352.22,26.35 358.35,30.64 			"/>
		</g>
	</g>
</g>
<g>
	<g>
		<line fill="none" stroke="#8B80A9" stroke-width="1.5" stroke-miterlimit="10" x1="588.8" y1="97.1" x2="555.83" y2="62.27"/>
		<g>
			<polygon fill="#8B80A9" points="590.75,93.75 592.49,101.03 585.32,98.89 			"/>
		</g>
		<g>
			<polygon fill="#8B80A9" points="559.28,60.51 552.11,58.38 553.85,65.65 			"/>
		</g>
	</g>
</g>
<g>
	<g>
		<line fill="none" stroke="#8B80A9" stroke-width="1.5" stroke-miterlimit="10" x1="591.25" y1="160.7" x2="550.24" y2="210.8"/>
		<g>
			<polygon fill="#8B80A9" points="587.68,159.19 594.67,156.55 593.46,163.93 			"/>
		</g>
		<g>
			<polygon fill="#8B80A9" points="548.05,207.6 546.84,214.98 553.84,212.34 			"/>
		</g>
	</g>
</g>
<g>
	<g>
		<line fill="none" stroke="#8B80A9" stroke-width="1.5" stroke-miterlimit="10" x1="465.29" y1="233.48" x2="236.61" y2="239.06"/>
		<g>
			<polygon fill="#8B80A9" points="464.1,229.79 470.67,233.37 464.29,237.27 			"/>
		</g>
		<g>
			<polygon fill="#8B80A9" points="237.61,235.32 231.23,239.21 237.8,242.79 			"/>
		</g>
	</g>
</g>
<g>
	<path fill="#3D2C70" d="M221.73,165.74c0.6-0.58,1.4-0.93,2.19-0.93c1.6,0,2.44,1.12,2.44,3.1c0,2.29-0.96,5.37-4.65,5.37
		c-1.17,0-2.19-0.24-3.27-0.66l1.5-10.72l2.35-0.25L221.73,165.74z M221.5,167.47l-0.56,3.9c0.32,0.12,0.6,0.2,1.01,0.2
		c1.48,0,2.01-2.1,2.01-3.6c0-1.11-0.42-1.41-0.96-1.41C222.44,166.55,221.94,166.9,221.5,167.47z"/>
	<path fill="#3D2C70" d="M229.65,170.86c-0.04,0.42,0.08,0.55,0.32,0.55c0.12,0,0.27-0.04,0.39-0.09l0.29,1.67
		c-0.43,0.2-0.99,0.3-1.5,0.3c-1.33,0-2.04-0.81-1.81-2.34l1.27-9.04l2.36-0.25L229.65,170.86z"/>
	<path fill="#3D2C70" d="M239.11,168.2c-0.01,2.19-1.09,5.08-4.44,5.08c-2.12,0-3.33-1.27-3.33-3.39c0-2.22,1.08-5.08,4.44-5.08
		C237.9,164.81,239.13,166.12,239.11,168.2z M233.73,170.05c0,1.05,0.38,1.5,1.11,1.5c1.56,0,1.88-2.28,1.88-3.5
		c0.01-1.05-0.36-1.5-1.1-1.5C234.04,166.55,233.73,168.83,233.73,170.05z"/>
	<path fill="#3D2C70" d="M246.95,165.83l-1.16,1.35c-0.44-0.41-0.87-0.56-1.38-0.56c-1.62,0-2.03,1.96-2.03,3.32
		c0,1.12,0.5,1.47,1.25,1.47c0.57,0,0.99-0.19,1.58-0.55l0.87,1.51c-0.79,0.58-1.68,0.92-2.75,0.92c-2.14,0-3.39-1.33-3.39-3.43
		c0-2.07,1.21-5.04,4.45-5.04C245.42,164.81,246.29,165.16,246.95,165.83z"/>
	<path fill="#3D2C70" d="M250.23,166.1c0.79-0.92,1.68-1.29,2.64-1.29c1.32,0,2.14,0.78,2.14,1.9c0,1.23-0.71,2.19-2.16,2.78
		l1.47,3.54h-2.56l-1.44-3.84c1.76-0.57,2.31-1.23,2.31-2.07c0-0.43-0.24-0.66-0.67-0.66c-0.62,0-1.35,0.48-2.01,1.64l-0.68,4.93
		h-2.34l1.56-11.13l2.37-0.25L250.23,166.1z"/>
	<path fill="#3D2C70" d="M262.33,165.83l-1.16,1.35c-0.44-0.41-0.87-0.56-1.38-0.56c-1.62,0-2.03,1.96-2.03,3.32
		c0,1.12,0.5,1.47,1.25,1.47c0.57,0,0.99-0.19,1.58-0.55l0.87,1.51c-0.79,0.58-1.68,0.92-2.75,0.92c-2.14,0-3.39-1.33-3.39-3.43
		c0-2.07,1.21-5.04,4.45-5.04C260.8,164.81,261.67,165.16,262.33,165.83z"/>
	<path fill="#3D2C70" d="M269.89,167.26l-0.81,5.78h-2.32l0.73-5.26c0.12-0.81-0.1-1.02-0.45-1.02c-0.61,0-1.21,0.78-1.77,1.91
		l-0.62,4.38h-2.34l1.56-11.13l2.35-0.24l-0.66,4.74c0.57-0.95,1.5-1.59,2.54-1.59C269.4,164.81,270.1,165.73,269.89,167.26z"/>
	<path fill="#3D2C70" d="M278.7,165.65l-0.75,5.1c-0.01,0.12-0.03,0.24-0.03,0.33c0,0.38,0.13,0.53,0.42,0.63l-0.67,1.53
		c-0.87-0.08-1.6-0.46-1.84-1.32c-0.54,0.79-1.3,1.37-2.35,1.37c-1.73,0-2.6-1.25-2.6-3.17c0-2.28,1.2-5.31,4.56-5.31
		C276.49,164.81,277.62,165.05,278.7,165.65z M273.28,170.11c0,1.12,0.38,1.44,0.92,1.44c0.55,0,1.05-0.42,1.5-1.11l0.57-3.79
		c-0.32-0.11-0.54-0.15-0.9-0.15C273.82,166.49,273.28,168.56,273.28,170.11z"/>
	<path fill="#3D2C70" d="M281.74,173.03h-2.32l1.11-7.96h2.33L281.74,173.03z M283.47,162.28c-0.11,0.74-0.72,1.29-1.53,1.29
		c-0.83,0-1.32-0.62-1.21-1.39c0.1-0.74,0.74-1.31,1.51-1.31C283.08,160.87,283.57,161.48,283.47,162.28z"/>
	<path fill="#3D2C70" d="M291.13,167.27l-0.79,5.76H288l0.75-5.26c0.1-0.81-0.12-1.02-0.47-1.02c-0.6,0-1.2,0.78-1.77,1.91
		l-0.62,4.38h-2.32l1.11-7.96h2.03l-0.04,1.39c0.67-0.99,1.65-1.65,2.71-1.65C290.65,164.81,291.36,165.73,291.13,167.27z"/>
	<path fill="#3D2C70" d="M299.31,164.48l-0.08,0.58h1.84l-0.48,1.65h-1.61l-0.76,5.45c-0.36,2.59-1.79,3.51-3.71,4.2l-0.58-1.71
		c1.12-0.44,1.75-0.95,1.95-2.4l0.78-5.54h-1.19l0.23-1.65h1.18l0.11-0.74c0.21-1.53,1.33-2.68,3.27-2.68c0.96,0,1.68,0.3,2.22,0.66
		l-0.83,1.42c-0.4-0.27-0.85-0.33-1.2-0.33C299.77,163.4,299.41,163.72,299.31,164.48z"/>
	<path fill="#3D2C70" d="M308.37,168.2c-0.01,2.19-1.09,5.08-4.44,5.08c-2.12,0-3.33-1.27-3.33-3.39c0-2.22,1.08-5.08,4.44-5.08
		C307.15,164.81,308.38,166.12,308.37,168.2z M302.98,170.05c0,1.05,0.38,1.5,1.11,1.5c1.56,0,1.88-2.28,1.88-3.5
		c0.01-1.05-0.36-1.5-1.1-1.5C303.3,166.55,302.98,168.83,302.98,170.05z"/>
	<path fill="#3D2C70" d="M315.3,164.96l-0.67,2.28c-0.24-0.06-0.42-0.1-0.66-0.1c-0.99,0-1.53,0.94-1.96,2.2l-0.53,3.69h-2.32
		l1.11-7.96h2.03l-0.03,1.49c0.54-1.1,1.42-1.71,2.25-1.71C314.82,164.84,315.04,164.89,315.3,164.96z"/>
	<path fill="#3D2C70" d="M320.76,173.03h-2.32l1.11-7.96h2.33L320.76,173.03z M322.48,162.28c-0.11,0.74-0.72,1.29-1.53,1.29
		c-0.83,0-1.32-0.62-1.21-1.39c0.1-0.74,0.73-1.31,1.51-1.31C322.09,160.87,322.59,161.48,322.48,162.28z"/>
	<path fill="#3D2C70" d="M330.15,167.27l-0.79,5.76h-2.34l0.75-5.26c0.1-0.81-0.12-1.02-0.47-1.02c-0.6,0-1.2,0.78-1.77,1.91
		l-0.62,4.38h-2.32l1.11-7.96h2.03l-0.04,1.39c0.67-0.99,1.65-1.65,2.71-1.65C329.67,164.81,330.37,165.73,330.15,167.27z"/>
	<path fill="#3D2C70" d="M338.16,165.83l-1.16,1.35c-0.44-0.41-0.87-0.56-1.38-0.56c-1.62,0-2.03,1.96-2.03,3.32
		c0,1.12,0.5,1.47,1.25,1.47c0.57,0,0.99-0.19,1.58-0.55l0.87,1.51c-0.79,0.58-1.68,0.92-2.75,0.92c-2.14,0-3.39-1.33-3.39-3.43
		c0-2.07,1.21-5.04,4.45-5.04C336.63,164.81,337.5,165.16,338.16,165.83z"/>
	<path fill="#3D2C70" d="M340.41,170.14c0.06,1.05,0.63,1.41,1.41,1.41c0.67,0,1.29-0.24,2.02-0.73l0.84,1.41
		c-0.87,0.63-1.94,1.06-3.17,1.06c-2.33,0-3.46-1.35-3.46-3.38c0-2.16,1.17-5.1,4.51-5.1c1.93,0,2.94,0.97,2.94,2.17
		C345.51,169.22,342.9,169.9,340.41,170.14z M343.15,167.12c0-0.36-0.18-0.73-0.81-0.73c-1.11,0-1.63,1.17-1.83,2.31
		C342.49,168.55,343.15,167.8,343.15,167.12z"/>
	<path fill="#3D2C70" d="M353.59,167.27l-0.79,5.76h-2.34l0.75-5.26c0.1-0.81-0.12-1.02-0.47-1.02c-0.6,0-1.2,0.78-1.77,1.91
		l-0.62,4.38h-2.32l1.11-7.96h2.03l-0.04,1.39c0.67-0.99,1.65-1.65,2.71-1.65C353.11,164.81,353.82,165.73,353.59,167.27z"/>
	<path fill="#3D2C70" d="M357.45,170.39c-0.11,0.76,0.08,1,0.54,1c0.29,0,0.58-0.08,0.9-0.25l0.63,1.56
		c-0.68,0.39-1.52,0.58-2.19,0.58c-1.75-0.01-2.47-1.04-2.22-2.89l0.53-3.68h-1.1l0.23-1.65h1.2l0.5-1.77l2.01-0.23l-0.28,2h1.8
		l-0.46,1.65h-1.56L357.45,170.39z"/>
	<path fill="#3D2C70" d="M362.52,173.03h-2.32l1.11-7.96h2.33L362.52,173.03z M364.24,162.28c-0.11,0.74-0.72,1.29-1.53,1.29
		c-0.83,0-1.32-0.62-1.21-1.39c0.1-0.74,0.73-1.31,1.51-1.31C363.85,160.87,364.35,161.48,364.24,162.28z"/>
	<path fill="#3D2C70" d="M368.65,173.03h-2.8l-1.4-7.96h2.5l0.54,6.17l2.24-6.17h2.46L368.65,173.03z"/>
	<path fill="#3D2C70" d="M374.22,173.03h-2.32l1.11-7.96h2.33L374.22,173.03z M375.94,162.28c-0.11,0.74-0.72,1.29-1.53,1.29
		c-0.83,0-1.32-0.62-1.21-1.39c0.1-0.74,0.73-1.31,1.51-1.31C375.55,160.87,376.05,161.48,375.94,162.28z"/>
	<path fill="#3D2C70" d="M382.44,166.73l-3.99,4.5h3.43l-0.46,1.8h-6.12l0.22-1.68l4-4.5h-3.06l0.25-1.79h5.94L382.44,166.73z"/>
	<path fill="#3D2C70" d="M390.64,165.65l-0.75,5.1c-0.01,0.12-0.03,0.24-0.03,0.33c0,0.38,0.13,0.53,0.42,0.63l-0.67,1.53
		c-0.87-0.08-1.6-0.46-1.84-1.32c-0.54,0.79-1.3,1.37-2.35,1.37c-1.73,0-2.6-1.25-2.6-3.17c0-2.28,1.2-5.31,4.56-5.31
		C388.44,164.81,389.56,165.05,390.64,165.65z M385.23,170.11c0,1.12,0.38,1.44,0.92,1.44c0.55,0,1.05-0.42,1.5-1.11l0.57-3.79
		c-0.32-0.11-0.54-0.15-0.9-0.15C385.77,166.49,385.23,168.56,385.23,170.11z"/>
	<path fill="#3D2C70" d="M394.26,170.39c-0.11,0.76,0.08,1,0.54,1c0.29,0,0.58-0.08,0.9-0.25l0.63,1.56
		c-0.68,0.39-1.52,0.58-2.19,0.58c-1.75-0.01-2.47-1.04-2.22-2.89l0.52-3.68h-1.09l0.23-1.65h1.2l0.5-1.77l2.01-0.23l-0.28,2h1.8
		l-0.46,1.65h-1.56L394.26,170.39z"/>
	<path fill="#3D2C70" d="M399.33,173.03H397l1.11-7.96h2.33L399.33,173.03z M401.05,162.28c-0.11,0.74-0.72,1.29-1.53,1.29
		c-0.83,0-1.32-0.62-1.21-1.39c0.1-0.74,0.73-1.31,1.51-1.31C400.66,160.87,401.16,161.48,401.05,162.28z"/>
	<path fill="#3D2C70" d="M408.99,168.2c-0.01,2.19-1.09,5.08-4.44,5.08c-2.12,0-3.33-1.27-3.33-3.39c0-2.22,1.08-5.08,4.44-5.08
		C407.77,164.81,409,166.12,408.99,168.2z M403.6,170.05c0,1.05,0.38,1.5,1.11,1.5c1.56,0,1.88-2.28,1.88-3.5
		c0.01-1.05-0.36-1.5-1.1-1.5C403.92,166.55,403.6,168.83,403.6,170.05z"/>
	<path fill="#3D2C70" d="M417.33,167.27l-0.79,5.76h-2.34l0.75-5.26c0.1-0.81-0.12-1.02-0.47-1.02c-0.6,0-1.2,0.78-1.77,1.91
		l-0.62,4.38h-2.32l1.11-7.96h2.03l-0.04,1.39c0.67-0.99,1.65-1.65,2.71-1.65C416.85,164.81,417.55,165.73,417.33,167.27z"/>
	<path fill="#3D2C70" d="M429.55,165.65l-0.75,5.1c-0.01,0.12-0.03,0.24-0.03,0.33c0,0.38,0.13,0.53,0.42,0.63l-0.67,1.53
		c-0.87-0.08-1.6-0.46-1.84-1.32c-0.54,0.79-1.3,1.37-2.35,1.37c-1.73,0-2.6-1.25-2.6-3.17c0-2.28,1.2-5.31,4.56-5.31
		C427.35,164.81,428.47,165.05,429.55,165.65z M424.14,170.11c0,1.12,0.38,1.44,0.92,1.44c0.55,0,1.05-0.42,1.5-1.11l0.57-3.79
		c-0.32-0.11-0.54-0.15-0.9-0.15C424.68,166.49,424.14,168.56,424.14,170.11z"/>
	<path fill="#3D2C70" d="M437.83,167.27l-0.79,5.76h-2.34l0.75-5.26c0.1-0.81-0.12-1.02-0.47-1.02c-0.6,0-1.2,0.78-1.77,1.91
		l-0.62,4.38h-2.32l1.11-7.96h2.03l-0.04,1.39c0.67-0.99,1.65-1.65,2.71-1.65C437.35,164.81,438.06,165.73,437.83,167.27z"/>
	<path fill="#3D2C70" d="M447.39,161.9l-1.56,11.13h-2.07l0.01-1.14c-0.51,0.76-1.29,1.39-2.37,1.39c-1.69,0-2.5-1.21-2.5-3.21
		c0-2.17,1.02-5.26,3.88-5.26c0.74,0,1.35,0.31,1.75,0.76l0.54-3.92L447.39,161.9z M441.31,170.09c0,1.12,0.38,1.45,0.88,1.45
		c0.66,0,1.21-0.67,1.71-1.47l0.42-2.96c-0.3-0.39-0.61-0.58-1.11-0.58C441.73,166.54,441.31,168.77,441.31,170.09z"/>
	<path fill="#3D2C70" d="M233.27,188.39c-0.11,0.76,0.08,1,0.54,1c0.29,0,0.58-0.08,0.9-0.25l0.63,1.56
		c-0.68,0.39-1.52,0.58-2.19,0.58c-1.75-0.01-2.47-1.04-2.22-2.89l0.52-3.67h-1.09l0.23-1.65h1.2l0.5-1.77l2.01-0.23l-0.28,2h1.8
		l-0.46,1.65h-1.56L233.27,188.39z"/>
	<path fill="#3D2C70" d="M242.17,182.96l-0.67,2.28c-0.24-0.06-0.42-0.1-0.66-0.1c-0.99,0-1.53,0.94-1.96,2.21l-0.53,3.69h-2.32
		l1.11-7.96h2.03l-0.03,1.49c0.54-1.09,1.42-1.71,2.25-1.71C241.69,182.84,241.91,182.89,242.17,182.96z"/>
	<path fill="#3D2C70" d="M248.5,191.03h-2.01l0.04-1.18c-0.67,0.87-1.5,1.44-2.52,1.44c-1.48,0-2.1-0.99-1.89-2.52l0.81-5.7h2.33
		l-0.73,5.31c-0.11,0.81,0.09,1.02,0.52,1.02c0.55,0,1.09-0.58,1.53-1.29l0.71-5.04h2.32L248.5,191.03z"/>
	<path fill="#3D2C70" d="M256.94,183.83l-1.04,1.27c-0.57-0.39-1.25-0.6-1.88-0.6c-0.7,0-1.05,0.25-1.05,0.64
		c0,0.42,0.32,0.55,1.53,0.95c1.35,0.43,2.07,1.17,2.07,2.42c0,1.48-1.11,2.77-3.57,2.77c-1.42,0-2.62-0.55-3.31-1.3l1.18-1.23
		c0.53,0.47,1.25,0.84,2.14,0.84c0.83,0,1.23-0.36,1.23-0.8c0-0.52-0.32-0.67-1.58-1.11c-1.37-0.46-2.02-1.12-2.02-2.31
		c0-1.37,1.17-2.57,3.36-2.57C255.22,182.81,256.22,183.22,256.94,183.83z"/>
	<path fill="#3D2C70" d="M260.32,188.39c-0.11,0.76,0.08,1,0.54,1c0.29,0,0.58-0.08,0.9-0.25l0.63,1.56
		c-0.68,0.39-1.52,0.58-2.19,0.58c-1.75-0.01-2.47-1.04-2.22-2.89l0.52-3.67h-1.09l0.23-1.65h1.2l0.5-1.77l2.01-0.23l-0.28,2h1.8
		l-0.46,1.65h-1.56L260.32,188.39z"/>
	<path fill="#3D2C70" d="M268.79,191.03h-2.32l1.11-7.96h2.33L268.79,191.03z M270.52,180.28c-0.11,0.74-0.72,1.29-1.53,1.29
		c-0.83,0-1.32-0.62-1.21-1.39c0.1-0.74,0.74-1.3,1.51-1.3C270.13,178.87,270.62,179.48,270.52,180.28z"/>
	<path fill="#3D2C70" d="M278.18,185.27l-0.79,5.76h-2.34l0.75-5.26c0.1-0.81-0.12-1.02-0.47-1.02c-0.6,0-1.2,0.78-1.77,1.91
		l-0.62,4.38h-2.32l1.11-7.96h2.03l-0.04,1.4c0.67-0.99,1.65-1.65,2.71-1.65C277.7,182.81,278.41,183.73,278.18,185.27z"/>
	<path fill="#3D2C70" d="M288.7,182.96l-0.67,2.28c-0.24-0.06-0.42-0.1-0.66-0.1c-0.99,0-1.53,0.94-1.96,2.21l-0.53,3.69h-2.32
		l1.11-7.96h2.03l-0.03,1.49c0.54-1.09,1.42-1.71,2.25-1.71C288.22,182.84,288.44,182.89,288.7,182.96z"/>
	<path fill="#3D2C70" d="M290.68,188.14c0.06,1.05,0.63,1.41,1.41,1.41c0.67,0,1.29-0.24,2.02-0.73l0.84,1.41
		c-0.87,0.63-1.94,1.06-3.17,1.06c-2.33,0-3.46-1.35-3.46-3.38c0-2.16,1.17-5.1,4.51-5.1c1.93,0,2.94,0.97,2.94,2.17
		C295.78,187.22,293.17,187.9,290.68,188.14z M293.42,185.12c0-0.36-0.18-0.73-0.81-0.73c-1.11,0-1.63,1.17-1.83,2.31
		C292.76,186.55,293.42,185.8,293.42,185.12z"/>
	<path fill="#3D2C70" d="M302.92,183.83l-1.04,1.27c-0.57-0.39-1.25-0.6-1.88-0.6c-0.71,0-1.05,0.25-1.05,0.64
		c0,0.42,0.32,0.55,1.53,0.95c1.35,0.43,2.07,1.17,2.07,2.42c0,1.48-1.11,2.77-3.57,2.77c-1.42,0-2.62-0.55-3.31-1.3l1.18-1.23
		c0.52,0.47,1.25,0.84,2.14,0.84c0.83,0,1.23-0.36,1.23-0.8c0-0.52-0.32-0.67-1.58-1.11c-1.37-0.46-2.02-1.12-2.02-2.31
		c0-1.37,1.17-2.57,3.36-2.57C301.19,182.81,302.2,183.22,302.92,183.83z"/>
	<path fill="#3D2C70" d="M310,191.03h-2.01l0.04-1.18c-0.68,0.87-1.5,1.44-2.52,1.44c-1.48,0-2.1-0.99-1.89-2.52l0.81-5.7h2.33
		l-0.73,5.31c-0.11,0.81,0.09,1.02,0.52,1.02c0.55,0,1.09-0.58,1.53-1.29l0.71-5.04h2.32L310,191.03z"/>
	<path fill="#3D2C70" d="M314.36,188.86c-0.04,0.42,0.08,0.55,0.32,0.55c0.12,0,0.27-0.04,0.39-0.09l0.29,1.67
		c-0.43,0.2-0.99,0.3-1.5,0.3c-1.33,0-2.04-0.81-1.81-2.34l1.27-9.04l2.36-0.25L314.36,188.86z"/>
	<path fill="#3D2C70" d="M319.04,188.39c-0.11,0.76,0.08,1,0.54,1c0.29,0,0.58-0.08,0.9-0.25l0.63,1.56
		c-0.68,0.39-1.52,0.58-2.19,0.58c-1.75-0.01-2.47-1.04-2.22-2.89l0.53-3.67h-1.1l0.23-1.65h1.2l0.5-1.77l2.01-0.23l-0.28,2h1.8
		l-0.46,1.65h-1.56L319.04,188.39z"/>
	<path fill="#3D2C70" d="M333.02,186.2c-0.01,2.19-1.09,5.08-4.44,5.08c-2.12,0-3.33-1.27-3.33-3.39c0-2.22,1.08-5.08,4.44-5.08
		C331.81,182.81,333.04,184.12,333.02,186.2z M327.64,188.05c0,1.05,0.38,1.5,1.11,1.5c1.56,0,1.88-2.28,1.88-3.49
		c0.01-1.05-0.36-1.5-1.1-1.5C327.95,184.55,327.64,186.83,327.64,188.05z"/>
	<path fill="#3D2C70" d="M337.61,182.48l-0.08,0.58h1.84l-0.48,1.65h-1.61l-0.76,5.44c-0.36,2.59-1.79,3.51-3.71,4.2l-0.58-1.71
		c1.12-0.44,1.75-0.95,1.95-2.4l0.78-5.53h-1.19l0.23-1.65h1.18l0.11-0.73c0.21-1.53,1.33-2.69,3.27-2.69c0.96,0,1.68,0.3,2.22,0.66
		l-0.83,1.42c-0.4-0.27-0.85-0.33-1.2-0.33C338.08,181.4,337.71,181.72,337.61,182.48z"/>
	<path fill="#3D2C70" d="M349.45,183.83l-1.16,1.35c-0.44-0.41-0.87-0.55-1.38-0.55c-1.62,0-2.03,1.96-2.03,3.31
		c0,1.12,0.5,1.47,1.25,1.47c0.57,0,0.99-0.19,1.58-0.55l0.87,1.51c-0.79,0.58-1.68,0.92-2.75,0.92c-2.14,0-3.39-1.33-3.39-3.43
		c0-2.07,1.21-5.04,4.45-5.04C347.92,182.81,348.79,183.16,349.45,183.83z"/>
	<path fill="#3D2C70" d="M357.12,186.2c-0.01,2.19-1.09,5.08-4.44,5.08c-2.12,0-3.33-1.27-3.33-3.39c0-2.22,1.08-5.08,4.44-5.08
		C355.91,182.81,357.14,184.12,357.12,186.2z M351.74,188.05c0,1.05,0.38,1.5,1.11,1.5c1.56,0,1.88-2.28,1.88-3.49
		c0.01-1.05-0.36-1.5-1.1-1.5C352.06,184.55,351.74,186.83,351.74,188.05z"/>
	<path fill="#3D2C70" d="M369.42,185.24l-0.81,5.79h-2.32l0.75-5.26c0.12-0.84-0.12-1.02-0.45-1.02c-0.53,0-1.07,0.75-1.54,1.8
		l-0.63,4.48h-2.33l0.75-5.26c0.12-0.84-0.13-1.02-0.46-1.02c-0.51,0-1.08,0.77-1.53,1.88l-0.62,4.41h-2.32l1.11-7.96h2.03
		l-0.04,1.29c0.64-0.96,1.5-1.54,2.49-1.54c0.93,0,1.59,0.51,1.75,1.47c0.63-0.92,1.53-1.47,2.46-1.47
		C368.93,182.81,369.63,183.73,369.42,185.24z"/>
	<path fill="#3D2C70" d="M378.33,185.92c0,2.29-1.05,5.37-4.21,5.37c-0.67,0-1.11-0.1-1.44-0.22l-0.45,3.06l-2.33,0.25l1.58-11.31
		h2.05v0.88c0.81-0.87,1.62-1.14,2.36-1.14C377.51,182.81,378.33,183.94,378.33,185.92z M373.47,185.47l-0.54,3.9
		c0.3,0.12,0.6,0.2,1,0.2c1.47,0,2.01-2.1,2.01-3.6c0-1.11-0.42-1.41-0.96-1.41C374.42,184.55,373.92,184.9,373.47,185.47z"/>
	<path fill="#3D2C70" d="M385.76,191.03h-2.01l0.04-1.18c-0.68,0.87-1.5,1.44-2.52,1.44c-1.48,0-2.1-0.99-1.89-2.52l0.81-5.7h2.33
		l-0.73,5.31c-0.11,0.81,0.09,1.02,0.52,1.02c0.55,0,1.09-0.58,1.53-1.29l0.71-5.04h2.32L385.76,191.03z"/>
	<path fill="#3D2C70" d="M390.49,188.39c-0.11,0.76,0.08,1,0.54,1c0.29,0,0.58-0.08,0.9-0.25l0.63,1.56
		c-0.68,0.39-1.52,0.58-2.19,0.58c-1.75-0.01-2.47-1.04-2.22-2.89l0.52-3.67h-1.09l0.23-1.65h1.2l0.5-1.77l2.01-0.23l-0.28,2h1.8
		l-0.46,1.65H391L390.49,188.39z"/>
	<path fill="#3D2C70" d="M400.94,183.65l-0.75,5.1c-0.01,0.12-0.03,0.24-0.03,0.33c0,0.38,0.13,0.53,0.42,0.63l-0.67,1.53
		c-0.87-0.08-1.6-0.46-1.84-1.32c-0.54,0.79-1.3,1.37-2.35,1.37c-1.73,0-2.6-1.25-2.6-3.17c0-2.28,1.2-5.31,4.56-5.31
		C398.73,182.81,399.86,183.05,400.94,183.65z M395.52,188.11c0,1.12,0.38,1.44,0.92,1.44c0.55,0,1.05-0.42,1.5-1.11l0.57-3.79
		c-0.32-0.11-0.54-0.15-0.9-0.15C396.06,184.49,395.52,186.56,395.52,188.11z"/>
	<path fill="#3D2C70" d="M404.55,188.39c-0.11,0.76,0.08,1,0.54,1c0.29,0,0.58-0.08,0.9-0.25l0.63,1.56
		c-0.68,0.39-1.52,0.58-2.19,0.58c-1.75-0.01-2.47-1.04-2.22-2.89l0.53-3.67h-1.1l0.23-1.65h1.2l0.5-1.77l2.01-0.23l-0.28,2h1.8
		l-0.46,1.65h-1.56L404.55,188.39z"/>
	<path fill="#3D2C70" d="M409.62,191.03h-2.32l1.11-7.96h2.33L409.62,191.03z M411.35,180.28c-0.11,0.74-0.72,1.29-1.53,1.29
		c-0.83,0-1.32-0.62-1.21-1.39c0.1-0.74,0.74-1.3,1.51-1.3C410.96,178.87,411.45,179.48,411.35,180.28z"/>
	<path fill="#3D2C70" d="M419.28,186.2c-0.01,2.19-1.09,5.08-4.44,5.08c-2.12,0-3.33-1.27-3.33-3.39c0-2.22,1.08-5.08,4.44-5.08
		C418.07,182.81,419.3,184.12,419.28,186.2z M413.9,188.05c0,1.05,0.38,1.5,1.11,1.5c1.56,0,1.88-2.28,1.88-3.49
		c0.01-1.05-0.36-1.5-1.1-1.5C414.21,184.55,413.9,186.83,413.9,188.05z"/>
	<path fill="#3D2C70" d="M427.62,185.27l-0.79,5.76h-2.34l0.75-5.26c0.1-0.81-0.12-1.02-0.47-1.02c-0.6,0-1.2,0.78-1.77,1.91
		l-0.62,4.38h-2.32l1.11-7.96h2.03l-0.04,1.4c0.67-0.99,1.65-1.65,2.71-1.65C427.14,182.81,427.85,183.73,427.62,185.27z"/>
	<path fill="#3D2C70" d="M435.2,183.83l-1.04,1.27c-0.57-0.39-1.25-0.6-1.88-0.6c-0.71,0-1.05,0.25-1.05,0.64
		c0,0.42,0.32,0.55,1.53,0.95c1.35,0.43,2.07,1.17,2.07,2.42c0,1.48-1.11,2.77-3.57,2.77c-1.42,0-2.62-0.55-3.31-1.3l1.18-1.23
		c0.52,0.47,1.25,0.84,2.14,0.84c0.83,0,1.23-0.36,1.23-0.8c0-0.52-0.32-0.67-1.58-1.11c-1.37-0.46-2.02-1.12-2.02-2.31
		c0-1.37,1.17-2.57,3.36-2.57C433.47,182.81,434.48,183.22,435.2,183.83z"/>
</g>
<g>
	<path fill="#8B80A9" d="M20.26,9.26l-1.56,11.1h-1.67l0.01-1.21c-0.54,0.83-1.32,1.44-2.38,1.44c-1.67,0-2.5-1.23-2.5-3.18
		c0-2.11,1-5.2,3.79-5.2c0.83,0,1.46,0.36,1.88,0.87l0.57-4L20.26,9.26z M14.14,17.47c0,1.21,0.43,1.67,1.08,1.67
		c0.81,0,1.41-0.69,2-1.62l0.44-3.12c-0.35-0.48-0.74-0.75-1.33-0.75C14.62,13.64,14.14,16.03,14.14,17.47z"/>
	<path fill="#8B80A9" d="M28.05,12.97l-0.79,5.32c-0.01,0.14-0.03,0.24-0.03,0.33c0,0.41,0.17,0.56,0.45,0.67l-0.54,1.26
		c-0.84-0.09-1.46-0.46-1.63-1.32c-0.58,0.79-1.37,1.35-2.35,1.35c-1.7,0-2.57-1.23-2.57-3.1c0-2.23,1.17-5.28,4.41-5.28
		C25.99,12.2,26.98,12.41,28.05,12.97z M22.56,17.48c0,1.2,0.43,1.65,1.12,1.65c0.69,0,1.23-0.51,1.77-1.26l0.6-4.05
		c-0.38-0.15-0.64-0.21-1.09-0.21C23.2,13.61,22.56,15.83,22.56,17.48z"/>
	<path fill="#8B80A9" d="M31.17,17.98c-0.12,0.78,0.08,1.05,0.62,1.05c0.31,0,0.63-0.09,1-0.3l0.54,1.29
		c-0.63,0.39-1.35,0.57-2.01,0.57c-1.57-0.01-2.28-0.94-2.04-2.62l0.58-4.15h-1.23l0.2-1.38h1.3l0.5-1.8l1.59-0.18l-0.29,1.98h1.83
		l-0.39,1.38h-1.62L31.17,17.98z"/>
	<path fill="#8B80A9" d="M41.22,12.97l-0.79,5.32c-0.01,0.14-0.03,0.24-0.03,0.33c0,0.41,0.17,0.56,0.45,0.67l-0.54,1.26
		c-0.84-0.09-1.46-0.46-1.63-1.32c-0.58,0.79-1.37,1.35-2.35,1.35c-1.7,0-2.57-1.23-2.57-3.1c0-2.23,1.17-5.28,4.41-5.28
		C39.16,12.2,40.15,12.41,41.22,12.97z M35.73,17.48c0,1.2,0.43,1.65,1.12,1.65c0.69,0,1.23-0.51,1.77-1.26l0.6-4.05
		c-0.38-0.15-0.64-0.21-1.09-0.21C36.37,13.61,35.73,15.83,35.73,17.48z"/>
	<path fill="#8B80A9" d="M52.78,15.31c0,2.26-1.08,5.28-4.21,5.28c-0.62,0-1.06-0.1-1.47-0.24l-0.45,3.09l-1.89,0.22l1.58-11.23
		h1.65l-0.01,0.93c0.83-0.88,1.62-1.15,2.38-1.15C51.91,12.2,52.78,13.33,52.78,15.31z M47.91,14.66l-0.58,4.27
		c0.39,0.13,0.71,0.21,1.19,0.21c1.69,0,2.32-2.25,2.32-3.87c0-1.24-0.49-1.63-1.17-1.63C48.97,13.64,48.42,14.08,47.91,14.66z"/>
	<path fill="#8B80A9" d="M61.09,15.53c0,2.07-1.04,5.05-4.27,5.05c-2.06,0-3.2-1.27-3.2-3.34c0-2.1,1.05-5.04,4.27-5.04
		C59.95,12.2,61.09,13.49,61.09,15.53z M55.57,17.39c0,1.2,0.46,1.74,1.35,1.74c1.79,0,2.21-2.4,2.21-3.75
		c0.01-1.2-0.45-1.72-1.33-1.72C56.01,13.66,55.57,16.04,55.57,17.39z"/>
	<path fill="#8B80A9" d="M70.03,9.26l-1.56,11.1h-1.67l0.01-1.21c-0.54,0.83-1.32,1.44-2.38,1.44c-1.67,0-2.5-1.23-2.5-3.18
		c0-2.11,1-5.2,3.79-5.2c0.83,0,1.46,0.36,1.88,0.87l0.57-4L70.03,9.26z M63.91,17.47c0,1.21,0.43,1.67,1.08,1.67
		c0.81,0,1.41-0.69,2-1.62l0.44-3.12c-0.35-0.48-0.74-0.75-1.33-0.75C64.39,13.64,63.91,16.03,63.91,17.47z"/>
	<path fill="#8B80A9" d="M76.57,13.21l-0.87,1.06c-0.58-0.42-1.25-0.65-1.91-0.65c-0.83,0-1.29,0.31-1.29,0.84
		c0,0.51,0.41,0.69,1.56,1.06c1.41,0.45,2.15,1.14,2.15,2.38c0,1.61-1.35,2.67-3.45,2.67c-1.39,0-2.47-0.55-3.12-1.23l0.99-1.05
		c0.55,0.5,1.28,0.84,2.17,0.84c1.08,0,1.49-0.54,1.49-1.02c0-0.63-0.36-0.84-1.62-1.26c-1.44-0.47-2.07-1.11-2.07-2.25
		c0-1.22,1.07-2.42,3.2-2.42C74.93,12.2,75.87,12.59,76.57,13.21z"/>
	<path fill="#8B80A9" d="M86.47,13.21l-0.87,1.06c-0.58-0.42-1.25-0.65-1.91-0.65c-0.83,0-1.29,0.31-1.29,0.84
		c0,0.51,0.41,0.69,1.56,1.06c1.41,0.45,2.15,1.14,2.15,2.38c0,1.61-1.35,2.67-3.45,2.67c-1.39,0-2.47-0.55-3.12-1.23l0.99-1.05
		c0.55,0.5,1.28,0.84,2.17,0.84c1.08,0,1.49-0.54,1.49-1.02c0-0.63-0.36-0.84-1.62-1.26c-1.44-0.47-2.07-1.11-2.07-2.25
		c0-1.22,1.07-2.42,3.2-2.42C84.83,12.2,85.77,12.59,86.47,13.21z"/>
	<path fill="#8B80A9" d="M94.12,14.66l-0.81,5.7h-1.89l0.76-5.38c0.12-0.94-0.17-1.2-0.62-1.2c-0.81,0-1.54,0.92-2.13,2.04
		l-0.63,4.54h-1.89l1.56-11.1l1.91-0.19l-0.67,4.75c0.62-0.96,1.51-1.62,2.56-1.62C93.61,12.2,94.33,13.13,94.12,14.66z"/>
	<path fill="#8B80A9" d="M102.59,12.97l-0.79,5.32c-0.01,0.14-0.03,0.24-0.03,0.33c0,0.41,0.16,0.56,0.45,0.67l-0.54,1.26
		c-0.84-0.09-1.46-0.46-1.63-1.32c-0.58,0.79-1.37,1.35-2.35,1.35c-1.7,0-2.57-1.23-2.57-3.1c0-2.23,1.17-5.28,4.41-5.28
		C100.54,12.2,101.53,12.41,102.59,12.97z M97.1,17.48c0,1.2,0.43,1.65,1.12,1.65c0.69,0,1.23-0.51,1.77-1.26l0.6-4.05
		c-0.38-0.15-0.64-0.21-1.09-0.21C97.75,13.61,97.1,15.83,97.1,17.48z"/>
	<path fill="#8B80A9" d="M109.1,12.34l-0.55,1.85c-0.24-0.06-0.41-0.09-0.66-0.09c-1,0-1.61,0.94-2.1,2.35l-0.56,3.92h-1.89
		l1.11-7.93h1.63l-0.06,1.54c0.57-1.16,1.42-1.75,2.28-1.75C108.61,12.22,108.85,12.26,109.1,12.34z"/>
	<path fill="#8B80A9" d="M110.56,17.44c0.03,1.25,0.66,1.67,1.53,1.67c0.72,0,1.35-0.23,2.07-0.74l0.73,1.2
		c-0.87,0.62-1.86,1.02-3.01,1.02c-2.16,0-3.27-1.29-3.27-3.3c0-2.16,1.12-5.08,4.32-5.08c1.82,0,2.75,0.98,2.75,2.1
		C115.67,16.54,113.17,17.18,110.56,17.44z M113.72,14.39c0-0.36-0.19-0.83-0.93-0.83c-1.35,0-1.95,1.33-2.16,2.62
		C112.76,15.98,113.72,15.38,113.72,14.39z"/>
	<path fill="#8B80A9" d="M121.81,17.98c-0.12,0.78,0.08,1.05,0.62,1.05c0.31,0,0.63-0.09,1-0.3l0.54,1.29
		c-0.63,0.39-1.35,0.57-2.01,0.57c-1.57-0.01-2.28-0.94-2.04-2.62l0.58-4.15h-1.23l0.2-1.38h1.3l0.5-1.8l1.59-0.18l-0.29,1.98h1.83
		l-0.39,1.38h-1.62L121.81,17.98z"/>
	<path fill="#8B80A9" d="M131.77,14.66l-0.81,5.7h-1.89l0.76-5.38c0.12-0.94-0.17-1.2-0.62-1.2c-0.81,0-1.54,0.92-2.13,2.04
		l-0.63,4.54h-1.89l1.56-11.1l1.91-0.19l-0.67,4.75c0.62-0.96,1.51-1.62,2.56-1.62C131.26,12.2,131.98,13.13,131.77,14.66z"/>
	<path fill="#8B80A9" d="M134.74,17.44c0.03,1.25,0.66,1.67,1.53,1.67c0.72,0,1.35-0.23,2.07-0.74l0.73,1.2
		c-0.87,0.62-1.86,1.02-3.01,1.02c-2.16,0-3.27-1.29-3.27-3.3c0-2.16,1.12-5.08,4.32-5.08c1.82,0,2.75,0.98,2.75,2.1
		C139.85,16.54,137.35,17.18,134.74,17.44z M137.9,14.39c0-0.36-0.19-0.83-0.93-0.83c-1.35,0-1.95,1.33-2.16,2.62
		C136.94,15.98,137.9,15.38,137.9,14.39z"/>
	<path fill="#8B80A9" d="M142.25,20.36h-1.89l1.11-7.93h1.89L142.25,20.36z M144.01,9.64c-0.09,0.63-0.61,1.1-1.3,1.1
		c-0.72,0-1.16-0.54-1.06-1.22c0.09-0.65,0.61-1.11,1.3-1.11C143.68,8.41,144.1,8.95,144.01,9.64z"/>
	<path fill="#8B80A9" d="M149.92,12.34l-0.55,1.85c-0.24-0.06-0.41-0.09-0.66-0.09c-1,0-1.61,0.94-2.1,2.35l-0.56,3.92h-1.89
		l1.11-7.93h1.63l-0.06,1.54c0.57-1.16,1.42-1.75,2.28-1.75C149.42,12.22,149.66,12.26,149.92,12.34z"/>
	<path fill="#8B80A9" d="M14.81,33.31c0,2.26-1.08,5.28-4.21,5.28c-0.62,0-1.06-0.1-1.47-0.24l-0.45,3.09l-1.89,0.22l1.58-11.23
		h1.65l-0.01,0.93c0.83-0.88,1.62-1.16,2.38-1.16C13.94,30.2,14.81,31.33,14.81,33.31z M9.93,32.66l-0.58,4.28
		c0.39,0.13,0.71,0.21,1.19,0.21c1.69,0,2.32-2.25,2.32-3.87c0-1.25-0.49-1.63-1.17-1.63C11,31.64,10.44,32.08,9.93,32.66z"/>
	<path fill="#8B80A9" d="M21.41,30.34l-0.55,1.84c-0.24-0.06-0.41-0.09-0.66-0.09c-1,0-1.61,0.94-2.1,2.35l-0.56,3.92h-1.89
		l1.11-7.93h1.63l-0.06,1.54c0.57-1.16,1.42-1.75,2.28-1.75C20.91,30.22,21.15,30.26,21.41,30.34z"/>
	<path fill="#8B80A9" d="M28.4,33.53c0,2.07-1.04,5.05-4.27,5.05c-2.06,0-3.2-1.27-3.2-3.34c0-2.1,1.05-5.04,4.27-5.04
		C27.26,30.2,28.4,31.49,28.4,33.53z M22.88,35.39c0,1.2,0.46,1.74,1.35,1.74c1.79,0,2.21-2.4,2.21-3.75
		c0.01-1.2-0.45-1.73-1.33-1.73C23.31,31.66,22.88,34.04,22.88,35.39z"/>
	<path fill="#8B80A9" d="M35.87,31.15l-0.96,1.14c-0.46-0.42-0.9-0.57-1.46-0.57c-1.8,0-2.28,2.14-2.28,3.63
		c0,1.23,0.54,1.68,1.41,1.68c0.62,0,1.08-0.21,1.7-0.58L35,37.72c-0.79,0.55-1.65,0.87-2.62,0.87c-2.02,0-3.19-1.27-3.19-3.34
		c0-2.07,1.17-5.04,4.26-5.04C34.38,30.2,35.21,30.5,35.87,31.15z"/>
	<path fill="#8B80A9" d="M37.67,35.44c0.03,1.25,0.66,1.67,1.53,1.67c0.72,0,1.35-0.23,2.07-0.74l0.73,1.2
		c-0.87,0.62-1.86,1.02-3.01,1.02c-2.16,0-3.27-1.29-3.27-3.3c0-2.16,1.12-5.08,4.32-5.08c1.82,0,2.75,0.98,2.75,2.1
		C42.78,34.54,40.28,35.18,37.67,35.44z M40.83,32.39c0-0.36-0.19-0.83-0.93-0.83c-1.35,0-1.95,1.33-2.16,2.62
		C39.87,33.98,40.83,33.38,40.83,32.39z"/>
	<path fill="#8B80A9" d="M49.49,31.21l-0.87,1.06c-0.58-0.42-1.25-0.64-1.91-0.64c-0.83,0-1.29,0.31-1.29,0.84
		c0,0.51,0.41,0.69,1.56,1.06c1.41,0.45,2.15,1.14,2.15,2.38c0,1.61-1.35,2.67-3.45,2.67c-1.39,0-2.47-0.55-3.12-1.23l0.99-1.05
		c0.55,0.5,1.28,0.84,2.17,0.84c1.08,0,1.49-0.54,1.49-1.02c0-0.63-0.36-0.84-1.62-1.26c-1.44-0.46-2.07-1.11-2.07-2.25
		c0-1.21,1.07-2.42,3.2-2.42C47.85,30.2,48.78,30.59,49.49,31.21z"/>
	<path fill="#8B80A9" d="M56.13,31.21l-0.87,1.06c-0.58-0.42-1.25-0.64-1.91-0.64c-0.83,0-1.29,0.31-1.29,0.84
		c0,0.51,0.41,0.69,1.56,1.06c1.41,0.45,2.15,1.14,2.15,2.38c0,1.61-1.35,2.67-3.45,2.67c-1.39,0-2.47-0.55-3.12-1.23l0.99-1.05
		c0.55,0.5,1.28,0.84,2.17,0.84c1.08,0,1.49-0.54,1.49-1.02c0-0.63-0.36-0.84-1.62-1.26c-1.44-0.46-2.07-1.11-2.07-2.25
		c0-1.21,1.07-2.42,3.2-2.42C54.5,30.2,55.43,30.59,56.13,31.21z"/>
	<path fill="#8B80A9" d="M58.47,38.36h-1.89l1.11-7.93h1.89L58.47,38.36z M60.23,27.64c-0.09,0.63-0.61,1.09-1.3,1.09
		c-0.72,0-1.16-0.54-1.06-1.21c0.09-0.64,0.61-1.11,1.3-1.11C59.9,26.41,60.32,26.95,60.23,27.64z"/>
	<path fill="#8B80A9" d="M67.56,32.69l-0.79,5.67h-1.89l0.76-5.38c0.13-0.95-0.18-1.2-0.64-1.2c-0.78,0-1.5,0.92-2.1,2.04
		l-0.63,4.54h-1.89l1.11-7.93h1.63l-0.08,1.47c0.71-1.02,1.62-1.7,2.73-1.7C67.07,30.2,67.79,31.13,67.56,32.69z"/>
	<path fill="#8B80A9" d="M76.1,30.97l-1.04,6.97c-0.39,2.7-1.71,3.72-3.93,3.72c-0.96,0-2.05-0.33-2.87-0.83l0.66-1.33
		c0.63,0.36,1.41,0.63,2.16,0.63c0.94,0,1.88-0.28,2.11-2.01l0.12-0.87c-0.55,0.65-1.3,1.11-2.14,1.11c-1.7,0-2.59-1.21-2.59-3.03
		c0-2.28,1.2-5.13,4.45-5.13C74.04,30.2,75.03,30.41,76.1,30.97z M70.56,35.3c0,1.18,0.48,1.6,1.12,1.6c0.72,0,1.3-0.55,1.83-1.27
		l0.6-3.81c-0.38-0.15-0.66-0.21-1.09-0.21C71.24,31.61,70.56,33.65,70.56,35.3z"/>
	<path fill="#8B80A9" d="M86.82,31.15l-0.96,1.14c-0.46-0.42-0.9-0.57-1.46-0.57c-1.8,0-2.28,2.14-2.28,3.63
		c0,1.23,0.54,1.68,1.41,1.68c0.62,0,1.08-0.21,1.7-0.58l0.72,1.28c-0.79,0.55-1.65,0.87-2.62,0.87c-2.02,0-3.19-1.27-3.19-3.34
		c0-2.07,1.17-5.04,4.26-5.04C85.34,30.2,86.16,30.5,86.82,31.15z"/>
	<path fill="#8B80A9" d="M94.13,30.97l-0.79,5.32c-0.01,0.14-0.03,0.24-0.03,0.33c0,0.41,0.16,0.56,0.45,0.67l-0.54,1.26
		c-0.84-0.09-1.46-0.46-1.63-1.32c-0.58,0.79-1.37,1.35-2.35,1.35c-1.7,0-2.57-1.23-2.57-3.1c0-2.24,1.17-5.28,4.41-5.28
		C92.07,30.2,93.06,30.41,94.13,30.97z M88.64,35.48c0,1.2,0.43,1.65,1.12,1.65c0.69,0,1.23-0.51,1.77-1.26l0.6-4.05
		c-0.38-0.15-0.64-0.21-1.09-0.21C89.28,31.61,88.64,33.83,88.64,35.48z"/>
	<path fill="#8B80A9" d="M102.44,33.31c0,2.26-1.08,5.28-4.21,5.28c-0.62,0-1.06-0.1-1.47-0.24l-0.45,3.09l-1.89,0.22l1.58-11.23
		h1.65l-0.01,0.93c0.83-0.88,1.62-1.16,2.38-1.16C101.57,30.2,102.44,31.33,102.44,33.31z M97.56,32.66l-0.58,4.28
		c0.39,0.13,0.71,0.21,1.19,0.21c1.69,0,2.32-2.25,2.32-3.87c0-1.25-0.49-1.63-1.17-1.63C98.63,31.64,98.07,32.08,97.56,32.66z"/>
	<path fill="#8B80A9" d="M110.72,30.97l-0.79,5.32c-0.01,0.14-0.03,0.24-0.03,0.33c0,0.41,0.16,0.56,0.45,0.67l-0.54,1.26
		c-0.84-0.09-1.46-0.46-1.63-1.32c-0.58,0.79-1.37,1.35-2.35,1.35c-1.7,0-2.57-1.23-2.57-3.1c0-2.24,1.17-5.28,4.41-5.28
		C108.66,30.2,109.65,30.41,110.72,30.97z M105.23,35.48c0,1.2,0.43,1.65,1.12,1.65c0.69,0,1.23-0.51,1.77-1.26l0.6-4.05
		c-0.38-0.15-0.64-0.21-1.09-0.21C105.87,31.61,105.23,33.83,105.23,35.48z"/>
	<path fill="#8B80A9" d="M114.36,31.15c0.65-0.6,1.41-0.95,2.24-0.95c1.56,0,2.43,1.12,2.43,3.11c0,2.26-1.04,5.28-4.47,5.28
		c-1.04,0-1.93-0.19-3.04-0.6l1.51-10.74l1.91-0.21L114.36,31.15z M114.15,32.66l-0.58,4.28c0.39,0.13,0.71,0.21,1.17,0.21
		c1.71,0,2.33-2.25,2.33-3.87c0-1.25-0.5-1.63-1.16-1.63C115.22,31.64,114.66,32.09,114.15,32.66z"/>
	<path fill="#8B80A9" d="M121.68,38.36h-1.89l1.11-7.93h1.89L121.68,38.36z M123.44,27.64c-0.09,0.63-0.61,1.09-1.3,1.09
		c-0.72,0-1.16-0.54-1.06-1.21c0.09-0.64,0.61-1.11,1.3-1.11C123.11,26.41,123.53,26.95,123.44,27.64z"/>
	<path fill="#8B80A9" d="M125.66,36.47c-0.04,0.42,0.06,0.57,0.34,0.57c0.13,0,0.3-0.04,0.45-0.1l0.28,1.37
		c-0.42,0.19-0.88,0.28-1.32,0.28c-1.2,0-1.83-0.73-1.63-2.17l1.29-9.16l1.92-0.21L125.66,36.47z"/>
	<path fill="#8B80A9" d="M129.42,38.36h-1.89l1.11-7.93h1.89L129.42,38.36z M131.18,27.64c-0.09,0.63-0.61,1.09-1.3,1.09
		c-0.72,0-1.16-0.54-1.06-1.21c0.09-0.64,0.61-1.11,1.3-1.11C130.85,26.41,131.27,26.95,131.18,27.64z"/>
	<path fill="#8B80A9" d="M133.7,35.98c-0.12,0.78,0.08,1.05,0.62,1.05c0.31,0,0.63-0.09,1-0.3l0.54,1.29
		c-0.63,0.39-1.35,0.57-2.01,0.57c-1.57-0.01-2.28-0.94-2.04-2.62l0.58-4.15h-1.23l0.2-1.38h1.3l0.5-1.8l1.59-0.18l-0.29,1.98h1.83
		l-0.39,1.38h-1.62L133.7,35.98z"/>
	<path fill="#8B80A9" d="M138.35,38.36h-1.89l1.11-7.93h1.89L138.35,38.36z M140.1,27.64c-0.09,0.63-0.61,1.09-1.3,1.09
		c-0.72,0-1.16-0.54-1.06-1.21c0.09-0.64,0.61-1.11,1.3-1.11C139.77,26.41,140.19,26.95,140.1,27.64z"/>
	<path fill="#8B80A9" d="M142.19,35.44c0.03,1.25,0.66,1.67,1.53,1.67c0.72,0,1.35-0.23,2.07-0.74l0.73,1.2
		c-0.87,0.62-1.86,1.02-3.01,1.02c-2.16,0-3.27-1.29-3.27-3.3c0-2.16,1.12-5.08,4.32-5.08c1.82,0,2.75,0.98,2.75,2.1
		C147.3,34.54,144.8,35.18,142.19,35.44z M145.35,32.39c0-0.36-0.19-0.83-0.93-0.83c-1.35,0-1.95,1.33-2.16,2.62
		C144.39,33.98,145.35,33.38,145.35,32.39z"/>
	<path fill="#8B80A9" d="M154.01,31.21l-0.87,1.06c-0.58-0.42-1.25-0.64-1.91-0.64c-0.83,0-1.29,0.31-1.29,0.84
		c0,0.51,0.41,0.69,1.56,1.06c1.41,0.45,2.15,1.14,2.15,2.38c0,1.61-1.35,2.67-3.45,2.67c-1.39,0-2.47-0.55-3.12-1.23l0.99-1.05
		c0.55,0.5,1.28,0.84,2.17,0.84c1.08,0,1.49-0.54,1.49-1.02c0-0.63-0.36-0.84-1.62-1.26c-1.44-0.46-2.07-1.11-2.07-2.25
		c0-1.21,1.07-2.42,3.2-2.42C152.37,30.2,153.3,30.59,154.01,31.21z"/>
</g>
<ellipse fill="#FFFFFF" stroke="#3D2C70" stroke-width="2" stroke-miterlimit="10" cx="190.5" cy="234.35" rx="40.73" ry="27.82"/>
<g>
	<path fill="#3D2C70" d="M166.79,228.06v11.13h-2.1l-0.12-0.93c-0.45,0.66-1.18,1.19-2.26,1.19c-2.03,0-3.03-1.68-3.03-4.26
		c0-2.46,1.25-4.21,3.3-4.21c0.72,0,1.37,0.29,1.85,0.75v-3.92L166.79,228.06z M164.43,236.82v-3.45c-0.36-0.42-0.72-0.67-1.23-0.67
		c-0.85,0-1.46,0.72-1.46,2.5c0,1.98,0.54,2.5,1.32,2.5C163.62,237.71,164.05,237.41,164.43,236.82z"/>
	<path fill="#3D2C70" d="M175.67,237.86l-0.5,1.54c-0.93-0.08-1.54-0.36-1.92-1.14c-0.57,0.87-1.46,1.19-2.4,1.19
		c-1.59,0-2.6-1.04-2.6-2.49c0-1.74,1.32-2.68,3.74-2.68h0.81v-0.34c0-0.95-0.38-1.23-1.35-1.23c-0.51,0-1.29,0.15-2.08,0.42
		l-0.54-1.56c1-0.38,2.1-0.58,3-0.58c2.31,0,3.3,0.97,3.3,2.82v3.09C175.13,237.5,175.3,237.72,175.67,237.86z M172.81,237v-1.42
		h-0.58c-1.08,0-1.6,0.38-1.6,1.17c0,0.63,0.34,1,0.93,1C172.09,237.75,172.52,237.46,172.81,237z"/>
	<path fill="#3D2C70" d="M182.17,238.82c-0.6,0.42-1.44,0.63-2.16,0.63c-1.75-0.01-2.61-1-2.61-2.88v-3.69h-1.12v-1.65h1.12v-1.72
		l2.37-0.27v2h1.83l-0.25,1.65h-1.58v3.66c0,0.76,0.26,1.04,0.75,1.04c0.27,0,0.54-0.08,0.86-0.27L182.17,238.82z"/>
	<path fill="#3D2C70" d="M189.99,237.86l-0.5,1.54c-0.93-0.08-1.54-0.36-1.92-1.14c-0.57,0.87-1.46,1.19-2.4,1.19
		c-1.59,0-2.6-1.04-2.6-2.49c0-1.74,1.32-2.68,3.74-2.68h0.81v-0.34c0-0.95-0.38-1.23-1.35-1.23c-0.51,0-1.29,0.15-2.08,0.42
		l-0.54-1.56c1-0.38,2.1-0.58,3-0.58c2.31,0,3.3,0.97,3.3,2.82v3.09C189.45,237.5,189.61,237.72,189.99,237.86z M187.12,237v-1.42
		h-0.58c-1.08,0-1.6,0.38-1.6,1.17c0,0.63,0.34,1,0.93,1C186.4,237.75,186.83,237.46,187.12,237z"/>
	<path fill="#3D2C70" d="M202.66,235.19c0,2.46-1.2,4.26-3.17,4.26c-0.78,0-1.44-0.27-1.93-0.84v3.66l-2.37,0.26v-11.29h2.08
		l0.12,0.88c0.66-0.83,1.51-1.14,2.25-1.14C201.74,230.97,202.66,232.61,202.66,235.19z M200.2,235.22c0-1.98-0.48-2.5-1.3-2.5
		c-0.51,0-0.99,0.34-1.33,0.93V237c0.33,0.48,0.72,0.71,1.21,0.71C199.66,237.71,200.2,237,200.2,235.22z"/>
	<path fill="#3D2C70" d="M211.64,235.22c0,2.55-1.47,4.23-3.9,4.23c-2.42,0-3.9-1.56-3.9-4.25c0-2.55,1.47-4.23,3.9-4.23
		S211.64,232.53,211.64,235.22z M206.3,235.2c0,1.77,0.48,2.5,1.44,2.5s1.44-0.76,1.44-2.49c0-1.77-0.48-2.5-1.44-2.5
		S206.3,233.48,206.3,235.2z"/>
	<path fill="#3D2C70" d="M220.34,228.06v11.13h-2.1l-0.12-0.93c-0.45,0.66-1.18,1.19-2.26,1.19c-2.03,0-3.03-1.68-3.03-4.26
		c0-2.46,1.25-4.21,3.3-4.21c0.72,0,1.37,0.29,1.85,0.75v-3.92L220.34,228.06z M217.97,236.82v-3.45c-0.36-0.42-0.72-0.67-1.23-0.67
		c-0.85,0-1.46,0.72-1.46,2.5c0,1.98,0.54,2.5,1.32,2.5C217.16,237.71,217.6,237.41,217.97,236.82z"/>
</g>
<ellipse fill="#FFFFFF" stroke="#3D2C70" stroke-width="2" stroke-miterlimit="10" cx="511.4" cy="228.69" rx="40.73" ry="27.82"/>
<g>
	<path fill="#3D2C70" d="M487.69,222.4v11.13h-2.1l-0.12-0.93c-0.45,0.66-1.18,1.19-2.26,1.19c-2.03,0-3.03-1.68-3.03-4.26
		c0-2.46,1.25-4.21,3.3-4.21c0.72,0,1.37,0.29,1.85,0.75v-3.92L487.69,222.4z M485.32,231.16v-3.45c-0.36-0.42-0.72-0.67-1.23-0.67
		c-0.86,0-1.46,0.72-1.46,2.5c0,1.98,0.54,2.5,1.32,2.5C484.51,232.05,484.95,231.75,485.32,231.16z"/>
	<path fill="#3D2C70" d="M496.57,232.2l-0.49,1.54c-0.93-0.08-1.54-0.36-1.92-1.14c-0.57,0.87-1.46,1.19-2.4,1.19
		c-1.59,0-2.6-1.04-2.6-2.49c0-1.74,1.32-2.69,3.74-2.69h0.81v-0.34c0-0.95-0.38-1.23-1.35-1.23c-0.51,0-1.29,0.15-2.08,0.42
		l-0.54-1.56c1.01-0.38,2.1-0.58,3-0.58c2.31,0,3.3,0.97,3.3,2.82v3.09C496.03,231.84,496.2,232.06,496.57,232.2z M493.71,231.34
		v-1.42h-0.58c-1.08,0-1.61,0.38-1.61,1.17c0,0.63,0.35,1,0.93,1C492.99,232.09,493.42,231.81,493.71,231.34z"/>
	<path fill="#3D2C70" d="M503.07,233.16c-0.6,0.42-1.44,0.63-2.16,0.63c-1.76-0.02-2.61-1.01-2.61-2.88v-3.69h-1.12v-1.65h1.12
		v-1.72l2.37-0.27v1.99h1.83l-0.26,1.65h-1.57v3.66c0,0.76,0.26,1.04,0.75,1.04c0.27,0,0.54-0.08,0.86-0.27L503.07,233.16z"/>
	<path fill="#3D2C70" d="M510.88,232.2l-0.49,1.54c-0.93-0.08-1.54-0.36-1.92-1.14c-0.57,0.87-1.46,1.19-2.4,1.19
		c-1.59,0-2.6-1.04-2.6-2.49c0-1.74,1.32-2.69,3.74-2.69h0.81v-0.34c0-0.95-0.38-1.23-1.35-1.23c-0.51,0-1.29,0.15-2.08,0.42
		l-0.54-1.56c1.01-0.38,2.1-0.58,3-0.58c2.31,0,3.3,0.97,3.3,2.82v3.09C510.34,231.84,510.51,232.06,510.88,232.2z M508.02,231.34
		v-1.42h-0.58c-1.08,0-1.61,0.38-1.61,1.17c0,0.63,0.35,1,0.93,1C507.3,232.09,507.73,231.81,508.02,231.34z"/>
	<path fill="#3D2C70" d="M523.56,229.53c0,2.46-1.2,4.26-3.16,4.26c-0.78,0-1.44-0.27-1.94-0.84v3.66l-2.37,0.25v-11.29h2.08
		l0.12,0.89c0.66-0.83,1.51-1.14,2.25-1.14C522.64,225.31,523.56,226.95,523.56,229.53z M521.1,229.56c0-1.98-0.48-2.5-1.3-2.5
		c-0.51,0-0.99,0.34-1.34,0.93v3.36c0.33,0.48,0.72,0.71,1.21,0.71C520.56,232.05,521.1,231.34,521.1,229.56z"/>
	<path fill="#3D2C70" d="M532.54,229.56c0,2.55-1.47,4.23-3.9,4.23c-2.42,0-3.9-1.56-3.9-4.25c0-2.55,1.47-4.23,3.9-4.23
		S532.54,226.87,532.54,229.56z M527.2,229.54c0,1.77,0.48,2.5,1.44,2.5c0.96,0,1.44-0.77,1.44-2.49c0-1.77-0.48-2.5-1.44-2.5
		C527.68,227.05,527.2,227.82,527.2,229.54z"/>
	<path fill="#3D2C70" d="M541.24,222.4v11.13h-2.1l-0.12-0.93c-0.45,0.66-1.18,1.19-2.26,1.19c-2.03,0-3.03-1.68-3.03-4.26
		c0-2.46,1.25-4.21,3.3-4.21c0.72,0,1.37,0.29,1.85,0.75v-3.92L541.24,222.4z M538.87,231.16v-3.45c-0.36-0.42-0.72-0.67-1.23-0.67
		c-0.86,0-1.46,0.72-1.46,2.5c0,1.98,0.54,2.5,1.32,2.5C538.06,232.05,538.5,231.75,538.87,231.16z"/>
</g>
<ellipse fill="#FFFFFF" stroke="#3D2C70" stroke-width="2" stroke-miterlimit="10" cx="311.5" cy="28.82" rx="40.73" ry="27.82"/>
<g>
	<path fill="#3D2C70" d="M287.79,22.52v11.13h-2.1l-0.12-0.93c-0.45,0.66-1.18,1.19-2.26,1.19c-2.03,0-3.03-1.68-3.03-4.26
		c0-2.46,1.25-4.21,3.3-4.21c0.72,0,1.37,0.29,1.85,0.75v-3.92L287.79,22.52z M285.43,31.28v-3.45c-0.36-0.42-0.72-0.67-1.23-0.67
		c-0.85,0-1.46,0.72-1.46,2.5c0,1.98,0.54,2.5,1.32,2.5C284.61,32.17,285.05,31.87,285.43,31.28z"/>
	<path fill="#3D2C70" d="M296.67,32.32l-0.5,1.54c-0.93-0.08-1.54-0.36-1.92-1.14c-0.57,0.87-1.46,1.19-2.4,1.19
		c-1.59,0-2.6-1.03-2.6-2.49c0-1.74,1.32-2.69,3.74-2.69h0.81v-0.34c0-0.95-0.38-1.23-1.35-1.23c-0.51,0-1.29,0.15-2.08,0.42
		l-0.54-1.56c1-0.38,2.1-0.58,3-0.58c2.31,0,3.3,0.98,3.3,2.82v3.09C296.13,31.96,296.3,32.18,296.67,32.32z M293.81,31.46v-1.42
		h-0.58c-1.08,0-1.6,0.38-1.6,1.17c0,0.63,0.34,1,0.93,1C293.09,32.21,293.52,31.93,293.81,31.46z"/>
	<path fill="#3D2C70" d="M303.17,33.28c-0.6,0.42-1.44,0.63-2.16,0.63c-1.75-0.01-2.61-1-2.61-2.88v-3.69h-1.12v-1.65h1.12v-1.72
		l2.37-0.27v1.99h1.83l-0.25,1.65h-1.58V31c0,0.76,0.26,1.03,0.75,1.03c0.27,0,0.54-0.07,0.86-0.27L303.17,33.28z"/>
	<path fill="#3D2C70" d="M310.98,32.32l-0.5,1.54c-0.93-0.08-1.54-0.36-1.92-1.14c-0.57,0.87-1.46,1.19-2.4,1.19
		c-1.59,0-2.6-1.03-2.6-2.49c0-1.74,1.32-2.69,3.74-2.69h0.81v-0.34c0-0.95-0.38-1.23-1.35-1.23c-0.51,0-1.29,0.15-2.08,0.42
		l-0.54-1.56c1-0.38,2.1-0.58,3-0.58c2.31,0,3.3,0.98,3.3,2.82v3.09C310.44,31.96,310.61,32.18,310.98,32.32z M308.12,31.46v-1.42
		h-0.58c-1.08,0-1.6,0.38-1.6,1.17c0,0.63,0.34,1,0.93,1C307.4,32.21,307.83,31.93,308.12,31.46z"/>
	<path fill="#3D2C70" d="M323.66,29.65c0,2.46-1.2,4.26-3.16,4.26c-0.78,0-1.44-0.27-1.93-0.84v3.66l-2.37,0.26V25.69h2.08
		l0.12,0.89c0.66-0.83,1.51-1.14,2.25-1.14C322.74,25.43,323.66,27.07,323.66,29.65z M321.2,29.68c0-1.98-0.48-2.5-1.31-2.5
		c-0.51,0-0.99,0.34-1.33,0.93v3.36c0.33,0.48,0.72,0.71,1.21,0.71C320.66,32.17,321.2,31.46,321.2,29.68z"/>
	<path fill="#3D2C70" d="M332.64,29.68c0,2.55-1.47,4.23-3.9,4.23c-2.42,0-3.9-1.56-3.9-4.24c0-2.55,1.47-4.23,3.9-4.23
		S332.64,26.99,332.64,29.68z M327.3,29.66c0,1.77,0.48,2.5,1.44,2.5c0.96,0,1.44-0.77,1.44-2.49c0-1.77-0.48-2.5-1.44-2.5
		C327.78,27.17,327.3,27.94,327.3,29.66z"/>
	<path fill="#3D2C70" d="M341.34,22.52v11.13h-2.1l-0.12-0.93c-0.45,0.66-1.18,1.19-2.26,1.19c-2.03,0-3.03-1.68-3.03-4.26
		c0-2.46,1.25-4.21,3.3-4.21c0.72,0,1.37,0.29,1.85,0.75v-3.92L341.34,22.52z M338.97,31.28v-3.45c-0.36-0.42-0.72-0.67-1.23-0.67
		c-0.86,0-1.46,0.72-1.46,2.5c0,1.98,0.54,2.5,1.32,2.5C338.16,32.17,338.6,31.87,338.97,31.28z"/>
</g>
<ellipse fill="#FFFFFF" stroke="#3D2C70" stroke-width="2" stroke-miterlimit="10" cx="598.27" cy="128.83" rx="40.73" ry="27.82"/>
<g>
	<path fill="#3D2C70" d="M574.57,122.54v11.13h-2.1l-0.12-0.93c-0.45,0.66-1.18,1.18-2.26,1.18c-2.03,0-3.03-1.68-3.03-4.26
		c0-2.46,1.25-4.21,3.3-4.21c0.72,0,1.37,0.29,1.85,0.75v-3.91L574.57,122.54z M572.2,131.3v-3.45c-0.36-0.42-0.72-0.67-1.23-0.67
		c-0.85,0-1.46,0.72-1.46,2.5c0,1.98,0.54,2.5,1.32,2.5C571.39,132.18,571.82,131.88,572.2,131.3z"/>
	<path fill="#3D2C70" d="M583.45,132.33l-0.5,1.54c-0.93-0.07-1.54-0.36-1.92-1.14c-0.57,0.87-1.46,1.18-2.4,1.18
		c-1.59,0-2.6-1.03-2.6-2.49c0-1.74,1.32-2.68,3.74-2.68h0.81v-0.35c0-0.95-0.38-1.23-1.35-1.23c-0.51,0-1.29,0.15-2.08,0.42
		l-0.54-1.56c1-0.38,2.1-0.59,3-0.59c2.31,0,3.3,0.98,3.3,2.82v3.09C582.91,131.97,583.07,132.2,583.45,132.33z M580.58,131.48
		v-1.42H580c-1.08,0-1.6,0.38-1.6,1.17c0,0.63,0.34,1,0.93,1C579.86,132.23,580.3,131.94,580.58,131.48z"/>
	<path fill="#3D2C70" d="M589.94,133.29c-0.6,0.42-1.44,0.63-2.16,0.63c-1.75-0.01-2.61-1-2.61-2.88v-3.69h-1.12v-1.65h1.12v-1.72
		l2.37-0.27v2h1.83l-0.25,1.65h-1.58v3.66c0,0.76,0.26,1.03,0.75,1.03c0.27,0,0.54-0.07,0.86-0.27L589.94,133.29z"/>
	<path fill="#3D2C70" d="M597.76,132.33l-0.5,1.54c-0.93-0.07-1.54-0.36-1.92-1.14c-0.57,0.87-1.46,1.18-2.4,1.18
		c-1.59,0-2.6-1.03-2.6-2.49c0-1.74,1.32-2.68,3.74-2.68h0.81v-0.35c0-0.95-0.38-1.23-1.35-1.23c-0.51,0-1.29,0.15-2.08,0.42
		l-0.54-1.56c1-0.38,2.1-0.59,3-0.59c2.31,0,3.3,0.98,3.3,2.82v3.09C597.22,131.97,597.38,132.2,597.76,132.33z M594.89,131.48
		v-1.42h-0.58c-1.08,0-1.6,0.38-1.6,1.17c0,0.63,0.34,1,0.93,1C594.17,132.23,594.61,131.94,594.89,131.48z"/>
	<path fill="#3D2C70" d="M610.43,129.66c0,2.46-1.2,4.26-3.17,4.26c-0.78,0-1.44-0.27-1.93-0.84v3.66l-2.37,0.26V125.7h2.08
		l0.12,0.88c0.66-0.83,1.51-1.14,2.25-1.14C609.52,125.45,610.43,127.08,610.43,129.66z M607.97,129.69c0-1.98-0.48-2.51-1.3-2.51
		c-0.51,0-0.99,0.35-1.33,0.93v3.36c0.33,0.48,0.72,0.71,1.21,0.71C607.43,132.18,607.97,131.48,607.97,129.69z"/>
	<path fill="#3D2C70" d="M619.42,129.69c0,2.55-1.47,4.23-3.9,4.23c-2.42,0-3.9-1.56-3.9-4.24c0-2.55,1.47-4.23,3.9-4.23
		S619.42,127.01,619.42,129.69z M614.08,129.68c0,1.77,0.48,2.5,1.44,2.5s1.44-0.76,1.44-2.49c0-1.77-0.48-2.51-1.44-2.51
		S614.08,127.95,614.08,129.68z"/>
	<path fill="#3D2C70" d="M628.12,122.54v11.13h-2.1l-0.12-0.93c-0.45,0.66-1.18,1.18-2.26,1.18c-2.03,0-3.03-1.68-3.03-4.26
		c0-2.46,1.25-4.21,3.3-4.21c0.72,0,1.37,0.29,1.85,0.75v-3.91L628.12,122.54z M625.75,131.3v-3.45c-0.36-0.42-0.72-0.67-1.23-0.67
		c-0.85,0-1.46,0.72-1.46,2.5c0,1.98,0.54,2.5,1.32,2.5C624.94,132.18,625.37,131.88,625.75,131.3z"/>
</g>
<ellipse fill="#FFFFFF" stroke="#3D2C70" stroke-width="2" stroke-miterlimit="10" cx="519.56" cy="41.18" rx="40.73" ry="27.82"/>
<g>
	<path fill="#3D2C70" d="M495.86,34.89v11.13h-2.1l-0.12-0.93c-0.45,0.66-1.19,1.19-2.27,1.19c-2.03,0-3.03-1.68-3.03-4.26
		c0-2.46,1.24-4.21,3.3-4.21c0.72,0,1.37,0.29,1.85,0.75v-3.92L495.86,34.89z M493.49,43.65V40.2c-0.36-0.42-0.72-0.67-1.23-0.67
		c-0.85,0-1.46,0.72-1.46,2.5c0,1.98,0.54,2.5,1.32,2.5C492.68,44.53,493.11,44.23,493.49,43.65z"/>
	<path fill="#3D2C70" d="M504.74,44.68l-0.5,1.54c-0.93-0.08-1.54-0.36-1.92-1.14c-0.57,0.87-1.46,1.19-2.4,1.19
		c-1.59,0-2.6-1.03-2.6-2.49c0-1.74,1.32-2.69,3.73-2.69h0.81v-0.34c0-0.95-0.38-1.23-1.35-1.23c-0.51,0-1.29,0.15-2.09,0.42
		l-0.54-1.56c1-0.38,2.1-0.58,3-0.58c2.31,0,3.3,0.98,3.3,2.82v3.09C504.2,44.32,504.36,44.55,504.74,44.68z M501.87,43.83V42.4
		h-0.59c-1.08,0-1.6,0.38-1.6,1.17c0,0.63,0.34,1,0.93,1C501.15,44.58,501.59,44.29,501.87,43.83z"/>
	<path fill="#3D2C70" d="M511.23,45.64c-0.6,0.42-1.44,0.63-2.16,0.63c-1.75-0.01-2.61-1-2.61-2.88V39.7h-1.12v-1.65h1.12v-1.72
		l2.37-0.27v1.99h1.83l-0.25,1.65h-1.58v3.66c0,0.76,0.26,1.03,0.75,1.03c0.27,0,0.54-0.07,0.86-0.27L511.23,45.64z"/>
	<path fill="#3D2C70" d="M519.05,44.68l-0.5,1.54c-0.93-0.08-1.54-0.36-1.92-1.14c-0.57,0.87-1.46,1.19-2.4,1.19
		c-1.59,0-2.6-1.03-2.6-2.49c0-1.74,1.32-2.69,3.73-2.69h0.81v-0.34c0-0.95-0.38-1.23-1.35-1.23c-0.51,0-1.29,0.15-2.09,0.42
		l-0.54-1.56c1-0.38,2.1-0.58,3-0.58c2.31,0,3.3,0.98,3.3,2.82v3.09C518.51,44.32,518.67,44.55,519.05,44.68z M516.18,43.83V42.4
		h-0.59c-1.08,0-1.6,0.38-1.6,1.17c0,0.63,0.34,1,0.93,1C515.46,44.58,515.9,44.29,516.18,43.83z"/>
	<path fill="#3D2C70" d="M531.72,42.01c0,2.46-1.2,4.26-3.17,4.26c-0.78,0-1.44-0.27-1.93-0.84v3.66l-2.37,0.26V38.05h2.09
		l0.12,0.89c0.66-0.83,1.52-1.14,2.25-1.14C530.81,37.8,531.72,39.43,531.72,42.01z M529.26,42.04c0-1.98-0.48-2.5-1.3-2.5
		c-0.51,0-0.99,0.34-1.33,0.93v3.36c0.33,0.48,0.72,0.71,1.21,0.71C528.72,44.53,529.26,43.83,529.26,42.04z"/>
	<path fill="#3D2C70" d="M540.71,42.04c0,2.55-1.47,4.23-3.9,4.23c-2.41,0-3.9-1.56-3.9-4.24c0-2.55,1.47-4.23,3.9-4.23
		S540.71,39.36,540.71,42.04z M535.37,42.03c0,1.77,0.48,2.5,1.44,2.5c0.96,0,1.44-0.77,1.44-2.49c0-1.77-0.48-2.5-1.44-2.5
		C535.85,39.54,535.37,40.3,535.37,42.03z"/>
	<path fill="#3D2C70" d="M549.41,34.89v11.13h-2.1l-0.12-0.93c-0.45,0.66-1.19,1.19-2.27,1.19c-2.03,0-3.03-1.68-3.03-4.26
		c0-2.46,1.24-4.21,3.3-4.21c0.72,0,1.37,0.29,1.85,0.75v-3.92L549.41,34.89z M547.04,43.65V40.2c-0.36-0.42-0.72-0.67-1.23-0.67
		c-0.85,0-1.46,0.72-1.46,2.5c0,1.98,0.54,2.5,1.32,2.5C546.23,44.53,546.66,44.23,547.04,43.65z"/>
</g>
<ellipse fill="#FFFFFF" stroke="#3D2C70" stroke-width="2" stroke-miterlimit="10" cx="43.06" cy="164.03" rx="40.73" ry="27.82"/>
<g>
	<path fill="#3D2C70" d="M19.36,157.74v11.13h-2.1l-0.12-0.93c-0.45,0.66-1.18,1.19-2.26,1.19c-2.03,0-3.03-1.68-3.03-4.26
		c0-2.46,1.25-4.21,3.3-4.21c0.72,0,1.37,0.29,1.85,0.75v-3.92L19.36,157.74z M16.99,166.5v-3.45c-0.36-0.42-0.72-0.67-1.23-0.67
		c-0.85,0-1.46,0.72-1.46,2.5c0,1.98,0.54,2.5,1.32,2.5C16.18,167.38,16.61,167.08,16.99,166.5z"/>
	<path fill="#3D2C70" d="M28.24,167.53l-0.5,1.54c-0.93-0.08-1.54-0.36-1.92-1.14c-0.57,0.87-1.46,1.19-2.4,1.19
		c-1.59,0-2.6-1.04-2.6-2.49c0-1.74,1.32-2.69,3.74-2.69h0.81v-0.34c0-0.95-0.38-1.23-1.35-1.23c-0.51,0-1.29,0.15-2.08,0.42
		l-0.54-1.56c1-0.38,2.1-0.58,3-0.58c2.31,0,3.3,0.97,3.3,2.82v3.09C27.7,167.17,27.86,167.4,28.24,167.53z M25.37,166.68v-1.42
		h-0.58c-1.08,0-1.6,0.38-1.6,1.17c0,0.63,0.34,1,0.93,1C24.65,167.43,25.09,167.14,25.37,166.68z"/>
	<path fill="#3D2C70" d="M34.73,168.49c-0.6,0.42-1.44,0.63-2.16,0.63c-1.75-0.02-2.61-1.01-2.61-2.88v-3.69h-1.12v-1.65h1.12v-1.72
		l2.37-0.27v1.99h1.83l-0.25,1.65h-1.58v3.66c0,0.76,0.26,1.04,0.75,1.04c0.27,0,0.54-0.08,0.86-0.27L34.73,168.49z"/>
	<path fill="#3D2C70" d="M42.55,167.53l-0.5,1.54c-0.93-0.08-1.54-0.36-1.92-1.14c-0.57,0.87-1.46,1.19-2.4,1.19
		c-1.59,0-2.6-1.04-2.6-2.49c0-1.74,1.32-2.69,3.74-2.69h0.81v-0.34c0-0.95-0.38-1.23-1.35-1.23c-0.51,0-1.29,0.15-2.08,0.42
		l-0.54-1.56c1-0.38,2.1-0.58,3-0.58c2.31,0,3.3,0.97,3.3,2.82v3.09C42.01,167.17,42.17,167.4,42.55,167.53z M39.68,166.68v-1.42
		H39.1c-1.08,0-1.6,0.38-1.6,1.17c0,0.63,0.34,1,0.93,1C38.96,167.43,39.4,167.14,39.68,166.68z"/>
	<path fill="#3D2C70" d="M55.22,164.86c0,2.46-1.2,4.26-3.17,4.26c-0.78,0-1.44-0.27-1.93-0.84v3.66l-2.37,0.25V160.9h2.08
		l0.12,0.89c0.66-0.83,1.51-1.14,2.25-1.14C54.31,160.65,55.22,162.28,55.22,164.86z M52.76,164.89c0-1.98-0.48-2.5-1.3-2.5
		c-0.51,0-0.99,0.34-1.33,0.93v3.36c0.33,0.48,0.72,0.71,1.21,0.71C52.22,167.38,52.76,166.68,52.76,164.89z"/>
	<path fill="#3D2C70" d="M64.2,164.89c0,2.55-1.47,4.23-3.9,4.23c-2.42,0-3.9-1.56-3.9-4.25c0-2.55,1.47-4.23,3.9-4.23
		S64.2,162.21,64.2,164.89z M58.86,164.88c0,1.77,0.48,2.5,1.44,2.5s1.44-0.77,1.44-2.49c0-1.77-0.48-2.5-1.44-2.5
		S58.86,163.15,58.86,164.88z"/>
	<path fill="#3D2C70" d="M72.9,157.74v11.13h-2.1l-0.12-0.93c-0.45,0.66-1.18,1.19-2.26,1.19c-2.03,0-3.03-1.68-3.03-4.26
		c0-2.46,1.25-4.21,3.3-4.21c0.72,0,1.37,0.29,1.85,0.75v-3.92L72.9,157.74z M70.54,166.5v-3.45c-0.36-0.42-0.72-0.67-1.23-0.67
		c-0.85,0-1.46,0.72-1.46,2.5c0,1.98,0.54,2.5,1.32,2.5C69.73,167.38,70.16,167.08,70.54,166.5z"/>
</g>
<ellipse fill="#FFFFFF" stroke="#3D2C70" stroke-width="2" stroke-miterlimit="10" cx="151.73" cy="76.36" rx="40.73" ry="27.82"/>
<g>
	<path fill="#3D2C70" d="M128.03,70.07V81.2h-2.1l-0.12-0.93c-0.45,0.66-1.18,1.19-2.26,1.19c-2.03,0-3.03-1.68-3.03-4.26
		c0-2.46,1.25-4.21,3.3-4.21c0.72,0,1.37,0.29,1.85,0.75v-3.92L128.03,70.07z M125.66,78.83v-3.45c-0.36-0.42-0.72-0.67-1.23-0.67
		c-0.85,0-1.46,0.72-1.46,2.5c0,1.98,0.54,2.5,1.32,2.5C124.85,79.72,125.28,79.42,125.66,78.83z"/>
	<path fill="#3D2C70" d="M136.91,79.87l-0.5,1.54c-0.93-0.08-1.54-0.36-1.92-1.14c-0.57,0.87-1.46,1.19-2.4,1.19
		c-1.59,0-2.6-1.03-2.6-2.49c0-1.74,1.32-2.69,3.74-2.69h0.81v-0.34c0-0.95-0.38-1.23-1.35-1.23c-0.51,0-1.29,0.15-2.08,0.42
		l-0.54-1.56c1-0.38,2.1-0.58,3-0.58c2.31,0,3.3,0.98,3.3,2.82v3.09C136.37,79.51,136.53,79.73,136.91,79.87z M134.04,79.01v-1.42
		h-0.58c-1.08,0-1.6,0.38-1.6,1.17c0,0.63,0.34,1,0.93,1C133.32,79.76,133.76,79.48,134.04,79.01z"/>
	<path fill="#3D2C70" d="M143.4,80.83c-0.6,0.42-1.44,0.63-2.16,0.63c-1.75-0.01-2.61-1-2.61-2.88v-3.69h-1.12v-1.65h1.12v-1.72
		l2.37-0.27v1.99h1.83l-0.25,1.65H141v3.66c0,0.76,0.26,1.03,0.75,1.03c0.27,0,0.54-0.07,0.86-0.27L143.4,80.83z"/>
	<path fill="#3D2C70" d="M151.22,79.87l-0.5,1.54c-0.93-0.08-1.54-0.36-1.92-1.14c-0.57,0.87-1.46,1.19-2.4,1.19
		c-1.59,0-2.6-1.03-2.6-2.49c0-1.74,1.32-2.69,3.74-2.69h0.81v-0.34c0-0.95-0.38-1.23-1.35-1.23c-0.51,0-1.29,0.15-2.08,0.42
		l-0.54-1.56c1-0.38,2.1-0.58,3-0.58c2.31,0,3.3,0.98,3.3,2.82v3.09C150.68,79.51,150.84,79.73,151.22,79.87z M148.35,79.01v-1.42
		h-0.58c-1.08,0-1.6,0.38-1.6,1.17c0,0.63,0.34,1,0.93,1C147.63,79.76,148.07,79.48,148.35,79.01z"/>
	<path fill="#3D2C70" d="M163.89,77.2c0,2.46-1.2,4.26-3.17,4.26c-0.78,0-1.44-0.27-1.93-0.84v3.66l-2.37,0.26V73.24h2.08l0.12,0.89
		c0.66-0.83,1.51-1.14,2.25-1.14C162.98,72.98,163.89,74.62,163.89,77.2z M161.43,77.23c0-1.98-0.48-2.5-1.3-2.5
		c-0.51,0-0.99,0.34-1.33,0.93v3.36c0.33,0.48,0.72,0.71,1.21,0.71C160.89,79.72,161.43,79.01,161.43,77.23z"/>
	<path fill="#3D2C70" d="M172.88,77.23c0,2.55-1.47,4.23-3.9,4.23c-2.42,0-3.9-1.56-3.9-4.24c0-2.55,1.47-4.23,3.9-4.23
		S172.88,74.54,172.88,77.23z M167.54,77.21c0,1.77,0.48,2.5,1.44,2.5s1.44-0.77,1.44-2.49c0-1.77-0.48-2.5-1.44-2.5
		S167.54,75.49,167.54,77.21z"/>
	<path fill="#3D2C70" d="M181.58,70.07V81.2h-2.1l-0.12-0.93c-0.45,0.66-1.18,1.19-2.26,1.19c-2.03,0-3.03-1.68-3.03-4.26
		c0-2.46,1.25-4.21,3.3-4.21c0.72,0,1.37,0.29,1.85,0.75v-3.92L181.58,70.07z M179.21,78.83v-3.45c-0.36-0.42-0.72-0.67-1.23-0.67
		c-0.85,0-1.46,0.72-1.46,2.5c0,1.98,0.54,2.5,1.32,2.5C178.4,79.72,178.83,79.42,179.21,78.83z"/>
</g>
<rect x="192.33" y="116" fill="#FFFFFF" stroke="#3D2C70" stroke-width="2" stroke-miterlimit="10" width="43.33" height="34.67"/>
<rect x="250.17" y="116" fill="#FFFFFF" stroke="#3D2C70" stroke-width="2" stroke-miterlimit="10" width="43.33" height="34.67"/>
<rect x="308" y="116" fill="#FFFFFF" stroke="#3D2C70" stroke-width="2" stroke-miterlimit="10" width="43.33" height="34.67"/>
<rect x="365.83" y="116" fill="#FFFFFF" stroke="#3D2C70" stroke-width="2" stroke-miterlimit="10" width="43.33" height="34.67"/>
<rect x="423.67" y="116" fill="#FFFFFF" stroke="#3D2C70" stroke-width="2" stroke-miterlimit="10" width="43.33" height="34.67"/>
<g>
	<path fill="#1D1D1B" d="M120.44,275.44l-1.66,11.89h-2.48l0.02-1.15c-0.53,0.75-1.34,1.44-2.51,1.44c-1.82,0-2.67-1.3-2.67-3.44
		c0-2.35,1.09-5.67,4.21-5.67c0.7,0,1.34,0.29,1.78,0.75l0.58-4.11L120.44,275.44z M114,284.18c0,1.12,0.35,1.39,0.8,1.39
		c0.61,0,1.17-0.72,1.62-1.46l0.43-3.04c-0.27-0.35-0.54-0.51-0.99-0.51C114.4,280.56,114,282.84,114,284.18z"/>
	<path fill="#1D1D1B" d="M123.46,284.26c0.06,0.99,0.64,1.31,1.39,1.31c0.72,0,1.34-0.26,2.15-0.78l0.99,1.66
		c-0.94,0.67-2.11,1.17-3.51,1.17c-2.61,0-3.83-1.47-3.83-3.63c0-2.32,1.26-5.47,4.95-5.47c2.15,0,3.3,1.04,3.3,2.38
		C128.9,283.28,126.03,284.02,123.46,284.26z M126.08,281.08c0-0.4-0.18-0.72-0.77-0.72c-1.02,0-1.52,1.12-1.74,2.24
		C125.6,282.47,126.08,281.57,126.08,281.08z"/>
	<path fill="#1D1D1B" d="M137.12,279.65l-1.34,1.62c-0.46-0.43-0.91-0.59-1.44-0.59c-1.6,0-1.98,1.95-1.98,3.31
		c0,1.11,0.5,1.42,1.23,1.42c0.56,0,0.99-0.21,1.6-0.58l1.01,1.79c-0.85,0.62-1.81,0.99-2.99,0.99c-2.4,0-3.76-1.46-3.76-3.71
		c0-2.21,1.34-5.39,4.88-5.39C135.46,278.51,136.42,278.91,137.12,279.65z"/>
	<path fill="#1D1D1B" d="M139.76,284.26c0.06,0.99,0.64,1.31,1.39,1.31c0.72,0,1.34-0.26,2.15-0.78l0.99,1.66
		c-0.94,0.67-2.11,1.17-3.51,1.17c-2.61,0-3.83-1.47-3.83-3.63c0-2.32,1.26-5.47,4.95-5.47c2.15,0,3.3,1.04,3.3,2.38
		C145.2,283.28,142.34,284.02,139.76,284.26z M142.39,281.08c0-0.4-0.18-0.72-0.77-0.72c-1.02,0-1.52,1.12-1.74,2.24
		C141.91,282.47,142.39,281.57,142.39,281.08z"/>
	<path fill="#1D1D1B" d="M153.99,281.11l-0.86,6.23h-2.8l0.78-5.54c0.11-0.77-0.08-0.96-0.38-0.96c-0.51,0-1.06,0.74-1.63,1.94
		l-0.64,4.56h-2.8l1.18-8.53h2.43l-0.02,1.46c0.69-1.06,1.76-1.75,2.88-1.75C153.47,278.51,154.21,279.47,153.99,281.11z"/>
	<path fill="#1D1D1B" d="M159.71,285.12l0.72,1.86c-0.74,0.43-1.71,0.64-2.46,0.64c-1.98,0-2.77-1.15-2.48-3.28l0.51-3.58h-1.09
		l0.26-1.95h1.22l0.53-1.86l2.45-0.29l-0.3,2.14h1.9l-0.54,1.95h-1.62l-0.5,3.58c-0.13,0.82,0.08,1.04,0.51,1.04
		C159.1,285.38,159.39,285.3,159.71,285.12z"/>
	<path fill="#1D1D1B" d="M167.95,278.69l-0.78,2.75c-0.27-0.08-0.48-0.13-0.74-0.13c-1.04,0-1.55,1.01-1.98,2.26l-0.53,3.76h-2.8
		l1.18-8.53h2.43l-0.02,1.55c0.56-1.12,1.52-1.81,2.38-1.81C167.46,278.55,167.7,278.59,167.95,278.69z"/>
	<path fill="#1D1D1B" d="M176.15,279.46l-0.77,5.28c-0.02,0.14-0.03,0.26-0.03,0.37c0,0.37,0.13,0.53,0.42,0.64l-0.8,1.82
		c-0.98-0.06-1.82-0.5-2.11-1.41c-0.58,0.85-1.38,1.46-2.51,1.46c-1.87,0-2.82-1.33-2.82-3.42c0-2.46,1.31-5.68,4.99-5.68
		C173.68,278.51,174.98,278.79,176.15,279.46z M170.4,284.2c0,1.12,0.38,1.38,0.85,1.38c0.5,0,0.98-0.38,1.41-1.07l0.58-3.87
		c-0.29-0.1-0.5-0.13-0.82-0.13C170.91,280.5,170.4,282.61,170.4,284.2z"/>
	<path fill="#1D1D1B" d="M179.82,284.8c-0.06,0.46,0.08,0.58,0.32,0.58c0.11,0,0.24-0.03,0.37-0.06l0.29,1.98
		c-0.46,0.21-1.12,0.32-1.71,0.32c-1.54,0-2.32-0.91-2.08-2.62l1.34-9.56l2.83-0.29L179.82,284.8z"/>
	<path fill="#1D1D1B" d="M184.35,287.33h-2.8l1.18-8.53h2.8L184.35,287.33z M186.16,275.84c-0.11,0.85-0.86,1.5-1.79,1.5
		c-0.96,0-1.54-0.7-1.42-1.62c0.13-0.86,0.86-1.52,1.79-1.52C185.71,274.21,186.27,274.91,186.16,275.84z"/>
	<path fill="#1D1D1B" d="M193.23,280.8l-4.02,4.4h3.49l-0.54,2.13h-6.72l0.26-2l4.05-4.42h-3.09l0.3-2.11h6.53L193.23,280.8z"/>
	<path fill="#1D1D1B" d="M196.48,284.26c0.06,0.99,0.64,1.31,1.39,1.31c0.72,0,1.34-0.26,2.15-0.78l0.99,1.66
		c-0.94,0.67-2.11,1.17-3.51,1.17c-2.61,0-3.83-1.47-3.83-3.63c0-2.32,1.26-5.47,4.95-5.47c2.15,0,3.3,1.04,3.3,2.38
		C201.92,283.28,199.06,284.02,196.48,284.26z M199.1,281.08c0-0.4-0.18-0.72-0.77-0.72c-1.02,0-1.52,1.12-1.74,2.24
		C198.62,282.47,199.1,281.57,199.1,281.08z"/>
	<path fill="#1D1D1B" d="M211.84,275.44l-1.66,11.89h-2.48l0.02-1.15c-0.53,0.75-1.34,1.44-2.51,1.44c-1.82,0-2.67-1.3-2.67-3.44
		c0-2.35,1.09-5.67,4.21-5.67c0.7,0,1.34,0.29,1.78,0.75l0.58-4.11L211.84,275.44z M205.41,284.18c0,1.12,0.35,1.39,0.8,1.39
		c0.61,0,1.17-0.72,1.62-1.46l0.43-3.04c-0.27-0.35-0.54-0.51-0.99-0.51C205.81,280.56,205.41,282.84,205.41,284.18z"/>
	<path fill="#1D1D1B" d="M224.31,279.46l-0.77,5.28c-0.02,0.14-0.03,0.26-0.03,0.37c0,0.37,0.13,0.53,0.42,0.64l-0.8,1.82
		c-0.98-0.06-1.82-0.5-2.11-1.41c-0.58,0.85-1.38,1.46-2.51,1.46c-1.87,0-2.82-1.33-2.82-3.42c0-2.46,1.31-5.68,4.99-5.68
		C221.84,278.51,223.14,278.79,224.31,279.46z M218.56,284.2c0,1.12,0.38,1.38,0.85,1.38c0.5,0,0.98-0.38,1.41-1.07l0.58-3.87
		c-0.29-0.1-0.5-0.13-0.82-0.13C219.07,280.5,218.56,282.61,218.56,284.2z"/>
	<path fill="#1D1D1B" d="M227.98,284.8c-0.06,0.46,0.08,0.58,0.32,0.58c0.11,0,0.24-0.03,0.37-0.06l0.29,1.98
		c-0.46,0.21-1.12,0.32-1.71,0.32c-1.54,0-2.32-0.91-2.08-2.62l1.34-9.56l2.83-0.29L227.98,284.8z"/>
	<path fill="#1D1D1B" d="M238.32,279.46l-1.01,7.09c-0.45,3.07-1.78,4.39-4.67,4.39c-1.06,0-2.32-0.37-3.27-0.98l0.91-1.82
		c0.88,0.48,1.65,0.67,2.34,0.67c0.86,0,1.68-0.26,1.9-1.78l0.13-0.75c-0.54,0.62-1.3,1.06-2.21,1.06c-1.86,0-2.82-1.36-2.82-3.35
		c0-2.3,1.31-5.47,5.06-5.47C235.86,278.51,237.15,278.79,238.32,279.46z M232.51,283.91c0,1.07,0.43,1.33,0.88,1.33
		c0.53,0,1.02-0.42,1.47-1.04l0.54-3.57c-0.29-0.1-0.5-0.13-0.8-0.13C233.02,280.5,232.51,282.56,232.51,283.91z"/>
	<path fill="#1D1D1B" d="M247.54,282.16c-0.02,2.45-1.2,5.46-4.87,5.46c-2.31,0-3.65-1.36-3.65-3.65c0-2.46,1.2-5.46,4.85-5.46
		C246.19,278.51,247.55,279.92,247.54,282.16z M241.89,284.13c0,1.02,0.32,1.42,1.01,1.42c1.52,0,1.76-2.35,1.78-3.55
		c0.02-1.01-0.32-1.42-1.01-1.42C242.14,280.58,241.89,282.93,241.89,284.13z"/>
	<path fill="#1D1D1B" d="M255.09,278.69l-0.78,2.75c-0.27-0.08-0.48-0.13-0.74-0.13c-1.04,0-1.55,1.01-1.98,2.26l-0.53,3.76h-2.8
		l1.18-8.53h2.43l-0.02,1.55c0.56-1.12,1.52-1.81,2.38-1.81C254.59,278.55,254.83,278.59,255.09,278.69z"/>
	<path fill="#1D1D1B" d="M257.55,287.33h-2.8l1.18-8.53h2.8L257.55,287.33z M259.36,275.84c-0.11,0.85-0.86,1.5-1.79,1.5
		c-0.96,0-1.54-0.7-1.42-1.62c0.13-0.86,0.86-1.52,1.79-1.52C258.91,274.21,259.47,274.91,259.36,275.84z"/>
	<path fill="#1D1D1B" d="M264.22,285.12l0.72,1.86c-0.74,0.43-1.71,0.64-2.46,0.64c-1.98,0-2.77-1.15-2.48-3.28l0.51-3.58h-1.09
		l0.26-1.95h1.22l0.53-1.86l2.45-0.29l-0.3,2.14h1.9l-0.54,1.95h-1.62l-0.5,3.58c-0.13,0.82,0.08,1.04,0.51,1.04
		C263.62,285.38,263.9,285.3,264.22,285.12z"/>
	<path fill="#1D1D1B" d="M273.97,281.11l-0.88,6.23h-2.8l0.78-5.54c0.11-0.77-0.08-0.96-0.37-0.96c-0.53,0-1.06,0.74-1.65,1.94
		l-0.64,4.56h-2.8l1.67-11.89l2.83-0.29l-0.7,5.03c0.58-0.99,1.6-1.67,2.69-1.67C273.44,278.51,274.19,279.47,273.97,281.11z"/>
	<path fill="#1D1D1B" d="M287.35,281.09l-0.88,6.24h-2.79l0.78-5.54c0.11-0.78-0.08-0.96-0.35-0.96c-0.48,0-0.96,0.69-1.42,1.81
		l-0.66,4.69h-2.8l0.78-5.54c0.11-0.78-0.1-0.96-0.38-0.96c-0.43,0-0.96,0.72-1.39,1.9l-0.64,4.59h-2.8l1.18-8.53h2.43l-0.02,1.33
		c0.66-1.01,1.6-1.62,2.62-1.62c1.01,0,1.7,0.54,1.87,1.52c0.66-0.93,1.63-1.52,2.58-1.52
		C286.82,278.51,287.57,279.47,287.35,281.09z"/>
	<path fill="#1D1D1B" d="M295.52,279.62l-1.2,1.52c-0.61-0.4-1.34-0.62-1.98-0.62c-0.67,0-0.96,0.22-0.96,0.56
		c0,0.37,0.27,0.48,1.62,0.93c1.39,0.46,2.16,1.25,2.16,2.59c0,1.49-1.02,3.03-3.91,3.03c-1.52,0-2.9-0.59-3.65-1.44l1.38-1.46
		c0.56,0.5,1.31,0.9,2.29,0.9c0.69,0,1.12-0.26,1.12-0.69c0-0.45-0.3-0.59-1.65-1.06c-1.42-0.5-2.14-1.23-2.14-2.53
		c0-1.54,1.33-2.83,3.73-2.83C293.62,278.51,294.74,278.96,295.52,279.62z"/>
	<path fill="#1D1D1B" d="M308.22,282.16c-0.02,2.45-1.2,5.46-4.87,5.46c-2.3,0-3.65-1.36-3.65-3.65c0-2.46,1.2-5.46,4.85-5.46
		C306.88,278.51,308.24,279.92,308.22,282.16z M302.57,284.13c0,1.02,0.32,1.42,1.01,1.42c1.52,0,1.76-2.35,1.78-3.55
		c0.02-1.01-0.32-1.42-1.01-1.42C302.83,280.58,302.57,282.93,302.57,284.13z"/>
	<path fill="#1D1D1B" d="M317.28,281.11l-0.86,6.23h-2.8l0.78-5.54c0.11-0.77-0.08-0.96-0.38-0.96c-0.51,0-1.06,0.74-1.63,1.94
		l-0.64,4.56h-2.8l1.18-8.53h2.43l-0.02,1.46c0.69-1.06,1.76-1.75,2.88-1.75C316.77,278.51,317.5,279.47,317.28,281.11z"/>
	<path fill="#1D1D1B" d="M331.25,275.44l-1.67,11.89h-2.48l0.02-1.15c-0.53,0.75-1.34,1.44-2.51,1.44c-1.83,0-2.67-1.3-2.67-3.44
		c0-2.35,1.09-5.67,4.21-5.67c0.7,0,1.34,0.29,1.78,0.75l0.58-4.11L331.25,275.44z M324.81,284.18c0,1.12,0.35,1.39,0.8,1.39
		c0.61,0,1.17-0.72,1.62-1.46l0.43-3.04c-0.27-0.35-0.54-0.51-0.99-0.51C325.21,280.56,324.81,282.84,324.81,284.18z"/>
	<path fill="#1D1D1B" d="M334.27,284.26c0.06,0.99,0.64,1.31,1.39,1.31c0.72,0,1.34-0.26,2.15-0.78l0.99,1.66
		c-0.94,0.67-2.11,1.17-3.51,1.17c-2.61,0-3.83-1.47-3.83-3.63c0-2.32,1.26-5.47,4.95-5.47c2.14,0,3.3,1.04,3.3,2.38
		C339.71,283.28,336.85,284.02,334.27,284.26z M336.89,281.08c0-0.4-0.18-0.72-0.77-0.72c-1.02,0-1.52,1.12-1.74,2.24
		C336.42,282.47,336.89,281.57,336.89,281.08z"/>
	<path fill="#1D1D1B" d="M347.94,279.65l-1.34,1.62c-0.46-0.43-0.91-0.59-1.44-0.59c-1.6,0-1.98,1.95-1.98,3.31
		c0,1.11,0.5,1.42,1.23,1.42c0.56,0,0.99-0.21,1.6-0.58l1.01,1.79c-0.85,0.62-1.81,0.99-2.99,0.99c-2.4,0-3.76-1.46-3.76-3.71
		c0-2.21,1.34-5.39,4.88-5.39C346.27,278.51,347.23,278.91,347.94,279.65z"/>
	<path fill="#1D1D1B" d="M350.57,284.26c0.06,0.99,0.64,1.31,1.39,1.31c0.72,0,1.34-0.26,2.14-0.78l0.99,1.66
		c-0.94,0.67-2.11,1.17-3.51,1.17c-2.61,0-3.83-1.47-3.83-3.63c0-2.32,1.26-5.47,4.95-5.47c2.14,0,3.3,1.04,3.3,2.38
		C356.02,283.28,353.15,284.02,350.57,284.26z M353.2,281.08c0-0.4-0.18-0.72-0.77-0.72c-1.02,0-1.52,1.12-1.74,2.24
		C352.72,282.47,353.2,281.57,353.2,281.08z"/>
	<path fill="#1D1D1B" d="M364.8,281.11l-0.86,6.23h-2.8l0.78-5.54c0.11-0.77-0.08-0.96-0.38-0.96c-0.51,0-1.06,0.74-1.63,1.94
		l-0.64,4.56h-2.8l1.18-8.53h2.43l-0.02,1.46c0.69-1.06,1.76-1.75,2.88-1.75C364.29,278.51,365.02,279.47,364.8,281.11z"/>
	<path fill="#1D1D1B" d="M370.53,285.12l0.72,1.86c-0.74,0.43-1.71,0.64-2.46,0.64c-1.98,0-2.77-1.15-2.48-3.28l0.51-3.58h-1.09
		l0.26-1.95h1.22l0.53-1.86l2.45-0.29l-0.3,2.14h1.9l-0.54,1.95h-1.62l-0.5,3.58c-0.13,0.82,0.08,1.04,0.51,1.04
		C369.92,285.38,370.21,285.3,370.53,285.12z"/>
	<path fill="#1D1D1B" d="M378.77,278.69l-0.78,2.75c-0.27-0.08-0.48-0.13-0.74-0.13c-1.04,0-1.55,1.01-1.98,2.26l-0.53,3.76h-2.8
		l1.18-8.53h2.43l-0.02,1.55c0.56-1.12,1.52-1.81,2.39-1.81C378.27,278.55,378.51,278.59,378.77,278.69z"/>
	<path fill="#1D1D1B" d="M386.96,279.46l-0.77,5.28c-0.02,0.14-0.03,0.26-0.03,0.37c0,0.37,0.13,0.53,0.42,0.64l-0.8,1.82
		c-0.98-0.06-1.83-0.5-2.11-1.41c-0.58,0.85-1.38,1.46-2.51,1.46c-1.87,0-2.82-1.33-2.82-3.42c0-2.46,1.31-5.68,4.99-5.68
		C384.49,278.51,385.79,278.79,386.96,279.46z M381.21,284.2c0,1.12,0.38,1.38,0.85,1.38c0.5,0,0.98-0.38,1.41-1.07l0.58-3.87
		c-0.29-0.1-0.5-0.13-0.82-0.13C381.73,280.5,381.21,282.61,381.21,284.2z"/>
	<path fill="#1D1D1B" d="M390.64,284.8c-0.06,0.46,0.08,0.58,0.32,0.58c0.11,0,0.24-0.03,0.37-0.06l0.29,1.98
		c-0.46,0.21-1.12,0.32-1.71,0.32c-1.54,0-2.32-0.91-2.08-2.62l1.34-9.56l2.83-0.29L390.64,284.8z"/>
	<path fill="#1D1D1B" d="M395.17,287.33h-2.8l1.18-8.53h2.8L395.17,287.33z M396.97,275.84c-0.11,0.85-0.86,1.5-1.79,1.5
		c-0.96,0-1.54-0.7-1.42-1.62c0.13-0.86,0.87-1.52,1.79-1.52C396.53,274.21,397.09,274.91,396.97,275.84z"/>
	<path fill="#1D1D1B" d="M404.05,280.8l-4.02,4.4h3.49l-0.54,2.13h-6.72l0.26-2l4.05-4.42h-3.09l0.3-2.11h6.53L404.05,280.8z"/>
	<path fill="#1D1D1B" d="M407.29,284.26c0.06,0.99,0.64,1.31,1.39,1.31c0.72,0,1.34-0.26,2.14-0.78l0.99,1.66
		c-0.94,0.67-2.11,1.17-3.51,1.17c-2.61,0-3.83-1.47-3.83-3.63c0-2.32,1.26-5.47,4.95-5.47c2.14,0,3.3,1.04,3.3,2.38
		C412.73,283.28,409.87,284.02,407.29,284.26z M409.92,281.08c0-0.4-0.18-0.72-0.77-0.72c-1.02,0-1.52,1.12-1.74,2.24
		C409.44,282.47,409.92,281.57,409.92,281.08z"/>
	<path fill="#1D1D1B" d="M422.66,275.44l-1.67,11.89h-2.48l0.02-1.15c-0.53,0.75-1.34,1.44-2.51,1.44c-1.83,0-2.67-1.3-2.67-3.44
		c0-2.35,1.09-5.67,4.21-5.67c0.7,0,1.34,0.29,1.78,0.75l0.58-4.11L422.66,275.44z M416.22,284.18c0,1.12,0.35,1.39,0.8,1.39
		c0.61,0,1.17-0.72,1.62-1.46l0.43-3.04c-0.27-0.35-0.54-0.51-0.99-0.51C416.62,280.56,416.22,282.84,416.22,284.18z"/>
	<path fill="#1D1D1B" d="M429.23,287.33h-2.8l1.18-8.53h2.8L429.23,287.33z M431.04,275.84c-0.11,0.85-0.86,1.5-1.79,1.5
		c-0.96,0-1.54-0.7-1.42-1.62c0.13-0.86,0.87-1.52,1.79-1.52C430.59,274.21,431.15,274.91,431.04,275.84z"/>
	<path fill="#1D1D1B" d="M439.36,281.11l-0.86,6.23h-2.8l0.78-5.54c0.11-0.77-0.08-0.96-0.38-0.96c-0.51,0-1.06,0.74-1.63,1.94
		l-0.64,4.56h-2.8l1.18-8.53h2.43l-0.02,1.46c0.69-1.06,1.76-1.75,2.88-1.75C438.85,278.51,439.58,279.47,439.36,281.11z"/>
	<path fill="#1D1D1B" d="M444.6,278.34l-0.06,0.46h1.97l-0.58,1.95h-1.66l-0.77,5.51c-0.4,2.9-2.1,3.95-4.21,4.66l-0.69-2.03
		c1.23-0.45,1.89-1.02,2.1-2.5l0.77-5.63h-1.18l0.26-1.95h1.2l0.1-0.64c0.22-1.7,1.49-3.01,3.68-3.01c1.07,0,1.92,0.34,2.48,0.72
		l-0.96,1.68c-0.43-0.26-0.91-0.34-1.26-0.34C445.1,277.22,444.72,277.54,444.6,278.34z"/>
	<path fill="#1D1D1B" d="M452.83,278.69l-0.78,2.75c-0.27-0.08-0.48-0.13-0.74-0.13c-1.04,0-1.55,1.01-1.98,2.26l-0.53,3.76h-2.8
		l1.18-8.53h2.43l-0.02,1.55c0.56-1.12,1.52-1.81,2.39-1.81C452.33,278.55,452.57,278.59,452.83,278.69z"/>
	<path fill="#1D1D1B" d="M461.02,279.46l-0.77,5.28c-0.02,0.14-0.03,0.26-0.03,0.37c0,0.37,0.13,0.53,0.42,0.64l-0.8,1.82
		c-0.98-0.06-1.83-0.5-2.11-1.41c-0.58,0.85-1.38,1.46-2.51,1.46c-1.87,0-2.82-1.33-2.82-3.42c0-2.46,1.31-5.68,4.99-5.68
		C458.56,278.51,459.85,278.79,461.02,279.46z M455.28,284.2c0,1.12,0.38,1.38,0.85,1.38c0.5,0,0.98-0.38,1.41-1.07l0.58-3.87
		c-0.29-0.1-0.5-0.13-0.82-0.13C455.79,280.5,455.28,282.61,455.28,284.2z"/>
	<path fill="#1D1D1B" d="M469.01,279.62l-1.2,1.52c-0.61-0.4-1.34-0.62-1.98-0.62c-0.67,0-0.96,0.22-0.96,0.56
		c0,0.37,0.27,0.48,1.62,0.93c1.39,0.46,2.16,1.25,2.16,2.59c0,1.49-1.02,3.03-3.91,3.03c-1.52,0-2.9-0.59-3.65-1.44l1.38-1.46
		c0.56,0.5,1.31,0.9,2.29,0.9c0.69,0,1.12-0.26,1.12-0.69c0-0.45-0.3-0.59-1.65-1.06c-1.42-0.5-2.14-1.23-2.14-2.53
		c0-1.54,1.33-2.83,3.73-2.83C467.1,278.51,468.22,278.96,469.01,279.62z"/>
	<path fill="#1D1D1B" d="M474.33,285.12l0.72,1.86c-0.74,0.43-1.71,0.64-2.46,0.64c-1.98,0-2.77-1.15-2.48-3.28l0.51-3.58h-1.09
		l0.26-1.95H471l0.53-1.86l2.45-0.29l-0.3,2.14h1.9l-0.54,1.95h-1.62l-0.5,3.58c-0.13,0.82,0.08,1.04,0.51,1.04
		C473.72,285.38,474.01,285.3,474.33,285.12z"/>
	<path fill="#1D1D1B" d="M482.57,278.69l-0.78,2.75c-0.27-0.08-0.48-0.13-0.74-0.13c-1.04,0-1.55,1.01-1.98,2.26l-0.53,3.76h-2.8
		l1.18-8.53h2.43l-0.02,1.55c0.56-1.12,1.52-1.81,2.39-1.81C482.08,278.55,482.32,278.59,482.57,278.69z"/>
	<path fill="#1D1D1B" d="M489.53,287.33h-2.43l0.05-1.17c-0.72,0.88-1.6,1.46-2.66,1.46c-1.63,0-2.24-1.07-2.02-2.71l0.86-6.11h2.8
		l-0.77,5.6c-0.11,0.77,0.08,0.96,0.45,0.96c0.46,0,0.94-0.53,1.36-1.2l0.75-5.36h2.78L489.53,287.33z"/>
	<path fill="#1D1D1B" d="M499.1,279.65l-1.34,1.62c-0.46-0.43-0.91-0.59-1.44-0.59c-1.6,0-1.98,1.95-1.98,3.31
		c0,1.11,0.5,1.42,1.23,1.42c0.56,0,0.99-0.21,1.6-0.58l1.01,1.79c-0.85,0.62-1.81,0.99-2.99,0.99c-2.4,0-3.76-1.46-3.76-3.71
		c0-2.21,1.34-5.39,4.88-5.39C497.44,278.51,498.4,278.91,499.1,279.65z"/>
	<path fill="#1D1D1B" d="M503.88,285.12l0.72,1.86c-0.74,0.43-1.71,0.64-2.46,0.64c-1.98,0-2.77-1.15-2.48-3.28l0.51-3.58h-1.09
		l0.26-1.95h1.22l0.53-1.86l2.45-0.29l-0.3,2.14h1.9l-0.54,1.95h-1.62l-0.5,3.58c-0.13,0.82,0.08,1.04,0.51,1.04
		C503.28,285.38,503.56,285.3,503.88,285.12z"/>
	<path fill="#1D1D1B" d="M512.59,287.33h-2.43l0.05-1.17c-0.72,0.88-1.6,1.46-2.66,1.46c-1.63,0-2.24-1.07-2.02-2.71l0.86-6.11h2.8
		l-0.77,5.6c-0.11,0.77,0.08,0.96,0.45,0.96c0.46,0,0.94-0.53,1.36-1.2l0.75-5.36h2.78L512.59,287.33z"/>
	<path fill="#1D1D1B" d="M521.21,278.69l-0.78,2.75c-0.27-0.08-0.48-0.13-0.74-0.13c-1.04,0-1.55,1.01-1.98,2.26l-0.53,3.76h-2.8
		l1.18-8.53H518l-0.02,1.55c0.56-1.12,1.52-1.81,2.39-1.81C520.72,278.55,520.96,278.59,521.21,278.69z"/>
	<path fill="#1D1D1B" d="M523.61,284.26c0.06,0.99,0.64,1.31,1.39,1.31c0.72,0,1.34-0.26,2.15-0.78l0.99,1.66
		c-0.94,0.67-2.11,1.17-3.51,1.17c-2.61,0-3.83-1.47-3.83-3.63c0-2.32,1.26-5.47,4.95-5.47c2.14,0,3.3,1.04,3.3,2.38
		C529.05,283.28,526.19,284.02,523.61,284.26z M526.24,281.08c0-0.4-0.18-0.72-0.77-0.72c-1.02,0-1.52,1.12-1.74,2.24
		C525.76,282.47,526.24,281.57,526.24,281.08z"/>
</g>
</svg>
