<?xml version="1.0" encoding="utf-8"?>
<!DOCTYPE svg PUBLIC "-//W3C//DTD SVG 1.1//EN" "http://www.w3.org/Graphics/SVG/1.1/DTD/svg11.dtd">
<svg version="1.1" xmlns="http://www.w3.org/2000/svg" width="640" height="300">
<g>
  <path fill="none" stroke="#3D2C70" stroke-width="3" stroke-miterlimit="10" d="M228.67,226c0,0-55.17-155.18,204.14-157.96"/>
  <polygon fill="#3D2C70" points="431.46,73.07 439.91,67.97 431.27,63.2"/>
</g>
<circle fill="#3D2C70" cx="58.33" cy="55.67" r="27.33"/>
<circle fill="#3D2C70" cx="30" cy="271.67" r="27.33"/>
<circle fill="#3D2C70" cx="136.58" cy="129.67" r="27.33"/>
<circle fill="#D76016" cx="228.67" cy="250.81" r="27.33"/>
<circle fill="#3D2C70" cx="545.91" cy="239" r="27.33"/>
<circle fill="#3D2C70" cx="297.25" cy="31.67" r="27.33"/>
<circle fill="#3D2C70" cx="382.58" cy="184.33" r="27.33"/>
<circle fill="#3D2C70" cx="467.25" cy="68" r="27.33"/>
<circle fill="#3D2C70" cx="607.91" cy="122.67" r="27.33"/>
<rect x="256" y="80" fill="#B1ABC6" width="42.43" height="60"/>
<path fill="#D76016" d="M302.33,148.28l-0.01-20.13c4.64-1.21,6.02-4.49,6.02-8.2c0-4.75-3.49-8.48-10.17-8.48c-6.68,0-9.65,3.67-9.65,8.42c0,3.78,0.98,7.17,5.75,8.33v3.03l2.92,2.41v0.59l-2.07,1.07v2.56l1.73,1.42v0.47l-1.97,1.14v2.09l1.35,1.36v0.8l-1.56,1.56v0.96l3.91,3.91 M302.71,117.02c0,1.52-2.17,2.51-4.54,2.51s-4.3-1.23-4.3-2.76s1.92-2.76,4.3-2.76S302.71,115.49,302.71,117.02z"/>
</svg>
