<?xml version="1.0" encoding="utf-8"?>
<!DOCTYPE svg PUBLIC "-//W3C//DTD SVG 1.1//EN" "http://www.w3.org/Graphics/SVG/1.1/DTD/svg11.dtd">
<svg version="1.1" xmlns="http://www.w3.org/2000/svg" xmlns:xlink="http://www.w3.org/1999/xlink" width="640" height="300">
<style>
text {
  font-family: "Open Sans", "Helvetica Neue", Helvetica, Arial, sans-serif;
  font-style: italic;
  font-size: 16px;
}
</style>

<text x="262" y="256.5">$357.45</text>
<line fill="none" stroke="#3D2C70" stroke-width="2" stroke-miterlimit="10" x1="326" y1="249.81" x2="261" y2="249.81"/>
<text x="262" y="274">$336.00</text>
<text x="500.5" y="72.5">$218.34</text>

<g>
<path fill="none" stroke="#3D2C70" stroke-width="3" stroke-miterlimit="10" d="M228.67,226c0,0-55.17-155.18,204.14-157.96"/>
<polygon fill="#3D2C70" points="431.46,73.07 439.91,67.97 431.27,63.2"/>
</g>

<symbol id="transfer" viewBox="-35.95 -20.05 71.91 40.1">
	<polygon fill="#D8D5E2" points="26.05,-15.95 -35.95,-15.95 -35.95,9.55 26.05,9.55 	"/>
	<text transform="matrix(1 0 0 -1 -29.4546 -9.1973)" font-family="'OpenSans-Italic'" font-size="16">$21.45</text>
	<path  fill="#D76016" d="M29.94-16.76L29.93,3.37c4.64,1.21,6.02,4.49,6.02,8.2c0,4.75-3.49,8.48-10.17,8.48c-6.68,0-9.65-3.67-9.65-8.42c0-3.78,0.98-7.17,5.75-8.33V0.28l2.92-2.41v-0.59l-2.07-1.07v-2.56l1.73-1.42v-0.47L22.5-9.38v-2.09l1.35-1.36v-0.8l-1.56-1.56v-0.96l3.91-3.91 M30.33,14.5c0-1.52-2.17-2.51-4.54-2.51s-4.3,1.23-4.3,2.76s1.92,2.76,4.3,2.76S30.33,16.02,30.33,14.5z"/>
</symbol>

<use xlink:href="#transfer"  width="75" height="40.1" x="-35.95" y="-20.05" transform="matrix(1 0 0 -1 283.5542 111.4395)"/>

<circle fill="#3D2C70" cx="58.33" cy="55.67" r="27.33"/>
<circle fill="#3D2C70" cx="30" cy="271.67" r="27.33"/>
<circle fill="#3D2C70" cx="136.58" cy="129.67" r="27.33"/>
<circle fill="#D76016" cx="228.67" cy="250.81" r="27.33"/>
<circle fill="#3D2C70" cx="545.91" cy="239" r="27.33"/>
<circle fill="#3D2C70" cx="297.25" cy="31.67" r="27.33"/>
<circle fill="#3D2C70" cx="382.58" cy="184.33" r="27.33"/>
<circle fill="#3D2C70" cx="467.25" cy="68" r="27.33"/>
<circle fill="#3D2C70" cx="607.91" cy="122.67" r="27.33"/>
</svg>
