<?xml version="1.0" encoding="utf-8"?>
<!DOCTYPE svg PUBLIC "-//W3C//DTD SVG 1.1//EN" "http://www.w3.org/Graphics/SVG/1.1/DTD/svg11.dtd">
<svg version="1.1" xmlns="http://www.w3.org/2000/svg" xmlns:xlink="http://www.w3.org/1999/xlink" width="640" height="300">
<style>
text {
  font-family: "Open Sans", "Helvetica Neue", Helvetica, Arial, sans-serif;
  font-style: italic;
  font-size: 16px;
}
</style>

<g>
<path fill="none" stroke="#3D2C70" stroke-width="3" stroke-miterlimit="10" d="M228.67,226c0,0-55.17-155.18,204.14-157.96"/>
<polygon fill="#3D2C70" points="431.46,73.07 439.91,67.97 431.27,63.2"/>
</g>

<text x="262" y="256.5">$357.45</text>
<line fill="none" stroke="#3D2C70" stroke-width="2" stroke-miterlimit="10" x1="326" y1="249.81" x2="261" y2="249.81"/>
<text x="262" y="274">$336.00</text>
<text x="500.5" y="72.5">$218.34</text>

<symbol id="transfer" viewBox="-35.95 -20.05 71.91 40.1">
	<polygon fill="#D8D5E2" points="26.05,-15.95 -35.95,-15.95 -35.95,9.55 26.05,9.55 	"/>
	<text transform="matrix(1 0 0 -1 -29.4546 -9.1973)" font-family="'OpenSans-Italic'" font-size="16">$21.45</text>
</symbol>

<use xlink:href="#transfer"  width="75" height="40.1" x="-35.95" y="-20.05" transform="matrix(1 0 0 -1 283.5542 111.4395)"/>

<circle fill="#3D2C70" cx="58.33" cy="55.67" r="27.33"/>
<circle fill="#3D2C70" cx="30" cy="271.67" r="27.33"/>
<circle fill="#3D2C70" cx="136.58" cy="129.67" r="27.33"/>
<circle fill="#D76016" cx="228.67" cy="250.81" r="27.33"/>
<circle fill="#3D2C70" cx="545.91" cy="239" r="27.33"/>
<circle fill="#3D2C70" cx="297.25" cy="31.67" r="27.33"/>
<circle fill="#3D2C70" cx="382.58" cy="184.33" r="27.33"/>
<circle fill="#3D2C70" cx="467.25" cy="68" r="27.33"/>
<circle fill="#3D2C70" cx="607.91" cy="122.67" r="27.33"/>
</svg>
